<ttFont>
          <CharString index="0">
            41 -18 38 -21 26 vhcurveto
            return
          </CharString>
          <CharString index="1">
            vlineto
            -106 callgsubr
          </CharString>
          <CharString index="2">
            -26 71 -20 49 vhcurveto
            540 return
          </CharString>
          <CharString index="3">
            235 callsubr
            -48 22 37 -28 -94 callsubr
            172 hlineto
            return
          </CharString>
          <CharString index="4">
            -49 625 rmoveto
            -79 callgsubr
            -51 callgsubr
            -123 hlineto
            -18 21 -17 30 34 vvcurveto
            65 return
          </CharString>
          <CharString index="5">
            -102 callgsubr
            18 hhcurveto
            return
          </CharString>
          <CharString index="6">
            -100 callsubr
            rrcurveto
            -19 41 56 -10 52 hhcurveto
            return
          </CharString>
          <CharString index="7">
            130 callgsubr
            31 4 26 9 21 16 return
          </CharString>
          <CharString index="8">
            -45 callgsubr
            -34 -6 -36 -10 -31 -15 rrcurveto
            -38 13 -30 30 50 vvcurveto
            55 36 29 28 20 16 -10 -24 -22 -13 -13 -26 -18 vhcurveto
            3 -10 11 -20 9 -8 rrcurveto
            60 18 38 38 39 vvcurveto
            51 -38 40 -85 return
          </CharString>
          <CharString index="9">
            -41 -98 callgsubr
            return
          </CharString>
          <CharString index="10">
            56 callsubr
            -96 83 -95 118 -66 callsubr
            return
          </CharString>
          <CharString index="11">
            -104 callsubr
            -15 callgsubr
            return
          </CharString>
          <CharString index="12">
            -48 -30 -31 -49 -37 25 -33 42 -5 hvcurveto
            -9 -30 -20 -40 -34 -24 rrcurveto
            -8 21 -21 9 5 vhcurveto
            55 23 67 93 76 vvcurveto
            49 -32 32 -46 vhcurveto
            return
          </CharString>
          <CharString index="13">
            hvcurveto
            -88 callgsubr
            return
          </CharString>
          <CharString index="14">
            rmoveto
            -18 -27 -30 -11 -38 hhcurveto
            -47 -25 25 41 54 44 21 46 26 26 -4 -9 25 hvcurveto
            122 -141 rmoveto
            267 vlineto
            142 -81 58 -125 -107 -72 -47 -63 -47 42 -21 51 5 vhcurveto
            61 40 32 39 59 32 -31 -96 vhcurveto
            -44 vlineto
            4 -26 -28 2 -28 hhcurveto
            -157 -55 -70 -81 -87 65 -52 91 58 48 19 33 40 hvcurveto
            -30 13 28 -22 55 hhcurveto
            68 15 32 28 hvcurveto
            endchar
          </CharString>
          <CharString index="15">
            -76 callgsubr
            -99 112 callsubr
            157 hhcurveto
            75 56 41 82 57 -27 56 -31 36 hvcurveto
            return
          </CharString>
          <CharString index="16">
            -86 callgsubr
            21 16 return
          </CharString>
          <CharString index="17">
            hlineto
            -98 callsubr
            return
          </CharString>
          <CharString index="18">
            21 -26 vhcurveto
            return
          </CharString>
          <CharString index="19">
            -39 callsubr
            -151 hlineto
            -80 callsubr
            return
          </CharString>
          <CharString index="20">
            -81 callgsubr
            hhcurveto
            return
          </CharString>
          <CharString index="21">
            27 -45 54 callsubr
            -44 42 -44 38 rrcurveto
            25 31 14 37 41 vvcurveto
            42 -14 42 -46 -45 -67 -40 -53 -16 6 -39 91 callsubr
            -46 38 76 91 66 45 114 29 16 -3 -3 21 hvcurveto
            13 -2 36 39 17 vvcurveto
            endchar
          </CharString>
          <CharString index="22">
            15 12 21 29 9 16 rrcurveto
            -79 63 -68 59 88 vvcurveto
            55 27 38 52 41 33 231 callgsubr
            55 23 116 80 1 rrcurveto
            -333 -106 callsubr
          </CharString>
          <CharString index="23">
            2 callgsubr
            31 21 -17 -34 -59 -62 -58 -45 -29 hvcurveto
            14 -28 29 -39 31 -19 rrcurveto
            67 38 49 64 84 vvcurveto
            110 -69 74 -103 87 callsubr
            vhcurveto
            endchar
          </CharString>
          <CharString index="24">
            -24 callgsubr
            2 29 return
          </CharString>
          <CharString index="25">
            hlineto
            -87 callgsubr
            return
          </CharString>
          <CharString index="26">
            hmoveto
            -107 callsubr
            return
          </CharString>
          <CharString index="27">
            -48 -33 93 callgsubr
            -9 callgsubr
            -47 85 -107 58 16 18 6 107 callgsubr
            return
          </CharString>
          <CharString index="28">
            520 -103 callgsubr
            return
          </CharString>
          <CharString index="29">
            58 callsubr
            1 -351 rlineto
            -142 -60 -56 -98 -107 -33 68 142 vhcurveto
            341 vlineto
            -48 callgsubr
            -225 90 callgsubr
            -323 vlineto
            -236 100 -70 147 169 87 92 213 vhcurveto
            89 callgsubr
            return
          </CharString>
          <CharString index="30">
            hlineto
            50 -4 55 10 -1 hvcurveto
            return
          </CharString>
          <CharString index="31">
            -23 callgsubr
            -59 callgsubr
            return
          </CharString>
          <CharString index="32">
            -70 callgsubr
            162 -494 -106 callsubr
          </CharString>
          <CharString index="33">
            rmoveto
            438 -156 165 callgsubr
            78 -324 hlineto
            -22 -29 -27 -12 -40 hhcurveto
            -62 -35 29 85 hvcurveto
            315 -151 165 callgsubr
            73 -239 hlineto
            -153 93 -57 92 65 43 29 32 37 vhcurveto
            21 -56 142 14 rlineto
            13 1 49 -35 1 vhcurveto
            return
          </CharString>
          <CharString index="34">
            163 callgsubr
            -63 -38 -20 -67 -109 173 -198 233 -14 hvcurveto
            14 23 12 37 6 33 -118 18 return
          </CharString>
          <CharString index="35">
            189 -214 hlineto
            -46 -37 -47 -32 -42 hhcurveto
            -50 -13 52 149 hvcurveto
            return
          </CharString>
          <CharString index="36">
            -34 callsubr
            -36 51 -25 hhcurveto
            -28 -44 -30 -41 -42 55 -33 58 -18 hvcurveto
            35 -56 29 -82 21 -49 21 7 62 41 7 16 -11 19 -40 48 -38 42 rrcurveto
            2 hlineto
            157 76 90 72 return
          </CharString>
          <CharString index="37">
            -494 115 callsubr
            return
          </CharString>
          <CharString index="38">
            -107 callgsubr
            147 -73 callsubr
            return
          </CharString>
          <CharString index="39">
            81 callsubr
            38 42 -10 -13 16 184 callgsubr
            -57 27 -64 hhcurveto
            -96 -106 -59 228 callgsubr
            return
          </CharString>
          <CharString index="40">
            -17 238 616 rmoveto
            213 -3 9 -118 rlineto
            10 -1 54 -4 44 vvcurveto
            151 -438 vlineto
            -16 callsubr
            rlineto
            -49 -3 5 -54 -10 vvcurveto
            503 163 hlineto
            44 -54 -4 -10 -1 vhcurveto
            -8 -123 -233 -18 callsubr
            return
          </CharString>
          <CharString index="41">
            50 38 12 17 31 hvcurveto
            87 callgsubr
            return
          </CharString>
          <CharString index="42">
            203 callsubr
            -44 -33 -34 -39 vhcurveto
            -3 hlineto
            -7 61 -181 -42 callgsubr
            -357 4 callsubr
            303 vlineto
            29 34 29 17 56 hhcurveto
            54 24 callsubr
            return
          </CharString>
          <CharString index="43">
            vlineto
            -107 callsubr
            return
          </CharString>
          <CharString index="44">
            25 11 61 46 11 23 -25 39 -43 41 -46 40 rrcurveto
            29 31 18 37 41 vvcurveto
            44 -21 39 -45 -46 -67 -40 -53 -16 6 -23 91 callsubr
            -69 28 77 101 85 34 102 42 11 -2 -1 19 hvcurveto
            14 5 38 36 27 vvcurveto
            return
          </CharString>
          <CharString index="45">
            -98 hlineto
            19 -36 -45 14 -49 hhcurveto
            -102 -88 return
          </CharString>
          <CharString index="46">
            vlineto
            -31 -82 callgsubr
            223 -77 callsubr
            return
          </CharString>
          <CharString index="47">
            rmoveto
            -204 -121 -136 -229 -220 108 -130 184 206 121 136 229 220 -109 130 -185 hvcurveto
            -16 -80 rmoveto
            118 62 -97 -185 -177 -63 -94 -121 -2 hvcurveto
            -115 2 -60 97 183 vvcurveto
            183 callsubr
            vhcurveto
            return
          </CharString>
          <CharString index="48">
            58 callsubr
            rlineto
            -394 vlineto
            -312 465 rlineto
            -131 40 callsubr
            175 179 callgsubr
            435 vlineto
            339 -507 rlineto
            30 28 5 9 19 hvcurveto
            603 67 callgsubr
          </CharString>
          <CharString index="49">
            rmoveto
            2 hlineto
            60 2 rlineto
            83 3 44 -47 -80 vvcurveto
            -88 -52 -50 -115 -7 -7 0 1 -8 vhcurveto
            -159 322 rmoveto
            -28 -12 -33 -30 258 callsubr
            -547 14 callsubr
            237 -77 callsubr
            -84 6 rlineto
            229 vlineto
            14 14 0 12 hhcurveto
            -129 46 110 -186 98 hhcurveto
            54 38 39 49 6 hvcurveto
            -81 -91 88 149 -76 hvcurveto
            116 26 59 73 98 vvcurveto
            117 -82 61 -166 vhcurveto
            endchar
          </CharString>
          <CharString index="50">
            rmoveto
            -45 -30 33 78 70 25 44 51 50 27 -42 -70 -73 -30 -40 -48 hvcurveto
            162 -281 rmoveto
            -46 -63 -36 -88 -87 -40 31 42 21 10 20 15 18 vhcurveto
            28 -6 35 -1 38 -2 rrcurveto
            93 -4 59 -3 -34 vvcurveto
            -50 558 rmoveto
            16 -30 -37 8 -37 hhcurveto
            -123 -74 -84 -108 -67 29 -54 48 -31 hvcurveto
            -30 -35 -20 -38 -38 vvcurveto
            -21 5 -15 10 -12 vhcurveto
            -33 -31 -25 -39 -45 vvcurveto
            -74 66 -61 133 145 108 78 124 93 -68 28 -128 5 vhcurveto
            -88 3 -29 2 15 vvcurveto
            6 5 14 9 16 vhcurveto
            -3 15 17 -2 18 hhcurveto
            113 77 75 114 6 hvcurveto
            2 46 -9 36 -19 28 30 -1 35 0 13 7 16 12 -5 55 -11 14 rrcurveto
            endchar
          </CharString>
          <CharString index="51">
            hlineto
            -76 callgsubr
            -102 -66 197 69 -20 vhcurveto
            -233 hlineto
            -76 callgsubr
            -89 112 callsubr
            147 hhcurveto
            75 56 41 82 57 -27 56 -31 36 hvcurveto
            112 hlineto
            -146 55 90 -126 121 hhcurveto
            75 56 41 82 57 -27 56 -31 36 hvcurveto
            return
          </CharString>
          <CharString index="52">
            hlineto
            -41 18 -38 21 -26 vhcurveto
            84 -52 callsubr
            return
          </CharString>
          <CharString index="53">
            89 -133 -36 callsubr
            return
          </CharString>
          <CharString index="54">
            hhcurveto
            154 callsubr
            hvcurveto
            20 16 18 54 45 vvcurveto
            2 29 26 0 26 hhcurveto
            41 39 -2 -4 40 hvcurveto
            -179 -106 callsubr
          </CharString>
          <CharString index="55">
            244 callgsubr
            38 40 9 17 34 vhcurveto
            83 callsubr
            return
          </CharString>
          <CharString index="56">
            rmoveto
            2 -40 -51 1 -45 -12 callsubr
            204 vlineto
            return
          </CharString>
          <CharString index="57">
            4 -20 callgsubr
            return
          </CharString>
          <CharString index="58">
            40 callgsubr
            vhcurveto
            -89 -106 callsubr
          </CharString>
          <CharString index="59">
            hhcurveto
            -60 -69 -20 -21 -26 hvcurveto
            12 -39 36 -48 13 -15 rrcurveto
            31 35 52 28 37 hhcurveto
            45 17 -39 -40 -76 -61 -15 -33 -110 -65 84 126 -78 hvcurveto
            -12 -4 -40 -28 -5 -10 rrcurveto
            -87 35 125 -181 173 hhcurveto
            return
          </CharString>
          <CharString index="60">
            14 -26 25 11 61 46 11 23 -25 39 -43 41 -46 40 rrcurveto
            28 29 19 38 42 vvcurveto
            44 -21 39 -45 -46 -67 -40 -53 -16 6 -23 9 -14 vhcurveto
            -13 -24 -31 -1 -17 hhcurveto
            -88 -70 25 86 94 85 35 109 27 22 -2 -1 16 250 callgsubr
          </CharString>
          <CharString index="61">
            rmoveto
            -161 -86 -105 -177 -160 77 -93 147 161 87 100 170 163 -82 102 -143 hvcurveto
            -11 -77 rmoveto
            70 39 -76 -124 -113 -39 -69 -70 -70 -39 69 121 116 39 76 70 hvcurveto
            return
          </CharString>
          <CharString index="62">
            -12 callgsubr
            -95 -21 vhcurveto
            return
          </CharString>
          <CharString index="63">
            -96 callsubr
            -675 117 callsubr
            -12 callgsubr
            return
          </CharString>
          <CharString index="64">
            -35 -18 -25 -18 -28 vvcurveto
            -58 90 -76 33 21 28 18 14 29 -17 50 -7 19 vhcurveto
            return
          </CharString>
          <CharString index="65">
            16 3 35 28 12 14 rrcurveto
            -26 37 -67 102 return
          </CharString>
          <CharString index="66">
            -99 callsubr
            -115 -53 -78 -74 45 callgsubr
            return
          </CharString>
          <CharString index="67">
            -2 callgsubr
            71 -6 rlineto
            1 -545 hlineto
            -32 callsubr
            return
          </CharString>
          <CharString index="68">
            -107 callgsubr
            132 return
          </CharString>
          <CharString index="69">
            -107 callgsubr
            308 165 callsubr
            -26 51 -41 hhcurveto
            -27 -39 -30 -41 -42 55 -33 58 -18 hvcurveto
            35 -56 29 -82 21 -49 21 7 62 41 7 16 -11 19 -40 48 -38 42 rrcurveto
            2 hlineto
            157 76 90 72 58 -50 109 -86 hvcurveto
            11 callsubr
            return
          </CharString>
          <CharString index="70">
            -73 callsubr
            -154 54 -53 84 70 callsubr
            427 hlineto
            -5 -14 -3 -16 -19 vvcurveto
            -73 63 -54 80 -27 vhcurveto
            9 6 14 22 3 11 rrcurveto
            -41 35 -11 27 28 vvcurveto
            44 26 25 31 45 23 -30 -66 -78 -65 -75 -54 -14 vhcurveto
            23 -20 -33 29 -27 hhcurveto
            -24 -19 -29 -24 -22 hvcurveto
            -28 -26 -58 -55 -72 -71 callgsubr
            74 70 38 42 43 hvcurveto
            -4 14 15 -2 10 196 callgsubr
            96 44 110 84 114 vvcurveto
            40 -12 31 -19 24 vhcurveto
            98 66 callsubr
          </CharString>
          <CharString index="71">
            56 -71 hvcurveto
            -42 callsubr
            return
          </CharString>
          <CharString index="72">
            172 callgsubr
            -109 105 -65 50 hvcurveto
            -71 callsubr
            return
          </CharString>
          <CharString index="73">
            41 97 43 32 hhcurveto
            15 12 -9 -18 -41 -64 -65 -91 -12 -29 2 6 -18 hvcurveto
            25 -12 return
          </CharString>
          <CharString index="74">
            vvcurveto
            -42 33 -37 62 34 34 13 20 14 vhcurveto
            2 11 -3 26 -6 4 rrcurveto
            -9 -11 -21 -12 -20 hhcurveto
            -23 -18 16 33 return
          </CharString>
          <CharString index="75">
            -63 callgsubr
            225 -77 callsubr
            return
          </CharString>
          <CharString index="76">
            -9 83 -181 -23 rlineto
            -13 -1 -44 32 -3 vhcurveto
            44 -5 rlineto
            -358 14 callsubr
            231 204 callsubr
            283 vlineto
            37 23 33 28 34 hhcurveto
            20 18 -4 -71 hvcurveto
            24 -3 19 0 14 11 rrcurveto
            16 14 17 29 41 vvcurveto
            60 -38 24 -36 return
          </CharString>
          <CharString index="77">
            127 callsubr
            rlineto
            return
          </CharString>
          <CharString index="78">
            16 callgsubr
            47 -5 -96 -249 -101 250 11 2 48 8 -5 49 1 10 rlinecurve
            -207 61 callgsubr
            55 -6 rlineto
            5 hlineto
            177 -392 rlineto
            -65 -20 -51 -125 -43 hhcurveto
            -28 1 34 19 4 hvcurveto
            2 -5 -13 0 -4 hhcurveto
            -37 -26 -29 -35 -45 35 -31 59 110 48 140 127 55 hvcurveto
            -1 hlineto
            166 403 4 1 49 9 -6 48 1 10 rlinecurve
            endchar
          </CharString>
          <CharString index="79">
            -81 -69 36 83 55 33 77 142 25 25 -2 -3 29 hvcurveto
            17 9 19 24 5 20 rrcurveto
            120 162 -64 callsubr
            return
          </CharString>
          <CharString index="80">
            -44 callsubr
            -95 -21 vhcurveto
            return
          </CharString>
          <CharString index="81">
            -6 callsubr
            endchar
          </CharString>
          <CharString index="82">
            rmoveto
            39 150 callsubr
            -39 -39 -32 -32 -38 -39 32 -31 39 hvcurveto
            190 hmoveto
            40 150 callsubr
            -40 -38 -32 -32 -38 -39 32 -31 38 hvcurveto
            return
          </CharString>
          <CharString index="83">
            17 -34 -42 13 -51 hhcurveto
            -86 -92 -48 -115 -96 81 -96 123 41 32 10 15 28 hvcurveto
            return
          </CharString>
          <CharString index="84">
            1094 19 callsubr
            -96 hhcurveto
            -55 -68 -19 -44 -76 hvcurveto
            -19 23 -23 17 -26 10 rrcurveto
            41 537 vlineto
            -15 callgsubr
            -1362 -107 callgsubr
            467 -36 hlineto
            -56 -16 -42 -48 -61 vvcurveto
            -75 61 -50 69 -29 -85 callgsubr
            36 -4 -29 76 -96 hhcurveto
            -85 -54 -59 -73 -62 40 -43 73 -26 hvcurveto
            -22 -24 -15 -27 -41 vvcurveto
            return
          </CharString>
          <CharString index="85">
            1 -8 -9 1 -10 2 callsubr
            return
          </CharString>
          <CharString index="86">
            44 -74 74 -97 68 -67 return
          </CharString>
          <CharString index="87">
            16 callgsubr
            78 -6 -132 -241 -135 243 rlineto
            2 hlineto
            32 2 48 3 -5 54 1 10 rlinecurve
            -242 61 callgsubr
            64 -6 190 -330 rlineto
            -215 vlineto
            143 callgsubr
            217 hlineto
            185 328 25 2 49 4 -6 53 1 10 rlinecurve
            endchar
          </CharString>
          <CharString index="88">
            rmoveto
            -83 callgsubr
            return
          </CharString>
          <CharString index="89">
            -8 rlineto
            229 vlineto
            180 -10 6 31 -1 41 -6 27 rlinecurve
            -179 -21 rlineto
            return
          </CharString>
          <CharString index="90">
            -103 callgsubr
            -318 180 callgsubr
            56 7 callsubr
            return
          </CharString>
          <CharString index="91">
            -30 callsubr
            -545 vlineto
            -29 -2 return
          </CharString>
          <CharString index="92">
            rmoveto
            -141 vlineto
            -45 42 1 22 vhcurveto
            10 110 rlineto
            161 -541 hlineto
            -39 132 callsubr
            -82 6 rlineto
            539 162 vlineto
            10 -110 rlineto
            22 42 -1 45 hvcurveto
            141 vlineto
            endchar
          </CharString>
          <CharString index="93">
            166 callgsubr
            -601 -107 callgsubr
            320 -72 hlineto
            138 callgsubr
            46 callgsubr
            hvcurveto
            return
          </CharString>
          <CharString index="94">
            -29 -34 -44 -21 -46 hhcurveto
            -41 -40 25 58 57 39 46 72 38 31 -5 -8 25 hvcurveto
            return
          </CharString>
          <CharString index="95">
            -40 callgsubr
            216 return
          </CharString>
          <CharString index="96">
            rmoveto
            36 20 -40 -80 -83 -22 -39 -35 -35 -24 35 83 81 20 43 40 hvcurveto
            2 58 rmoveto
            -92 -53 -59 -121 -121 53 -57 90 89 53 58 124 122 -51 54 -89 hvcurveto
            return
          </CharString>
          <CharString index="97">
            -21 callgsubr
            65 -131 151 return
          </CharString>
          <CharString index="98">
            23 -37 -46 19 -52 hhcurveto
            return
          </CharString>
          <CharString index="99">
            69 callgsubr
            85 10 46 69 120 vvcurveto
            36 -2 57 -10 46 vhcurveto
            366 hlineto
            -302 vmoveto
            -13 callsubr
            258 179 -103 callgsubr
            -888 -107 callgsubr
            146 121 callgsubr
            -53 -39 -21 -67 -76 85 -133 139 -48 hvcurveto
            178 callsubr
            510 140 rlineto
            -59 vlineto
            -26 71 -20 49 vhcurveto
            624 vlineto
            endchar
          </CharString>
          <CharString index="100">
            -111 255 callsubr
            204 172 27 -46 22 -47 31 -59 rlinecurve
            -63 callsubr
            return
          </CharString>
          <CharString index="101">
            -32 callgsubr
            vlineto
            return
          </CharString>
          <CharString index="102">
            24 -51 14 -63 -52 vvcurveto
            -6 0 -6 -1 return
          </CharString>
          <CharString index="103">
            rmoveto
            -14 -25 -27 -9 -26 hhcurveto
            -52 -35 31 62 29 9 25 16 18 hvcurveto
            return
          </CharString>
          <CharString index="104">
            vvcurveto
            62 31 35 59 48 21 -23 -8 10 vhcurveto
            21 17 rlineto
            48 -10 -41 54 -80 hhcurveto
            -75 -58 -48 -56 -19 hvcurveto
            46 -44 -53 37 -68 15 callsubr
            82 23 46 hhcurveto
            return
          </CharString>
          <CharString index="105">
            -40 -79 -30 -82 -17 hvcurveto
            -98 12 68 -143 166 hhcurveto
            53 41 15 16 29 hvcurveto
            -63 -106 callsubr
          </CharString>
          <CharString index="106">
            rmoveto
            -66 hlineto
            -75 -59 -7 -16 -43 hvcurveto
            19 -27 -33 11 -34 266 callsubr
            143 462 vlineto
            -771 hmoveto
            -72 callsubr
            1029 91 -103 callgsubr
            -1237 14 callgsubr
            36 56 57 63 58 7 rrcurveto
            -13 -20 -6 -25 -30 vvcurveto
            -103 89 -128 56 -72 vhcurveto
            -68 callgsubr
          </CharString>
          <CharString index="107">
            rmoveto
            40 150 callsubr
            -40 -38 -32 -32 -38 -39 32 -31 38 hvcurveto
            -190 hmoveto
            39 150 callsubr
            -39 -39 -32 -32 -38 -39 32 -31 39 hvcurveto
            return
          </CharString>
          <CharString index="108">
            -2 6 8 -1 9 hhcurveto
            15 16 2 6 9 hvcurveto
            23 14 return
          </CharString>
          <CharString index="109">
            hhcurveto
            -70 -43 -41 -50 -28 hvcurveto
            36 -15 -46 57 -82 hhcurveto
            return
          </CharString>
          <CharString index="110">
            -212 -106 callsubr
          </CharString>
          <CharString index="111">
            -61 callsubr
            -71 6 rlineto
            return
          </CharString>
          <CharString index="112">
            557 214 callgsubr
            -756 -107 callgsubr
            467 -32 23 callgsubr
            return
          </CharString>
          <CharString index="113">
            25 callsubr
            -10 -17 -7 -28 return
          </CharString>
          <CharString index="114">
            -246 hlineto
            -51 -38 -61 -38 -63 -99 callsubr
            return
          </CharString>
          <CharString index="115">
            hhcurveto
            151 89 callsubr
            -389 -107 callgsubr
            259 -9 hlineto
            -95 102 -56 73 callsubr
            -39 22 -43 29 51 152 callgsubr
            -196 vlineto
            14 -59 -77 24 -56 hhcurveto
            -52 -20 0 -102 callsubr
            98 hlineto
            6 -63 86 -76 27 -11 rrcurveto
            1 callsubr
            15 64 4 37 rrcurveto
            return
          </CharString>
          <CharString index="116">
            57 callgsubr
            365 -108 hlineto
            -24 callsubr
            -86 vlineto
            -105 callgsubr
            endchar
          </CharString>
          <CharString index="117">
            -53 13 callgsubr
            return
          </CharString>
          <CharString index="118">
            12 callgsubr
            55 19 -3 11 hhcurveto
            18 33 39 25 hvcurveto
            return
          </CharString>
          <CharString index="119">
            -101 callgsubr
            120 180 rmoveto
            349 -95 callgsubr
            -823 -19 callgsubr
            31 21 -17 -34 -59 -62 -58 -45 -29 hvcurveto
            14 -28 29 -39 31 -19 rrcurveto
            67 38 49 64 84 vvcurveto
            110 -69 74 -103 87 callsubr
            vhcurveto
            endchar
          </CharString>
          <CharString index="120">
            -73 52 -47 73 callsubr
            -24 15 -15 21 35 vvcurveto
            45 27 18 31 173 callgsubr
            return
          </CharString>
          <CharString index="121">
            vlineto
            -63 callgsubr
            return
          </CharString>
          <CharString index="122">
            hhcurveto
            -53 -85 -23 -7 -15 hvcurveto
            3 -24 27 -72 4 -6 rrcurveto
            5 12 return
          </CharString>
          <CharString index="123">
            172 callsubr
            hvcurveto
            -56 callgsubr
          </CharString>
          <CharString index="124">
            47 callgsubr
            54 callgsubr
            return
          </CharString>
          <CharString index="125">
            rmoveto
            -64 -47 -61 -37 -70 hhcurveto
            -52 -39 21 38 -45 hvcurveto
            -12 -9 -16 -20 -8 -16 rrcurveto
            -71 60 75 -46 77 hhcurveto
            101 84 78 38 27 hvcurveto
            -11 32 -31 37 -32 19 rrcurveto
            -149 93 rmoveto
            -17 -59 -50 -17 -16 50 -59 16 16 58 53 15 13 -46 61 -18 hvcurveto
            endchar
          </CharString>
          <CharString index="126">
            215 rmoveto
            -27 -27 -42 -22 -61 hhcurveto
            -63 -45 22 37 -28 hvcurveto
            116 29 30 73 46 vvcurveto
            62 -1 -53 57 return
          </CharString>
          <CharString index="127">
            rmoveto
            39 21 -26 -32 -50 -42 -28 -48 -26 hvcurveto
            -23 21 -14 32 32 vvcurveto
            57 36 20 31 vhcurveto
            return
          </CharString>
          <CharString index="128">
            hhcurveto
            41 39 11 19 34 hvcurveto
            -129 -106 callsubr
          </CharString>
          <CharString index="129">
            44 35 35 44 44 -35 35 -44 -44 -35 -35 -44 -44 35 -35 44 hvcurveto
            return
          </CharString>
          <CharString index="130">
            -104 callsubr
            -279 hmoveto
            -53 callgsubr
            return
          </CharString>
          <CharString index="131">
            35 -24 -81 hvcurveto
            -246 14 callsubr
            221 -77 callsubr
            return
          </CharString>
          <CharString index="132">
            57 hvcurveto
            34 -95 callgsubr
            71 callgsubr
            return
          </CharString>
          <CharString index="133">
            vvcurveto
            -36 20 -43 15 -27 vhcurveto
            -43 callgsubr
          </CharString>
          <CharString index="134">
            -64 callgsubr
            309 91 204 callgsubr
            -892 hlineto
            -41 18 -38 21 -26 vhcurveto
            84 -81 hlineto
            -154 54 -137 147 38 40 9 17 34 vhcurveto
            -148 -93 callgsubr
          </CharString>
          <CharString index="135">
            rmoveto
            42 32 32 42 41 -32 33 -42 -41 -33 -33 -41 -42 33 -32 41 hvcurveto
            return
          </CharString>
          <CharString index="136">
            rmoveto
            -162 vlineto
            30 -7 39 7 5 39 7 53 rcurveline
            153 6 -266 -386 rlineto
            -18 10 -24 7 -13 vhcurveto
            400 164 hlineto
            -30 7 -39 -7 -5 -39 -9 -52 rcurveline
            -181 -6 260 379 rlineto
            15 -13 34 -11 10 vhcurveto
            return
          </CharString>
          <CharString index="137">
            184 625 rmoveto
            -22 27 -21 42 57 vvcurveto
            46 22 32 120 callsubr
            -76 hvcurveto
            63 -67 -94 52 -122 110 callsubr
            136 -64 callsubr
            return
          </CharString>
          <CharString index="138">
            65 callsubr
            -33 -44 -18 7 -13 9 -11 163 callsubr
            66 -14 57 hhcurveto
            return
          </CharString>
          <CharString index="139">
            -45 callsubr
            -100 12 70 -140 171 hhcurveto
            55 41 16 17 30 hvcurveto
            -94 -106 callsubr
          </CharString>
          <CharString index="140">
            230 160 callgsubr
            return
          </CharString>
          <CharString index="141">
            121 callsubr
            59 48 -1 -2 45 hvcurveto
            -309 -183 -38 callgsubr
            rlinecurve
            255 175 rlineto
            -122 vlineto
            -26 71 -30 275 callgsubr
          </CharString>
          <CharString index="142">
            135 callsubr
            120 180 rmoveto
            return
          </CharString>
          <CharString index="143">
            -107 callgsubr
            85 return
          </CharString>
          <CharString index="144">
            vlineto
            -198 -42 callgsubr
            return
          </CharString>
          <CharString index="145">
            vlineto
            56 2 rlineto
            179 6 75 -77 -207 vvcurveto
            -194 -71 -86 -174 11 vhcurveto
            -209 616 rmoveto
            -43 -10 -21 -44 1 hvcurveto
            70 -6 rlineto
            1 return
          </CharString>
          <CharString index="146">
            269 callsubr
            -24 -54 -18 63 95 vhcurveto
            161 146 vlineto
            return
          </CharString>
          <CharString index="147">
            hlineto
            -16 callsubr
            -49 -3 6 -54 -1 -10 rlinecurve
            return
          </CharString>
          <CharString index="148">
            -64 callgsubr
            309 91 rmoveto
            197 -95 callgsubr
            -714 64 callsubr
            16 14 -5 -10 9 hvcurveto
            57 51 rlineto
            33 -31 -45 19 -50 224 callgsubr
            endchar
          </CharString>
          <CharString index="149">
            49 callgsubr
            -17 -16 -2 -3 -15 vhcurveto
            return
          </CharString>
          <CharString index="150">
            -107 callgsubr
            358 -61 -112 hlineto
            161 callgsubr
            return
          </CharString>
          <CharString index="151">
            rmoveto
            177 -213 rlineto
            -26 -30 -32 -16 -27 106 callsubr
            return
          </CharString>
          <CharString index="152">
            hhcurveto
            75 56 41 82 57 -27 56 -31 36 hvcurveto
            152 -293 -60 callgsubr
          </CharString>
          <CharString index="153">
            hhcurveto
            -13 -6 -24 -27 -5 -19 rrcurveto
            21 -22 37 -29 -46 vvcurveto
            -35 -22 -15 -31 -82 -72 108 66 -25 vhcurveto
            return
          </CharString>
          <CharString index="154">
            -31 -35 -41 -23 -52 hhcurveto
            -110 -33 83 103 111 38 66 70 65 24 -58 -49 1 hvcurveto
            34 -4 53 18 62 vvcurveto
            71 -69 42 -94 return
          </CharString>
          <CharString index="155">
            rmoveto
            24 12 12 15 6 14 -167 137 rcurveline
            -34 -7 -38 -40 -10 -21 rrcurveto
            endchar
          </CharString>
          <CharString index="156">
            -50 430 147 callgsubr
            -599 -107 callgsubr
            321 -73 hlineto
            147 callsubr
            214 callsubr
            hvcurveto
            -69 callgsubr
            return
          </CharString>
          <CharString index="157">
            hlineto
            -63 callgsubr
            return
          </CharString>
          <CharString index="158">
            53 callgsubr
            7 return
          </CharString>
          <CharString index="159">
            hlineto
            -36 -4 -30 -3 -8 -35 3 -28 rlinecurve
            291 hlineto
            214 131 119 227 232 -120 107 -230 hvcurveto
            endchar
          </CharString>
          <CharString index="160">
            215 callgsubr
            -109 173 -198 233 -14 hvcurveto
            14 23 12 37 6 33 -118 18 -154 return
          </CharString>
          <CharString index="161">
            22 -47 31 -59 25 11 61 46 11 23 -25 39 return
          </CharString>
          <CharString index="162">
            -57 291 700 rmoveto
            254 callgsubr
            hvcurveto
            153 callsubr
            24 callgsubr
            vhcurveto
            return
          </CharString>
          <CharString index="163">
            -62 callsubr
            -58 -113 return
          </CharString>
          <CharString index="164">
            53 39 16 21 33 return
          </CharString>
          <CharString index="165">
            16 callgsubr
            71 -6 return
          </CharString>
          <CharString index="166">
            -61 -105 hlineto
            -89 -56 -46 -81 201 callsubr
            hvcurveto
            48 93 43 31 hhcurveto
            17 11 -9 -19 -51 -64 221 callgsubr
            106 207 callgsubr
            -98 -42 -26 hhcurveto
            -9 -10 4 28 59 56 13 87 190 callgsubr
            42 23 hvcurveto
            return
          </CharString>
          <CharString index="167">
            -2 -10 -12 1 callgsubr
            return
          </CharString>
          <CharString index="168">
            20 24 139 callgsubr
            -33 -66 -30 -62 hhcurveto
            -82 -35 28 53 66 65 33 92 hvcurveto
            18 21 -1 12 hhcurveto
            23 33 40 22 hvcurveto
            80 148 -64 callsubr
            -572 -107 callgsubr
            319 -53 hlineto
            -13 -12 1 -13 hhcurveto
            -138 -89 -67 -103 -104 97 -82 137 10 11 1 1 10 hvcurveto
            return
          </CharString>
          <CharString index="169">
            rmoveto
            -28 -12 -27 -54 -89 hhcurveto
            -80 -38 54 28 -12 hvcurveto
            -36 -20 rlineto
            -72 9 51 -75 105 hhcurveto
            104 52 75 72 9 hvcurveto
            return
          </CharString>
          <CharString index="170">
            rmoveto
            -233 153 callgsubr
            -438 vlineto
            -16 callsubr
            rlineto
            -49 -3 5 -54 -10 vvcurveto
            503 163 205 callgsubr
          </CharString>
          <CharString index="171">
            -55 callsubr
            237 vlineto
            57 39 60 61 58 hhcurveto
            return
          </CharString>
          <CharString index="172">
            hhcurveto
            -16 -16 1 2 -14 79 callsubr
            return
          </CharString>
          <CharString index="173">
            -494 -60 callgsubr
          </CharString>
          <CharString index="174">
            20 -13 -38 32 -66 -104 callgsubr
            rrcurveto
            55 8 23 117 81 hhcurveto
            return
          </CharString>
          <CharString index="175">
            vvcurveto
            -45 -13 -41 -26 -37 vhcurveto
            26 -22 40 -14 39 -3 rrcurveto
            13 26 21 52 68 vvcurveto
            126 -77 82 -166 -59 -63 -10 -23 -53 vhcurveto
            -29 27 -9 26 13 vvcurveto
            24 return
          </CharString>
          <CharString index="176">
            -226 hlineto
            -76 callgsubr
            -99 return
          </CharString>
          <CharString index="177">
            rrcurveto
            112 12 20 109 57 callgsubr
            return
          </CharString>
          <CharString index="178">
            -7 -8 0 -7 hhcurveto
            87 -10 -70 57 -102 hhcurveto
            -49 -52 -14 -16 -20 hvcurveto
            6 -35 32 -43 10 -15 rrcurveto
            27 29 44 17 30 hhcurveto
            37 18 -29 -29 -50 -30 -38 -49 -112 -61 120 79 -41 hvcurveto
            -11 -3 -37 -21 -5 -9 rrcurveto
            -151 52 116 -100 121 hhcurveto
            77 56 40 64 17 hvcurveto
            -6 20 32 -5 30 hhcurveto
            return
          </CharString>
          <CharString index="179">
            rmoveto
            -100 -97 -50 -102 -94 83 -41 78 -31 hvcurveto
            160 callsubr
            -69 28 -49 21 35 vvcurveto
            26 28 21 40 54 45 -39 -49 vhcurveto
            46 -7 34 28 48 vvcurveto
            73 -83 20 -64 vhcurveto
            endchar
          </CharString>
          <CharString index="180">
            71 -17 116 callgsubr
            return
          </CharString>
          <CharString index="181">
            210 callgsubr
            156 -64 callsubr
            -687 -107 callgsubr
            413 -70 -190 hlineto
            -129 -41 -51 -54 -43 31 -53 51 -45 hvcurveto
            -52 -37 -35 -54 -73 vvcurveto
            -161 154 -86 122 callgsubr
            63 94 vvcurveto
            return
          </CharString>
          <CharString index="182">
            378 117 rmoveto
            -30 -33 -29 -15 -37 hhcurveto
            -79 -38 68 112 90 19 97 94 42 37 -20 -20 24 hvcurveto
            return
          </CharString>
          <CharString index="183">
            -18 -2 -35 -12 -18 -12 return
          </CharString>
          <CharString index="184">
            102 431 rmoveto
            56 4 51 -8 -51 vvcurveto
            -31 -24 -21 -37 -37 -25 22 28 vhcurveto
            -34 -17 -18 -20 -31 41 -31 78 99 52 50 57 47 -36 36 -66 7 hvcurveto
            77 19 11 39 24 vvcurveto
            49 -48 29 -75 -77 -35 -30 -35 -21 12 -16 38 vhcurveto
            20 3 10 32 40 hhcurveto
            23 13 -13 -18 -52 -64 -14 -30 hvcurveto
            return
          </CharString>
          <CharString index="185">
            hlineto
            92 callgsubr
            return
          </CharString>
          <CharString index="186">
            hvcurveto
            34 31 29 44 59 -57 callgsubr
            return
          </CharString>
          <CharString index="187">
            rmoveto
            26 10 25 18 29 48 37 -52 83 hhcurveto
            77 39 44 87 13 hvcurveto
            -37 9 rlineto
            -29 -8 -27 -22 -40 -64 -29 59 -72 hhcurveto
            -67 -44 -54 -74 -12 hvcurveto
            return
          </CharString>
          <CharString index="188">
            5 17 18 2 21 hhcurveto
            return
          </CharString>
          <CharString index="189">
            14 23 12 37 6 33 -118 18 -154 54 -53 84 rrcurveto
            112 12 20 109 9 callsubr
          </CharString>
          <CharString index="190">
            -148 vlineto
            -26 71 -20 49 vhcurveto
            return
          </CharString>
          <CharString index="191">
            hhcurveto
            -57 -38 31 62 70 48 42 77 183 callgsubr
            26 -64 hhcurveto
            -96 -106 -58 228 callgsubr
            return
          </CharString>
          <CharString index="192">
            -107 callgsubr
            354 -62 callsubr
            return
          </CharString>
          <CharString index="193">
            rmoveto
            -24 -1 -17 -3 -13 vhcurveto
            -133 156 rlineto
            137 hlineto
            -172 -43 rmoveto
            return
          </CharString>
          <CharString index="194">
            -25 -34 -6 -30 -40 return
          </CharString>
          <CharString index="195">
            vvcurveto
            57 32 37 49 45 20 -20 -15 14 vhcurveto
            31 22 rlineto
            49 -12 -42 52 -79 hhcurveto
            -96 -66 -74 -80 return
          </CharString>
          <CharString index="196">
            vlineto
            145 -99 39 -78 -22 -22 -3 -6 -20 vhcurveto
            return
          </CharString>
          <CharString index="197">
            -49 98 callsubr
            return
          </CharString>
          <CharString index="198">
            110 callgsubr
            -89 return
          </CharString>
          <CharString index="199">
            218 rmoveto
            -13 callsubr
            257 179 -103 callgsubr
            return
          </CharString>
          <CharString index="200">
            142 callgsubr
            -66 143 180 callsubr
            1 -19 11 -40 224 callsubr
            vhcurveto
            143 637 vlineto
            -946 hmoveto
            -72 callsubr
            return
          </CharString>
          <CharString index="201">
            hhcurveto
            61 45 17 21 35 hvcurveto
            -97 -106 callsubr
          </CharString>
          <CharString index="202">
            rrcurveto
            97 hlineto
            -30 -16 -18 -26 -50 vvcurveto
            -76 88 -122 57 -67 vhcurveto
            16 3 35 28 12 14 rrcurveto
            -29 42 -64 84 76 vvcurveto
            70 47 28 82 return
          </CharString>
          <CharString index="203">
            rmoveto
            22 callsubr
            return
          </CharString>
          <CharString index="204">
            -61 -75 -55 30 -42 28 -24 hvcurveto
            14 4 19 10 12 8 rrcurveto
            return
          </CharString>
          <CharString index="205">
            625 140 callgsubr
            return
          </CharString>
          <CharString index="206">
            9 8 11 25 4 16 rrcurveto
            return
          </CharString>
          <CharString index="207">
            128 callsubr
            -65 -10 166 callgsubr
            return
          </CharString>
          <CharString index="208">
            -57 -99 -94 -54 callsubr
            69 vvcurveto
            return
          </CharString>
          <CharString index="209">
            -92 -108 -59 -127 return
          </CharString>
          <CharString index="210">
            -91 callgsubr
            17 18 0 -1 17 hvcurveto
            -79 34 71 -74 124 hhcurveto
            55 41 16 17 30 hvcurveto
            -94 -106 callsubr
          </CharString>
          <CharString index="211">
            37 callsubr
            -558 vlineto
            return
          </CharString>
          <CharString index="212">
            hlineto
            -50 callgsubr
            return
          </CharString>
          <CharString index="213">
            hhcurveto
            -68 -20 45 135 hvcurveto
            return
          </CharString>
          <CharString index="214">
            3 callgsubr
            3 return
          </CharString>
          <CharString index="215">
            -89 hlineto
            -9 callsubr
            return
          </CharString>
          <CharString index="216">
            -9 callsubr
            102 callsubr
            return
          </CharString>
          <CharString index="217">
            hhcurveto
            -113 -76 97 callsubr
            -6 16 -6 21 18 vvcurveto
            62 64 17 71 134 84 -89 -86 59 vhcurveto
            216 callsubr
            return
          </CharString>
          <CharString index="218">
            vvcurveto
            -59 callgsubr
            -19 5 -24 hhcurveto
            -45 -40 -18 return
          </CharString>
          <CharString index="219">
            -72 159 180 callsubr
            76 callsubr
            rrcurveto
            -182 47 101 -185 return
          </CharString>
          <CharString index="220">
            hhcurveto
            -37 -44 -10 -13 -37 hvcurveto
            -2 23 -4 27 -6 26 -2 12 -3 11 -3 11 rrcurveto
            return
          </CharString>
          <CharString index="221">
            265 vlineto
            22 -8 11 -15 -9 -26 -1 -7 -13 vhcurveto
            -100 -55 -1 -8 17 -38 27 8 rlinecurve
            38 12 rlineto
            -210 vlineto
            return
          </CharString>
          <CharString index="222">
            hlineto
            -105 callsubr
            return
          </CharString>
          <CharString index="223">
            296 rmoveto
            -38 -18 -53 -12 -37 -4 rrcurveto
            25 -22 -29 18 -35 12 callgsubr
            46 28 -3 11 hhcurveto
            18 33 39 25 hvcurveto
            97 135 272 callgsubr
            return
          </CharString>
          <CharString index="224">
            -107 callgsubr
            138 hlineto
            return
          </CharString>
          <CharString index="225">
            -54 447 520 rmoveto
            124 -95 callgsubr
            -553 -107 callgsubr
            311 -60 hlineto
            3 -28 -24 0 -28 hhcurveto
            -135 -35 -49 -48 -36 21 -44 39 -41 hvcurveto
            -28 -28 -18 -36 -44 vvcurveto
            return
          </CharString>
          <CharString index="226">
            rmoveto
            -57 50 -244 -210 -5 -17 0 -25 5 -17 rlinecurve
            244 -210 63 50 -166 185 rlineto
            9 vlineto
            return
          </CharString>
          <CharString index="227">
            43 51 25 -41 -31 15 vhcurveto
            47 19 rlineto
            73 -5 -49 69 -93 hhcurveto
            -81 -51 -56 return
          </CharString>
          <CharString index="228">
            1 callsubr
            14 40 4 37 rrcurveto
            return
          </CharString>
          <CharString index="229">
            vhcurveto
            -9 -19 -20 -2 -19 hhcurveto
            -56 -45 18 50 return
          </CharString>
          <CharString index="230">
            132 callgsubr
            39 25 -8 -12 18 vhcurveto
            -98 18 72 -123 160 hhcurveto
            55 41 16 17 30 hvcurveto
            -94 -106 callsubr
          </CharString>
          <CharString index="231">
            -76 -36 -41 -39 -66 hhcurveto
            -40 -51 17 79 -44 hvcurveto
            -19 -9 -31 -15 -15 -15 rrcurveto
            -76 31 73 -75 118 hhcurveto
            return
          </CharString>
          <CharString index="232">
            -61 callsubr
            -70 6 rlineto
            -1 149 hlineto
            -11 26 29 -6 40 hhcurveto
            170 80 127 164 -2 hvcurveto
            184 -3 -104 60 -96 hhcurveto
            return
          </CharString>
          <CharString index="233">
            141 callgsubr
            380 return
          </CharString>
          <CharString index="234">
            -62 callgsubr
            72 -6 return
          </CharString>
          <CharString index="235">
            111 56 callgsubr
            return
          </CharString>
          <CharString index="236">
            hhcurveto
            -52 -40 23 45 61 76 return
          </CharString>
          <CharString index="237">
            -63 callgsubr
            252 -77 callsubr
            -101 6 rlineto
            -1 364 82 hlineto
            51 -3 57 13 -1 hvcurveto
            -129 31 hlineto
            98 25 26 30 27 22 -17 -47 vhcurveto
            return
          </CharString>
          <CharString index="238">
            vlineto
            -4 -14 -2 -14 -14 vvcurveto
            45 callgsubr
            173 callsubr
            return
          </CharString>
          <CharString index="239">
            -82 callgsubr
            245 -77 callsubr
            return
          </CharString>
          <CharString index="240">
            38 64 vvcurveto
            236 return
          </CharString>
          <CharString index="241">
            -271 229 71 rmoveto
            449 37 callsubr
            -363 -61 callsubr
            return
          </CharString>
          <CharString index="242">
            230 -101 callgsubr
            return
          </CharString>
          <CharString index="243">
            190 152 119 182 98 -44 73 -67 31 return
          </CharString>
          <CharString index="244">
            vlineto
            -26 71 -20 49 vhcurveto
            237 vlineto
            57 39 return
          </CharString>
          <CharString index="245">
            -129 vlineto
            -26 71 -20 49 vhcurveto
            return
          </CharString>
          <CharString index="246">
            hlineto
            -53 callgsubr
            return
          </CharString>
          <CharString index="247">
            -94 2 callgsubr
            return
          </CharString>
          <CharString index="248">
            hlineto
            -38 -35 -52 -22 -51 129 callsubr
            24 6 callsubr
            -27 vvcurveto
            return
          </CharString>
          <CharString index="249">
            -149 -100 -106 -173 -158 85 -98 142 108 85 61 39 11 -8 24 -14 9 return
          </CharString>
          <CharString index="250">
            -19 -21 2 -9 hhcurveto
            return
          </CharString>
          <CharString index="251">
            14 callgsubr
            60 38 63 67 61 hhcurveto
            return
          </CharString>
          <CharString index="252">
            202 callgsubr
            163 -494 -106 callsubr
          </CharString>
          <CharString index="253">
            520 rmoveto
            175 -95 callgsubr
            return
          </CharString>
          <CharString index="254">
            150 callgsubr
            -129 -104 -80 -126 return
          </CharString>
          <CharString index="255">
            rmoveto
            239 vlineto
            153 -93 57 -91 return
          </CharString>
          <CharString index="256">
            vhcurveto
            11 7 10 22 6 16 rrcurveto
            57 return
          </CharString>
          <CharString index="257">
            31 31 39 38 -31 32 return
          </CharString>
          <CharString index="258">
            101 8 79 66 90 vvcurveto
            186 callsubr
            vhcurveto
            -63 -105 -42 -26 hhcurveto
            -9 -10 4 28 59 56 13 94 hvcurveto
            59 12 -2 26 hhcurveto
            16 12 20 25 5 22 rrcurveto
            return
          </CharString>
          <CharString index="259">
            vvcurveto
            36 -13 33 -21 27 vhcurveto
            172 hlineto
            return
          </CharString>
          <CharString index="260">
            36 callgsubr
            102 164 99 94 133 228 callsubr
            hvcurveto
            return
          </CharString>
          <CharString index="261">
            16 17 4 7 9 return
          </CharString>
          <CharString index="262">
            123 41 32 10 15 28 hvcurveto
            -86 -106 callsubr
          </CharString>
          <CharString index="263">
            rmoveto
            18 60 54 12 21 -53 62 -18 -16 -62 -51 -20 -17 50 -61 21 hvcurveto
            endchar
          </CharString>
          <CharString index="264">
            -77 callgsubr
            31 4 return
          </CharString>
          <CharString index="265">
            hhcurveto
            111 90 69 96 return
          </CharString>
          <CharString index="266">
            -86 -51 -110 return
          </CharString>
          <CharString index="267">
            61 -24 47 -17 -45 vvcurveto
            -41 -40 -14 -43 -72 -36 40 62 -8 vhcurveto
            -42 -42 -24 -50 -75 93 -29 82 130 79 74 96 93 -74 34 -81 33 hvcurveto
            return
          </CharString>
          <CharString index="268">
            38 -32 -51 44 -81 hhcurveto
            -109 -73 -80 -114 -142 113 -73 78 57 50 39 46 33 hvcurveto
            -44 34 58 -44 71 hhcurveto
            100 87 85 126 return
          </CharString>
          <CharString index="269">
            -80 rmoveto
            167 -202 rlineto
            -21 -26 -29 -13 -24 106 callsubr
            return
          </CharString>
          <CharString index="270">
            122 callsubr
            69 84 37 58 31 hvcurveto
            -29 52 return
          </CharString>
          <CharString index="271">
            196 634 -196 hlineto
            236 -185 rmoveto
            196 185 -196 hlineto
            return
          </CharString>
          <CharString index="272">
            194 callgsubr
            -109 105 -65 50 hvcurveto
            -34 callsubr
            return
          </CharString>
          <CharString index="273">
            69 callsubr
            -72 159 180 callsubr
            76 callsubr
            return
          </CharString>
          <CharString index="274">
            5 16 18 2 19 hhcurveto
            41 42 -10 -13 16 184 callgsubr
            -57 27 -64 hhcurveto
            -96 -106 -59 228 callgsubr
            115 return
          </CharString>
          <CharString index="275">
            -120 185 callgsubr
            205 return
          </CharString>
          <CharString index="276">
            vvcurveto
            47 -54 108 -78 vhcurveto
            -60 -97 -42 -25 hhcurveto
            -9 -10 10 21 52 52 9 86 190 callgsubr
            33 23 hvcurveto
            endchar
          </CharString>
          <CharString index="277">
            vlineto
            -45 callsubr
            return
          </CharString>
          <CharString index="278">
            26 18 25 173 callgsubr
            return
          </CharString>
          <CharString index="279">
            108 87 50 58 53 return
          </CharString>
          <CharString index="280">
            -91 77 -65 112 return
          </CharString>
          <CharString index="281">
            hhcurveto
            -80 159 callsubr
            -34 callgsubr
            127 callgsubr
            return
          </CharString>
          <CharString index="282">
            9 vhcurveto
            20 16 return
          </CharString>
          <CharString index="283">
            -96 259 callsubr
            53 -68 -58 vvcurveto
            -41 -27 -16 -32 -99 -72 157 180 callsubr
            -18 -2 return
          </CharString>
          <CharString index="284">
            47 36 36 47 46 -36 37 -47 -46 -37 -37 -46 -47 37 -36 46 hvcurveto
            return
          </CharString>
          <CharString index="285">
            -173 -41 3 -31 17 -47 17 -17 rlinecurve
            return
          </CharString>
          <CharString index="286">
            rcurveline
            81 callsubr
            return
          </CharString>
          <CharString index="287">
            123 -32 vhcurveto
            return
          </CharString>
          <CharString index="288">
            148 callgsubr
            222 158 rlineto
            -187 -106 callsubr
          </CharString>
          <CharString index="289">
            520 rmoveto
            138 -95 callgsubr
            return
          </CharString>
          <CharString index="290">
            179 61 94 118 return
          </CharString>
          <CharString index="291">
            -107 callgsubr
            53 hlineto
            -7 -14 -3 -16 -17 vvcurveto
            -57 37 -49 58 -25 vhcurveto
            -28 -26 -11 -30 -34 vvcurveto
            -67 43 return
          </CharString>
          <CharString index="292">
            -74 -45 -28 -47 -34 45 -75 50 -42 hvcurveto
            -5 6 12 -4 13 hhcurveto
            12 3 2 5 6 hvcurveto
            14 12 21 61 5 55 52 return
          </CharString>
          <CharString index="293">
            55 -54 109 -78 return
          </CharString>
          <CharString index="294">
            -1 -6 -5 0 -6 hhcurveto
            -85 -29 40 51 48 26 53 127 30 9 -3 -3 16 hvcurveto
            20 7 23 24 9 23 rrcurveto
            return
          </CharString>
          <CharString index="295">
            vvcurveto
            236 callgsubr
            vhcurveto
            240 callgsubr
            return
          </CharString>
          <CharString index="296">
            -65 -38 callgsubr
            rlinecurve
            return
          </CharString>
          <CharString index="297">
            -20 -25 -35 hvcurveto
            12 -41 21 -33 23 -30 rrcurveto
            32 50 33 16 39 hhcurveto
            41 35 -17 -26 34 hvcurveto
            -231 -150 return
          </CharString>
          <CharString index="298">
            -121 90 -104 158 216 callgsubr
            return
          </CharString>
          <CharString index="299">
            -77 callsubr
            -81 6 return
          </CharString>
          <CharString index="300">
            vhcurveto
            -52 -28 -27 -42 -50 vvcurveto
            return
          </CharString>
          <CharString index="301">
            hhcurveto
            -44 -24 35 114 hvcurveto
            return
          </CharString>
          <CharString index="302">
            hhcurveto
            -30 -22 -11 -12 -11 hvcurveto
            -36 -42 20 -117 25 -24 16 -12 32 -3 9 8 22 24 16 50 8 18 return
          </CharString>
          <CharString index="303">
            3 149 -32 6 -39 -5 -27 -10 rlinecurve
            2 -140 -139 13 -10 -22 10 -47 15 -22 rlinecurve
            126 12 return
          </CharString>
          <CharString index="304">
            237 callsubr
            -63 -32 -23 -95 -17 vhcurveto
            10 -85 52 return
          </CharString>
          <CharString index="305">
            2 135 219 rmoveto
            82 78 52 116 103 43 -40 -63 -86 -79 -64 -110 -100 -51 52 67 vhcurveto
            return
          </CharString>
          <CharString index="306">
            hlineto
            137 callgsubr
            return
          </CharString>
          <CharString index="307">
            630 rmoveto
            -115 hlineto
            -356 -630 rlineto
            115 hlineto
            return
          </CharString>
          <CharString index="308">
            -114 107 -65 45 return
          </CharString>
          <CharString index="309">
            hlineto
            -78 callgsubr
            hvcurveto
            return
          </CharString>
          <CharString index="310">
            148 callsubr
            -70 return
          </CharString>
          <CharString index="311">
            192 callsubr
            rlineto
            return
          </CharString>
          <CharString index="312">
            -107 callgsubr
            376 -87 hlineto
            23 -36 -45 17 -50 hhcurveto
            102 callsubr
            return
          </CharString>
          <CharString index="313">
            2 -45 -40 callgsubr
            158 203 272 callgsubr
            return
          </CharString>
          <CharString index="314">
            rmoveto
            -356 -630 rlineto
            105 hlineto
            356 630 rlineto
            return
          </CharString>
          <CharString index="315">
            -73 hlineto
            150 callgsubr
            return
          </CharString>
          <CharString index="316">
            -70 -86 hlineto
            -139 -25 -56 -48 return
          </CharString>
          <CharString index="317">
            9 -27 34 -46 16 -11 rlinecurve
            return
          </CharString>
          <CharString index="318">
            vvcurveto
            159 callgsubr
            vhcurveto
            16 3 35 28 12 14 rrcurveto
            -29 42 -64 95 76 vvcurveto
            54 return
          </CharString>
          <CharString index="319">
            208 rmoveto
            -28 -26 -43 -22 -65 hhcurveto
            -56 -48 16 36 -29 hvcurveto
            114 29 31 70 50 vvcurveto
            return
          </CharString>
          <CharString index="320">
            -61 callsubr
            endchar
          </CharString>
          <CharString index="321">
            -124 102 -105 156 172 callsubr
            return
          </CharString>
          <CharString index="322">
            -30 -26 -41 -25 -68 hhcurveto
            return
          </CharString>
          <CharString index="323">
            -145 -32 callgsubr
            return
          </CharString>
          <CharString index="324">
            vvcurveto
            -109 173 -198 233 -14 vhcurveto
            14 23 12 37 6 33 -118 18 return
          </CharString>
          <CharString index="325">
            rmoveto
            -38 -32 -32 -38 -39 32 -31 38 40 150 callsubr
            -40 hvcurveto
            endchar
          </CharString>
          <CharString index="326">
            hhcurveto
            -20 -20 2 3 -19 hvcurveto
            5 17 2 20 22 vvcurveto
            31 -9 56 -12 45 vhcurveto
            return
          </CharString>
          <CharString index="327">
            hlineto
            -81 callgsubr
            -4 return
          </CharString>
          <CharString index="328">
            2 48 6 -5 51 1 10 rlinecurve
            -198 hlineto
            -35 -9 -36 -29 1 hvcurveto
            46 -6 return
          </CharString>
          <CharString index="329">
            69 152 callsubr
            return
          </CharString>
          <CharString index="330">
            hlineto
            -21 26 -18 38 41 vvcurveto
            return
          </CharString>
          <CharString index="331">
            -30 -45 -8 -51 -50 return
          </CharString>
          <CharString index="332">
            -79 callsubr
            -318 180 callgsubr
            return
          </CharString>
          <CharString index="333">
            hhcurveto
            48 34 -20 -39 44 148 callgsubr
            return
          </CharString>
          <CharString index="334">
            -72 hlineto
            2 -15 -14 0 -17 hhcurveto
            return
          </CharString>
          <CharString index="335">
            104 -60 41 -125 55 return
          </CharString>
          <CharString index="336">
            -16 46 -57 20 return
          </CharString>
          <CharString index="337">
            rmoveto
            -9 -24 -26 -5 -26 hhcurveto
            -62 -35 31 62 29 9 25 16 18 hvcurveto
            return
          </CharString>
          <CharString index="338">
            -216 310 187 235 40 2 45 2 -3 55 1 10 rlinecurve
            return
          </CharString>
          <CharString index="339">
            rmoveto
            -10 -19 -20 -5 -20 hhcurveto
            -32 -43 14 48 27 11 19 18 14 hvcurveto
            return
          </CharString>
          <CharString index="340">
            1 -13 -13 1 -14 hhcurveto
            -137 -89 -73 -102 -116 104 -75 133 return
          </CharString>
          <CharString index="341">
            -70 -40 29 49 77 68 35 83 74 50 -24 -58 -70 -81 -38 -84 hvcurveto
            return
          </CharString>
          <CharString index="342">
            149 callgsubr
            -65 return
          </CharString>
          <CharString index="343">
            1 -10 -13 1 -16 hhcurveto
            -142 -84 -79 -95 -92 78 -97 147 return
          </CharString>
          <CharString index="344">
            -107 callgsubr
            130 139 callsubr
            return
          </CharString>
          <CharString index="345">
            vlineto
            -26 47 -20 49 vhcurveto
            235 vlineto
            126 -73 82 -173 -59 return
          </CharString>
          <CharString index="346">
            -103 callgsubr
            -634 -107 callgsubr
            return
          </CharString>
          <CharString index="347">
            71 callgsubr
            250 callsubr
            return
          </CharString>
          <CharString index="348">
            -62 33 3 21 3 27 21 -3 14 -3 29 -22 47 -8 19 return
          </CharString>
          <CharString index="349">
            -91 -66 211 callgsubr
            return
          </CharString>
          <CharString index="350">
            hhcurveto
            -58 -10 45 136 hvcurveto
            136 return
          </CharString>
          <CharString index="351">
            hlineto
            -4 -14 118 callgsubr
            return
          </CharString>
          <CharString index="352">
            vlineto
            -26 56 -20 49 vhcurveto
            return
          </CharString>
          <CharString index="353">
            540 vlineto
            endchar
          </CharString>
          <CharString index="354">
            126 -106 12 7 37 37 9 17 rlinecurve
            -163 121 return
          </CharString>
          <CharString index="355">
            171 callgsubr
            vhcurveto
            return
          </CharString>
          <CharString index="356">
            -77 callsubr
            endchar
          </CharString>
          <CharString index="357">
            -10 -17 -7 -28 return
          </CharString>
          <CharString index="358">
            62 -59 39 -62 -58 -29 -34 -45 -27 10 -25 14 -19 return
          </CharString>
          <CharString index="359">
            462 1101 -79 callsubr
            return
          </CharString>
          <CharString index="360">
            -42 callsubr
            70 vvcurveto
            return
          </CharString>
          <CharString index="361">
            -185 40 312 rmoveto
            -90 325 90 vlineto
            endchar
          </CharString>
          <CharString index="362">
            -68 -38 callgsubr
            rlinecurve
            return
          </CharString>
          <CharString index="363">
            5 55 rrcurveto
            12 16 1 18 hhcurveto
            return
          </CharString>
          <CharString index="364">
            -15 -58 -47 -19 229 callsubr
            return
          </CharString>
          <CharString index="365">
            1 hvcurveto
            73 -6 rlineto
            return
          </CharString>
          <CharString index="366">
            -236 hlineto
            -13 -6 -24 -34 -5 -19 rrcurveto
            18 -22 return
          </CharString>
          <CharString index="367">
            -4 -14 118 callgsubr
            -63 44 -51 64 -22 vhcurveto
            return
          </CharString>
          <CharString index="368">
            98 -44 73 -67 31 vhcurveto
            endchar
          </CharString>
          <CharString index="369">
            vlineto
            268 callsubr
            return
          </CharString>
          <CharString index="370">
            -23 rlineto
            -13 -1 -43 32 -4 vhcurveto
            43 -5 rlineto
            return
          </CharString>
          <CharString index="371">
            hlineto
            -37 -174 rlineto
            92 hlineto
            37 174 rlineto
            return
          </CharString>
          <CharString index="372">
            vlineto
            -26 71 -20 49 vhcurveto
            611 vlineto
            endchar
          </CharString>
          <CharString index="373">
            hhcurveto
            224 callsubr
            hvcurveto
            return
          </CharString>
          <CharString index="374">
            -1 33 -17 46 -21 26 rrcurveto
            return
          </CharString>
          <CharString index="375">
            -42 -7 -38 -32 hvcurveto
            return
          </CharString>
          <CharString index="376">
            rmoveto
            -106 -50 -24 return
          </CharString>
          <CharString index="377">
            -70 -190 hlineto
            -129 -41 -51 -54 -42 return
          </CharString>
          <CharString index="378">
            rmoveto
            189 -95 callgsubr
            return
          </CharString>
          <CharString index="379">
            340 210 callgsubr
            return
          </CharString>
          <CharString index="380">
            -77 callsubr
            -82 6 rlineto
            return
          </CharString>
          <CharString index="381">
            hhcurveto
            120 68 85 123 hvcurveto
            180 return
          </CharString>
        <CharString name=".notdef">
          166 160 hmoveto
          436 701 -436 hlineto
          81 -76 rmoveto
          275 -549 -275 hlineto
          endchar
        </CharString>
        <CharString name="A">
          70 239 281 -89 callgsubr
        </CharString>
        <CharString name="AE">
          314 315 358 rmoveto
          121 257 6 -1 rlineto
          -256 vlineto
          359 -279 rmoveto
          145 callgsubr
          -458 vlineto
          -299 -616 rlineto
          0 vlineto
          -39 5 callgsubr
          -79 6 104 220 rlineto
          158 -222 hlineto
          -29 -2 rlineto
          -49 -3 5 -54 -10 vvcurveto
          504 163 205 callgsubr
        </CharString>
        <CharString name="Aacute">
          70 503 842 -84 callgsubr
          -57 -451 -89 callgsubr
        </CharString>
        <CharString name="Abreve">
          70 466 906 62 callsubr
          -263 -605 -89 callgsubr
        </CharString>
        <CharString name="Acircumflex">
          70 336 809 -36 callgsubr
          43 -442 -89 callgsubr
        </CharString>
        <CharString name="Adieresis">
          70 426 754 0 callsubr
          3 -473 -89 callgsubr
        </CharString>
        <CharString name="Agrave">
          70 266 910 86 callgsubr
          -194 -492 -89 callgsubr
        </CharString>
        <CharString name="Amacron">
          70 483 828 268 callgsubr
          -244 -477 -89 callgsubr
        </CharString>
        <CharString name="Aogonek">
          70 239 281 rmoveto
          74 253 69 -253 rlineto
          193 -210 rmoveto
          -188 614 -40 3 -21 1 -40 -4 rlinecurve
          -192 -616 -37 5 callgsubr
          -81 6 rlineto
          0 vlineto
          42 143 rlineto
          180 hlineto
          40 -145 rlineto
          -1 50 callsubr
          178 hlineto
          -33 -25 -26 -35 -45 -33 callsubr
          38 17 26 32 19 hvcurveto
          38 8 -3 47 -1 9 rrcurveto
          endchar
        </CharString>
        <CharString name="Aring">
          70 339 860 135 callgsubr
          -98 -446 -89 callgsubr
        </CharString>
        <CharString name="Atilde">
          70 479 882 80 callgsubr
          -272 -592 -89 callgsubr
        </CharString>
        <CharString name="B">
          2 239 72 rmoveto
          250 33 vlineto
          108 1 62 -36 -92 vvcurveto
          -76 -47 -49 -108 1 vhcurveto
          -7 552 rmoveto
          71 5 59 -29 -92 vvcurveto
          -77 -39 -48 -111 vhcurveto
          -21 239 3 hlineto
          -162 64 rmoveto
          -37 -3 -54 -10 258 callsubr
          -545 vlineto
          -32 -4 -26 -3 -13 -17 -1 -46 rlinecurve
          270 hlineto
          170 88 80 129 92 -67 47 -88 12 hvcurveto
          84 29 41 60 76 vvcurveto
          76 -56 84 -177 vhcurveto
          endchar
        </CharString>
        <CharString name="C">
          12 370 700 rmoveto
          124 callgsubr
          44 callgsubr
          hvcurveto
          endchar
        </CharString>
        <CharString name="CR">
          -322 endchar
        </CharString>
        <CharString name="Cacute">
          12 370 700 rmoveto
          124 callgsubr
          44 callgsubr
          hvcurveto
          144 142 48 callgsubr
        </CharString>
        <CharString name="Ccaron">
          12 520 867 -67 callgsubr
          171 -606 rmoveto
          44 callgsubr
          124 callgsubr
          endchar
        </CharString>
        <CharString name="Ccedilla">
          12 289 -86 rmoveto
          7 callgsubr
          8 32 rlineto
          120 8 90 62 47 vvcurveto
          11 -6 15 -10 6 vhcurveto
          44 callgsubr
          -226 -109 -154 -211 -208 90 -130 183 -11 hvcurveto
          endchar
        </CharString>
        <CharString name="D">
          122 237 73 rmoveto
          541 38 callsubr
          -544 52 callsubr
        </CharString>
        <CharString name="Dcaron">
          122 497 867 -67 callgsubr
          -125 -668 rmoveto
          541 38 callsubr
          -544 52 callsubr
        </CharString>
        <CharString name="Dcroat">
          50 callgsubr
        </CharString>
        <CharString name="E">
          -67 callsubr
          endchar
        </CharString>
        <CharString name="Eacute">
          -67 callsubr
          250 474 48 callgsubr
        </CharString>
        <CharString name="Ecaron">
          -17 494 867 -67 callgsubr
          112 -662 63 callsubr
        </CharString>
        <CharString name="Ecircumflex">
          -17 321 809 -36 callgsubr
          290 -644 63 callsubr
        </CharString>
        <CharString name="Edieresis">
          -67 callsubr
          -17 386 -25 callsubr
          endchar
        </CharString>
        <CharString name="Edotaccent">
          -67 callsubr
          89 378 218 callgsubr
        </CharString>
        <CharString name="Egrave">
          -67 callsubr
          138 364 48 callsubr
        </CharString>
        <CharString name="Emacron">
          -67 callsubr
          -65 460 175 callgsubr
        </CharString>
        <CharString name="Eogonek">
          -17 543 253 callgsubr
          -233 153 callgsubr
          -438 vlineto
          -16 callsubr
          rlineto
          -49 -3 5 -54 -10 vvcurveto
          396 hlineto
          -36 -25 -28 -36 -47 -33 callsubr
          40 18 26 34 19 hvcurveto
          endchar
        </CharString>
        <CharString name="Eth">
          50 callgsubr
        </CharString>
        <CharString name="Euro">
          -47 377 206 rmoveto
          67 -176 vlineto
          -1 12 0 12 13 vvcurveto
          14 177 67 -171 vlineto
          100 17 48 62 68 hhcurveto
          59 33 -47 -68 hvcurveto
          54 35 29 48 67 -67 48 -100 -138 -95 -91 -148 -28 hvcurveto
          -60 -67 53 hlineto
          -1 -9 0 -8 -9 vvcurveto
          -8 0 -9 1 -8 vhcurveto
          -53 -67 60 hlineto
          -131 24 79 -91 136 hhcurveto
          93 89 42 61 16 -6 10 -8 5 hvcurveto
          -19 -26 -45 -35 -65 hhcurveto
          -81 -50 54 88 -21 hvcurveto
          endchar
        </CharString>
        <CharString name="F">
          -61 514 685 rmoveto
          -428 40 callsubr
          245 hlineto
          50 -4 55 10 -1 hvcurveto
          -92 6 rlineto
          235 vlineto
          180 -10 6 31 -1 41 -6 27 rlinecurve
          -179 -21 rlineto
          242 vlineto
          203 -7 9 -114 rlineto
          10 -1 54 -4 44 vvcurveto
          endchar
        </CharString>
        <CharString name="G">
          94 395 316 -14 callgsubr
        </CharString>
        <CharString name="Gbreve">
          94 491 906 62 callsubr
          -132 -570 -14 callgsubr
        </CharString>
        <CharString name="H">
          176 653 71 rmoveto
          545 vlineto
          -48 callgsubr
          -225 90 callgsubr
          -242 -290 244 vlineto
          -48 callgsubr
          -225 hlineto
          -50 4 -55 -10 1 hvcurveto
          72 -6 rlineto
          -545 212 callgsubr
          234 290 -236 164 callgsubr
          endchar
        </CharString>
        <CharString name="I">
          -239 239 71 42 callgsubr
        </CharString>
        <CharString name="Iacute">
          -239 342 842 -84 callgsubr
          132 -114 rmoveto
          49 3 -6 54 1 10 rrcurveto
          -40 callsubr
          -71 6 rlineto
          -1 545 hlineto
          endchar
        </CharString>
        <CharString name="Icircumflex">
          -239 267 618 rmoveto
          49 3 -6 54 1 10 rrcurveto
          -40 callsubr
          -71 6 rlineto
          -1 545 hlineto
          -23 271 94 callgsubr
        </CharString>
        <CharString name="Idieresis">
          -239 145 824 rmoveto
          38 -31 32 -39 -39 -32 -32 -38 -39 32 -31 39 39 31 31 39 vhcurveto
          122 -206 rmoveto
          49 3 -6 54 1 10 rrcurveto
          -40 callsubr
          -71 6 rlineto
          -1 545 hlineto
          27 278 218 callsubr
        </CharString>
        <CharString name="Idotaccent">
          -239 181 746 28 callsubr
          58 -675 42 callgsubr
        </CharString>
        <CharString name="Igrave">
          -239 105 910 86 callgsubr
          -33 -702 42 callgsubr
        </CharString>
        <CharString name="Imacron">
          -239 267 618 rmoveto
          49 3 -6 54 1 10 rrcurveto
          -40 callsubr
          -71 6 rlineto
          -1 545 hlineto
          -211 212 175 callgsubr
        </CharString>
        <CharString name="Iogonek">
          -239 239 71 rmoveto
          -1 545 hlineto
          -48 callgsubr
          -2 callgsubr
          71 -6 rlineto
          1 -545 50 callsubr
          162 hlineto
          -33 -24 -24 -35 -44 -33 callsubr
          36 15 25 29 19 hvcurveto
          49 1 -4 54 -1 10 rrcurveto
          endchar
        </CharString>
        <CharString name="J">
          -180 165 685 16 callgsubr
          73 -6 rlineto
          1 -482 hlineto
          -91 -14 -20 -22 -36 -14 32 47 vhcurveto
          -64 -21 -37 -43 -43 40 -40 66 118 72 86 116 hvcurveto
          477 67 callgsubr
        </CharString>
        <CharString name="K">
          51 423 685 16 callgsubr
          65 -4 -205 -268 rlineto
          268 vlineto
          -48 callgsubr
          -225 40 callsubr
          235 273 callsubr
          171 vlineto
          30 37 194 -279 rlineto
          121 hlineto
          42 11 52 13 -8 hvcurveto
          -63 6 231 callsubr
          endchar
        </CharString>
        <CharString name="L">
          -31 454 78 -8 callgsubr
        </CharString>
        <CharString name="Lacute">
          -31 394 842 -84 callgsubr
          267 -654 -8 callgsubr
        </CharString>
        <CharString name="Lcaron">
          10 434 529 rmoveto
          53 50 29 85 -3 79 -12 34 -100 7 -18 -23 15 -48 5 -104 -22 -54 rrcurveto
          -8 45 -23 8 5 vhcurveto
          20 -451 -8 callgsubr
        </CharString>
        <CharString name="Lslash">
          -31 454 78 rmoveto
          -216 -7 rlineto
          244 vlineto
          144 113 -45 55 -99 -77 rlineto
          210 2 vlineto
          49 2 49 2 -6 55 1 10 rlinecurve
          -245 61 callgsubr
          70 -6 rlineto
          -306 vlineto
          -100 -78 46 -55 54 42 rlineto
          -148 14 callsubr
          494 177 205 callgsubr
        </CharString>
        <CharString name="M">
          300 806 71 rmoveto
          -41 543 70 6 rlineto
          10 1 4 55 -50 hhcurveto
          -183 hlineto
          -154 -398 -176 398 rlineto
          -171 61 callgsubr
          69 -6 -36 -545 -40 -82 callgsubr
          204 192 callsubr
          29 464 193 -432 20 -4 24 3 20 6 rlinecurve
          179 446 36 -485 -28 -82 callgsubr
          227 249 callsubr
        </CharString>
        <CharString name="N">
          104 503 685 -59 callsubr
        </CharString>
        <CharString name="NULL">
          -590 endchar
        </CharString>
        <CharString name="Nacute">
          104 520 842 -84 callgsubr
          190 -47 -59 callsubr
        </CharString>
        <CharString name="Ncaron">
          104 526 867 -67 callgsubr
          112 -56 -59 callsubr
        </CharString>
        <CharString name="Ntilde">
          104 496 882 80 callgsubr
          -25 -188 -59 callsubr
        </CharString>
        <CharString name="O">
          99 360 700 -60 callsubr
          endchar
        </CharString>
        <CharString name="OE">
          334 894 253 callgsubr
          145 callgsubr
          -407 vlineto
          10 -31 -36 5 -40 hhcurveto
          -221 -104 -156 -209 -210 113 -140 179 41 36 5 10 33 hvcurveto
          -272 347 rmoveto
          163 43 111 136 54 38 -14 -25 27 vhcurveto
          -470 vlineto
          -28 -31 -40 -16 -55 -1 rrcurveto
          -146 2 -29 104 177 vvcurveto
          endchar
        </CharString>
        <CharString name="Oacute">
          99 360 700 -60 callsubr
          175 222 48 callgsubr
        </CharString>
        <CharString name="Ocircumflex">
          99 352 809 -36 callgsubr
          128 -658 rmoveto
          -115 2 -60 97 183 vvcurveto
          183 callsubr
          118 62 -97 -185 -177 -63 -94 -121 -2 vhcurveto
          20 635 rmoveto
          -204 -121 -136 -229 -220 108 -130 184 206 121 136 229 220 -109 130 -185 hvcurveto
          endchar
        </CharString>
        <CharString name="Odieresis">
          99 360 700 -60 callsubr
          -92 134 -25 callsubr
          endchar
        </CharString>
        <CharString name="Ograve">
          99 344 620 rmoveto
          118 62 -97 -185 -177 -63 -94 -121 -2 hvcurveto
          -115 2 -60 97 183 vvcurveto
          183 callsubr
          vhcurveto
          16 80 rmoveto
          -204 -121 -136 -229 -220 108 -130 184 206 121 136 229 220 -109 130 -185 hvcurveto
          47 32 48 callsubr
        </CharString>
        <CharString name="Ohungarumlaut">
          99 653 811 20 callgsubr
          93 -1 -60 callsubr
          endchar
        </CharString>
        <CharString name="Omacron">
          99 360 700 -60 callsubr
          -140 208 175 callgsubr
        </CharString>
        <CharString name="Oslash">
          110 491 526 rmoveto
          22 -47 11 -62 -79 vvcurveto
          -177 -63 -94 -121 -2 vhcurveto
          -38 1 -33 11 -26 22 rrcurveto
          -50 72 rmoveto
          -19 44 -9 59 73 vvcurveto
          183 callsubr
          37 31 -9 -19 26 vhcurveto
          139 82 rmoveto
          -71 36 -20 -35 rlineto
          17 -37 -42 8 -47 hhcurveto
          -204 -121 -136 -229 -122 33 -94 61 -59 hvcurveto
          -24 -41 70 -38 19 32 rlineto
          -18 38 45 -10 50 hhcurveto
          206 121 136 229 126 -36 97 -65 59 hvcurveto
          endchar
        </CharString>
        <CharString name="Otilde">
          99 360 700 -60 callsubr
          -128 130 33 callgsubr
        </CharString>
        <CharString name="P">
          1 304 624 rmoveto
          86 3 51 -52 -92 vvcurveto
          -104 -64 -62 -107 vhcurveto
          -32 305 hlineto
          45 -367 rmoveto
          182 106 87 148 123 -95 72 -163 hvcurveto
          -234 hlineto
          -28 -12 -33 -30 258 callsubr
          -547 14 callsubr
          238 -77 callsubr
          -85 6 rlineto
          184 vlineto
          endchar
        </CharString>
        <CharString name="Q">
          99 165 347 rmoveto
          183 callsubr
          118 62 -97 -185 -177 -63 -94 -121 -2 vhcurveto
          -115 2 -60 97 183 vvcurveto
          427 -401 rmoveto
          -36 -81 18 27 -77 hvcurveto
          163 28 93 130 201 vvcurveto
          220 -109 130 -185 -204 -121 -136 -229 -187 78 -122 137 -33 vhcurveto
          -48 83 146 -86 83 hhcurveto
          51 38 31 36 21 -3 9 -5 6 hvcurveto
          -11 -17 -24 -5 -10 hhcurveto
          endchar
        </CharString>
        <CharString name="R">
          39 238 622 -58 callsubr
        </CharString>
        <CharString name="Racute">
          39 468 842 -84 callgsubr
          -23 -110 -58 callsubr
        </CharString>
        <CharString name="Rcaron">
          39 474 867 -67 callgsubr
          -101 -119 -58 callsubr
        </CharString>
        <CharString name="S">
          55 callsubr
          endchar
        </CharString>
        <CharString name="Sacute">
          55 callsubr
          159 142 48 callgsubr
        </CharString>
        <CharString name="Scaron">
          -57 456 867 -67 callgsubr
          -2 -329 rmoveto
          17 callsubr
          102 164 99 94 133 228 callsubr
          hvcurveto
          endchar
        </CharString>
        <CharString name="T">
          46 20 685 -15 callsubr
        </CharString>
        <CharString name="Tcaron">
          46 497 867 -67 callgsubr
          -342 -56 -15 callsubr
        </CharString>
        <CharString name="Thorn">
          -3 287 499 rmoveto
          91 53 -53 -89 -95 -66 -56 -112 hvcurveto
          -15 293 hlineto
          35 -355 rmoveto
          180 106 80 136 127 -98 75 -167 hvcurveto
          -56 54 52 callgsubr
          -71 6 rlineto
          -1 73 hlineto
          endchar
        </CharString>
        <CharString name="U">
          79 479 685 62 callgsubr
        </CharString>
        <CharString name="Uacute">
          79 479 685 -78 callsubr
          -152 157 48 callgsubr
        </CharString>
        <CharString name="Ucircumflex">
          79 340 809 -36 callgsubr
          279 -38 62 callgsubr
        </CharString>
        <CharString name="Udieresis">
          79 479 685 -78 callsubr
          -419 69 -25 callsubr
          endchar
        </CharString>
        <CharString name="Ugrave">
          79 479 685 -78 callsubr
          -264 47 48 callsubr
        </CharString>
        <CharString name="Uhungarumlaut">
          79 641 811 20 callgsubr
          224 -16 62 callgsubr
        </CharString>
        <CharString name="Umacron">
          79 479 685 -78 callsubr
          -467 143 175 callgsubr
        </CharString>
        <CharString name="Uogonek">
          79 479 685 58 callsubr
          1 -351 rlineto
          -142 -60 -56 -98 -107 -33 68 142 vhcurveto
          341 vlineto
          -48 callgsubr
          -225 90 callgsubr
          -323 vlineto
          -236 100 -70 147 vhcurveto
          3 hlineto
          -33 -24 -24 -35 -44 -33 callsubr
          42 20 27 40 20 hvcurveto
          114 28 59 93 175 vvcurveto
          89 callgsubr
          endchar
        </CharString>
        <CharString name="Uring">
          79 479 685 -78 callsubr
          -314 224 58 callgsubr
        </CharString>
        <CharString name="V">
          56 456 685 rmoveto
          -49 3 -20 callgsubr
          79 -6 -150 -461 -138 463 30 2 48 3 -5 54 1 10 rlinecurve
          -230 61 callgsubr
          64 -6 200 -614 rlineto
          101 hlineto
          211 616 24 2 49 4 -6 53 1 10 rlinecurve
          endchar
        </CharString>
        <CharString name="W">
          381 799 685 16 callgsubr
          70 -6 -136 -469 -136 471 rlineto
          -83 hlineto
          -152 -471 -120 471 28 2 48 4 -5 53 1 10 rlinecurve
          -224 hlineto
          -49 -50 callsubr
          58 -6 182 -614 rlineto
          110 hlineto
          134 400 129 -400 rlineto
          106 hlineto
          192 616 18 2 49 5 -10 52 1 10 rlinecurve
          endchar
        </CharString>
        <CharString name="X">
          99 602 71 rmoveto
          -192 282 188 263 36 2 49 3 -6 54 1 10 rlinecurve
          -219 61 callgsubr
          82 -6 -129 -197 -135 199 rlineto
          1 hlineto
          32 2 48 3 -5 54 1 10 rlinecurve
          -253 hlineto
          127 callsubr
          195 -288 -179 -257 rlineto
          0 vlineto
          -36 -82 callgsubr
          220 -77 callsubr
          -83 6 rlineto
          -1 hlineto
          121 191 132 -193 rlineto
          -2 hlineto
          -32 -2 -48 -3 5 -54 -1 -10 rlinecurve
          256 hlineto
          51 -5 55 10 -1 hvcurveto
          endchar
        </CharString>
        <CharString name="Y">
          45 444 685 -20 callsubr
        </CharString>
        <CharString name="Yacute">
          45 501 842 -84 callgsubr
          150 -47 -20 callsubr
        </CharString>
        <CharString name="Ydieresis">
          45 424 754 0 callsubr
          210 -69 -20 callsubr
        </CharString>
        <CharString name="Z">
          0 469 87 -13 callgsubr
        </CharString>
        <CharString name="Zacute">
          0 476 842 -84 callgsubr
          200 -645 -13 callgsubr
        </CharString>
        <CharString name="Zcaron">
          0 482 867 -67 callgsubr
          122 -654 -13 callgsubr
        </CharString>
        <CharString name="Zdotaccent">
          0 315 746 28 callsubr
          154 -659 -13 callgsubr
        </CharString>
        <CharString name="a">
          -69 324 95 -93 callsubr
        </CharString>
        <CharString name="aacute">
          -69 415 662 -84 callgsubr
          116 -457 -93 callsubr
        </CharString>
        <CharString name="abreve">
          -69 378 726 62 callsubr
          -90 -611 -93 callsubr
        </CharString>
        <CharString name="acircumflex">
          -69 248 629 -36 callgsubr
          216 -448 -93 callsubr
        </CharString>
        <CharString name="acute">
          10 407 662 48 callgsubr
        </CharString>
        <CharString name="adieresis">
          -69 338 574 0 callsubr
          176 -479 -93 callsubr
        </CharString>
        <CharString name="ae">
          196 456 314 rmoveto
          82 11 31 44 57 hhcurveto
          47 33 -29 -97 3 hvcurveto
          -314 -219 rmoveto
          -19 -28 -33 -10 -31 hhcurveto
          -51 -24 25 41 54 43 21 49 22 28 -4 -9 25 hvcurveto
          75 vmoveto
          4 -26 -28 2 -27 hhcurveto
          -158 -55 -70 -81 -87 64 -52 93 69 65 28 50 50 hvcurveto
          -53 40 63 -25 77 hhcurveto
          119 75 60 40 14 -9 22 -11 8 hvcurveto
          -33 -41 -41 -22 -61 hhcurveto
          -102 -29 59 101 hvcurveto
          11 304 57 vlineto
          118 2 -53 100 -140 hhcurveto
          -61 -58 -19 -41 -42 hvcurveto
          45 -39 -61 15 -62 hhcurveto
          -108 -72 -47 -63 -46 40 -22 53 5 hvcurveto
          53 29 40 56 53 32 -35 -92 vhcurveto
          endchar
        </CharString>
        <CharString name="agrave">
          -69 178 730 86 callgsubr
          -21 -498 -93 callsubr
        </CharString>
        <CharString name="amacron">
          -69 395 648 268 callgsubr
          -71 -483 -93 callsubr
        </CharString>
        <CharString name="ampersand">
          154 283 66 rmoveto
          -82 -51 43 68 39 17 43 33 32 hvcurveto
          8 -9 8 -9 9 -10 55 -61 57 -58 58 -47 rrcurveto
          -22 -35 -39 -9 -38 hhcurveto
          -13 549 rmoveto
          31 34 -22 -63 -53 -23 -55 -51 -31 hvcurveto
          -46 62 -18 43 36 vvcurveto
          51 36 32 37 vhcurveto
          352 -345 rmoveto
          44 3 -7 52 1 10 rrcurveto
          -172 hlineto
          -47 4 -54 -10 1 hvcurveto
          66 -5 -11 -38 -14 -31 -17 -26 rlinecurve
          -54 44 -59 58 -55 66 -6 7 rcurveline
          75 27 70 63 94 vvcurveto
          91 -67 54 -101 -121 -67 -78 -88 -49 21 -49 52 -69 vhcurveto
          -93 -51 -30 -71 -64 vvcurveto
          -98 72 -76 146 77 70 21 46 58 vhcurveto
          -41 61 59 -25 53 hhcurveto
          73 27 49 39 17 -5 15 -9 8 hvcurveto
          -17 -11 -36 -11 -25 hhcurveto
          -30 -41 16 29 -45 hvcurveto
          25 39 20 46 15 55 rrcurveto
          endchar
        </CharString>
        <CharString name="aogonek">
          -69 324 95 rmoveto
          -18 -27 -30 -11 -38 hhcurveto
          -47 -25 25 41 54 44 21 46 26 26 -4 -9 25 hvcurveto
          122 -141 rmoveto
          267 vlineto
          142 -81 58 -125 -107 -72 -47 -63 -47 42 -21 51 5 vhcurveto
          61 40 32 39 59 32 -31 -96 vhcurveto
          -44 vlineto
          4 -26 -28 2 -28 hhcurveto
          -157 -55 -70 -81 -87 65 -52 91 58 48 19 33 40 hvcurveto
          11 -25 21 -19 38 -6 rrcurveto
          -27 -24 -19 -31 -39 -33 callsubr
          33 12 23 24 18 hvcurveto
          33 10 9 24 21 vvcurveto
          endchar
        </CharString>
        <CharString name="apostrophemod">
          -334 128 692 rmoveto
          155 callgsubr
        </CharString>
        <CharString name="approxequal">
          10 139 351 80 callsubr
          39 -191 80 callsubr
          endchar
        </CharString>
        <CharString name="aring">
          -69 251 680 135 callgsubr
          75 -452 -93 callsubr
        </CharString>
        <CharString name="asciicircum">
          -72 458 204 rmoveto
          -165 449 rlineto
          -58 hlineto
          -175 -449 rlineto
          106 hlineto
          95 250 91 -250 rlineto
          endchar
        </CharString>
        <CharString name="asciitilde">
          10 139 230 80 callsubr
          endchar
        </CharString>
        <CharString name="asterisk">
          -118 262 572 rmoveto
          31 155 -26 9 -66 4 -25 -12 rlinecurve
          35 -157 -139 77 rlineto
          -19 -21 -13 -63 -31 vvcurveto
          160 -8 -117 -103 14 -25 54 -36 29 -7 rlinecurve
          56 139 57 -141 30 7 52 37 16 25 rlinecurve
          -119 104 160 8 rlineto
          28 -15 63 -17 23 vhcurveto
          endchar
        </CharString>
        <CharString name="at">
          450 573 173 rmoveto
          -25 -32 -25 -13 -32 hhcurveto
          -64 -23 50 88 13 hvcurveto
          60 9 27 87 79 hhcurveto
          33 27 -15 -17 18 hvcurveto
          12 85 rmoveto
          -1 vlineto
          14 -29 -30 7 -37 hhcurveto
          -144 -73 -106 -133 -15 hvcurveto
          -155 -17 80 -46 88 hhcurveto
          55 38 18 27 35 hvcurveto
          -34 5 29 -11 55 hhcurveto
          180 120 124 185 193 -163 129 -244 -278 -185 -174 -262 -248 182 -166 274 100 80 24 36 67 hvcurveto
          -12 63 rlineto
          -40 -61 -89 -13 -71 hhcurveto
          -235 -157 138 206 220 154 146 232 199 133 -107 -161 -133 -78 -89 -116 hvcurveto
          50 356 rlineto
          endchar
        </CharString>
        <CharString name="atilde">
          -69 391 702 80 callgsubr
          -99 -598 -93 callsubr
        </CharString>
        <CharString name="b">
          120 callgsubr
          609 vmoveto
          -198 -42 callgsubr
          -587 vlineto
          122 -38 rlineto
          0 vlineto
          -11 26 29 -6 40 hhcurveto
          170 80 127 164 -2 hvcurveto
          184 -3 -104 60 -96 hhcurveto
          -62 -42 -21 -30 -36 hvcurveto
          endchar
        </CharString>
        <CharString name="backslash">
          -215 355 -90 rmoveto
          -236 787 rlineto
          -99 hlineto
          236 -787 rlineto
          endchar
        </CharString>
        <CharString name="bar">
          100 -193 rmoveto
          96 927 -96 hlineto
          endchar
        </CharString>
        <CharString name="braceleft">
          -220 255 734 rmoveto
          -92 -62 -53 -79 hvcurveto
          -67 16 -69 -75 vvcurveto
          -25 -9 -28 -14 -16 vhcurveto
          -7 -9 -18 -11 -19 -8 rrcurveto
          -38 vlineto
          19 -8 18 -11 7 -9 rrcurveto
          14 -16 9 -27 -23 -81 -16 -68 -65 vvcurveto
          -79 58 -53 87 37 42 5 8 25 vhcurveto
          -2 55 rlineto
          -1 -7 -12 -1 -11 hhcurveto
          -70 -46 28 43 hvcurveto
          50 17 83 61 vvcurveto
          63 -22 49 -32 11 vhcurveto
          10 vlineto
          32 11 22 49 63 91 -17 53 50 vvcurveto
          43 46 28 70 11 12 -1 -1 7 vhcurveto
          2 55 rlineto
          8 -13 -38 5 -44 hhcurveto
          endchar
        </CharString>
        <CharString name="braceright">
          -220 22 666 rmoveto
          1 7 12 1 11 hhcurveto
          70 46 -28 -43 hvcurveto
          -50 -17 -53 -91 vvcurveto
          -63 22 -49 32 -11 vhcurveto
          -10 vlineto
          -32 -11 -22 -49 -63 -61 17 -83 -50 vvcurveto
          -43 -46 -28 -70 -11 -12 1 1 -7 vhcurveto
          -2 -55 rlineto
          -8 25 42 -5 37 hhcurveto
          87 58 53 79 hvcurveto
          65 -16 68 81 vvcurveto
          23 9 27 14 16 vhcurveto
          7 9 18 11 19 8 rrcurveto
          38 vlineto
          -19 8 -18 11 -7 9 rrcurveto
          -14 16 -9 28 25 75 16 69 67 vvcurveto
          79 -62 53 -92 -44 -38 -5 -8 -13 vhcurveto
          endchar
        </CharString>
        <CharString name="bracketleft">
          -307 176 669 rmoveto
          77 65 -173 -889 173 65 -77 hlineto
          endchar
        </CharString>
        <CharString name="bracketright">
          -307 107 -90 rmoveto
          -77 -65 173 889 -173 -65 77 hlineto
          endchar
        </CharString>
        <CharString name="breve">
          10 287 644 rmoveto
          -80 -38 54 28 -12 hvcurveto
          -36 -20 rlineto
          -72 9 51 -75 105 hhcurveto
          104 52 75 72 9 hvcurveto
          -36 20 rlineto
          -28 -12 -27 -54 -89 hhcurveto
          endchar
        </CharString>
        <CharString name="brokenbar">
          196 182 rmoveto
          -96 -375 96 hlineto
          -96 552 rmoveto
          96 375 -96 hlineto
          endchar
        </CharString>
        <CharString name="bullet">
          -104 243 248 rmoveto
          70 53 53 70 68 -53 55 -70 -68 -55 -55 -68 -70 55 -53 68 hvcurveto
          endchar
        </CharString>
        <CharString name="c">
          -118 284 520 rmoveto
          142 callsubr
          hvcurveto
          47 callsubr
          vhcurveto
          endchar
        </CharString>
        <CharString name="cacute">
          -118 440 662 -84 callgsubr
          51 -32 rmoveto
          142 callsubr
          hvcurveto
          47 callsubr
          vhcurveto
          endchar
        </CharString>
        <CharString name="caron">
          10 269 639 rmoveto
          -140 86 -17 -10 -8 -9 -10 -19 rlinecurve
          139 -126 32 -7 12 -1 32 8 rlinecurve
          135 126 -9 14 -12 15 -16 9 rlinecurve
          endchar
        </CharString>
        <CharString name="ccaron">
          -118 446 687 -67 callgsubr
          122 -432 rmoveto
          47 callsubr
          142 callsubr
          vhcurveto
          endchar
        </CharString>
        <CharString name="ccedilla">
          -118 208 -86 rmoveto
          7 callgsubr
          8 32 rlineto
          99 6 75 56 37 vvcurveto
          11 -8 24 -14 9 vhcurveto
          47 callsubr
          -149 -100 -106 -173 -145 71 -94 121 -15 vhcurveto
          endchar
        </CharString>
        <CharString name="cedilla">
          10 319 18 rmoveto
          -54 hlineto
          -27 -104 rlineto
          7 callgsubr
          endchar
        </CharString>
        <CharString name="cent">
          -68 334 610 rmoveto
          -19 10 -54 1 -17 -11 8 -93 rcurveline
          -128 -18 -74 -99 -170 vvcurveto
          -135 75 -101 128 -9 vhcurveto
          273 callgsubr
          104 rlineto
          85 14 63 44 37 vvcurveto
          7 -8 25 -14 9 vhcurveto
          -31 -35 -42 -19 -56 hhcurveto
          -108 -32 82 114 99 38 69 70 65 24 -58 -49 1 hvcurveto
          33 -4 54 17 64 vvcurveto
          63 -54 40 -83 8 vhcurveto
          endchar
        </CharString>
        <CharString name="circumflex">
          10 309 707 94 callgsubr
        </CharString>
        <CharString name="colon">
          -324 133 -16 rmoveto
          177 callsubr
          333 vmoveto
          177 callsubr
          endchar
        </CharString>
        <CharString name="comma">
          -334 128 141 rmoveto
          155 callgsubr
        </CharString>
        <CharString name="copyright">
          126 359 620 rmoveto
          -193 -116 -132 -179 -189 122 -118 187 185 122 123 185 190 -128 120 -179 hvcurveto
          -80 vmoveto
          129 90 -85 -145 -141 -85 -87 -134 -136 -84 87 140 139 81 92 139 hvcurveto
          115 -138 rmoveto
          40 -39 26 -59 -89 -57 -58 -109 -83 52 -60 80 65 52 32 25 5 -4 21 -9 6 vhcurveto
          -18 -20 -24 -12 -32 hhcurveto
          -59 -18 45 63 52 22 34 35 38 15 -30 -22 hvcurveto
          19 -3 32 10 36 vvcurveto
          endchar
        </CharString>
        <CharString name="currency">
          12 491 285 rmoveto
          45 -11 39 -20 31 vhcurveto
          97 79 -15 19 -39 40 -17 9 rlinecurve
          -81 -95 rlineto
          18 -29 -37 9 -40 hhcurveto
          -39 -35 -9 -16 -30 hvcurveto
          -79 93 -17 -9 -39 -40 -15 -19 rlinecurve
          95 -76 rlineto
          -23 -32 -12 -40 -46 vvcurveto
          -46 12 -41 23 -30 vhcurveto
          -95 -77 15 -19 39 -40 17 -10 rlinecurve
          81 95 rlineto
          -16 29 35 -8 39 hhcurveto
          39 36 8 18 29 hvcurveto
          82 -97 17 10 39 40 15 19 rlinecurve
          -97 79 rlineto
          20 31 11 39 45 vvcurveto
          -193 -102 rmoveto
          -60 -39 42 60 62 39 41 60 58 42 -41 -62 -60 -42 -42 -58 hvcurveto
          endchar
        </CharString>
        <CharString name="d">
          -13 75 callsubr
          122 -345 rmoveto
          661 37 callsubr
          -124 65 callgsubr
          endchar
        </CharString>
        <CharString name="dagger">
          -90 296 538 rmoveto
          196 callsubr
          11 -635 20 -5 28 0 20 5 rlinecurve
          11 636 141 256 callgsubr
          endchar
        </CharString>
        <CharString name="daggerdbl">
          -90 292 338 rmoveto
          3 135 141 256 callgsubr
          -125 -13 196 callsubr
          2 -134 -143 13 -10 -22 10 -47 15 -22 rlinecurve
          129 13 8 -436 20 -5 27 0 20 5 rlinecurve
          8 436 145 256 callgsubr
          endchar
        </CharString>
        <CharString name="danda">
          -254 218 -20 rmoveto
          186 callgsubr
          endchar
        </CharString>
        <CharString name="dcaron">
          111 75 callsubr
          122 316 rmoveto
          -198 -42 callgsubr
          -124 65 callgsubr
          -67 6 rlineto
          171 691 rmoveto
          162 callgsubr
          45 52 29 76 -3 79 rrcurveto
          endchar
        </CharString>
        <CharString name="dcroat">
          0 75 callsubr
          202 140 rmoveto
          60 -80 116 37 callsubr
          -28 -72 -60 72 -36 65 callgsubr
          -67 6 rlineto
          485 vlineto
          endchar
        </CharString>
        <CharString name="degree">
          -200 60 579 rmoveto
          -77 56 -53 79 78 57 54 77 78 -56 51 -78 -78 -58 -52 -78 vhcurveto
          78 1 rmoveto
          34 22 24 35 34 23 -24 -35 -34 -22 -26 -35 -34 -23 26 35 vhcurveto
          endchar
        </CharString>
        <CharString name="dieresis">
          10 160 144 callgsubr
          endchar
        </CharString>
        <CharString name="divide">
          -82 50 308 262 callgsubr
          -202 -295 96 callsubr
          352 vmoveto
          222 callgsubr
        </CharString>
        <CharString name="dollar">
          -88 286 728 rmoveto
          -19 10 -54 1 -17 -11 10 -108 rcurveline
          -79 -21 -63 -57 -101 vvcurveto
          -99 84 -35 85 -37 vhcurveto
          59 -25 65 -33 -75 vvcurveto
          -54 -42 -24 -65 -76 -35 32 88 vhcurveto
          -67 -27 -34 -45 -73 82 -34 78 -7 hvcurveto
          273 callgsubr
          103 rlineto
          111 16 70 78 108 vvcurveto
          92 -52 35 -109 50 vhcurveto
          -85 37 -49 20 58 vvcurveto
          44 33 33 54 71 30 -37 -75 vhcurveto
          50 -8 33 33 45 vvcurveto
          88 -92 24 -64 vhcurveto
          endchar
        </CharString>
        <CharString name="dotaccent">
          -270 161 566 218 callgsubr
        </CharString>
        <CharString name="dotlessi">
          134 callsubr
          endchar
        </CharString>
        <CharString name="dottedcircle">
          70 139 517 rmoveto
          -26 18 -19 26 26 18 19 26 25 -18 19 -26 -26 -18 -19 -25 vhcurveto
          -82 -110 rmoveto
          -25 20 -19 26 24 20 19 25 25 -20 19 -24 -26 -20 -19 -25 vhcurveto
          -13 -126 rmoveto
          -25 19 -18 25 26 18 18 274 callgsubr
          52 -116 rmoveto
          -26 18 -18 26 25 19 18 26 25 -19 19 -25 -26 -18 -19 -25 vhcurveto
          101 -75 rmoveto
          -26 19 -20 26 25 19 20 26 24 -19 20 -25 -26 -19 -20 -24 vhcurveto
          127 -16 rmoveto
          -26 18 -18 26 26 19 18 26 26 -19 18 -26 -26 -18 -18 -26 vhcurveto
          121 53 rmoveto
          -26 19 -18 25 25 20 18 26 25 -20 19 -25 -25 -19 -19 -25 vhcurveto
          73 98 rmoveto
          -25 19 -19 26 24 19 19 25 26 -19 19 -24 -26 -19 -19 -26 vhcurveto
          10 134 rmoveto
          -26 18 -18 26 25 19 18 26 26 -19 18 -25 -26 -18 -18 -26 vhcurveto
          -50 118 rmoveto
          -25 19 -19 25 26 18 19 274 callgsubr
          -95 68 rmoveto
          -24 19 -20 26 25 18 20 24 26 -18 19 -25 -26 -19 -19 -26 vhcurveto
          -126 15 rmoveto
          -26 18 -18 26 26 18 18 26 26 -18 18 -26 -26 -18 -18 -26 vhcurveto
          endchar
        </CharString>
        <CharString name="doubledanda">
          -27 218 -20 rmoveto
          186 callgsubr
          238 hmoveto
          186 callgsubr
          endchar
        </CharString>
        <CharString name="dvA">
          180 818 -79 callsubr
          -327 -70 callgsubr
          vlineto
          endchar
        </CharString>
        <CharString name="dvAA">
          252 callsubr
          -610 -75 callsubr
        </CharString>
        <CharString name="dvAI">
          7 209 520 rmoveto
          179 -186 hlineto
          -41 -32 -15 -33 -10 vhcurveto
          7 -28 31 -56 19 -14 rrcurveto
          76 26 53 55 95 vvcurveto
          174 -51 callgsubr
          -133 hlineto
          96 -37 -104 179 -152 15 callsubr
          75 23 61 hhcurveto
          89 56 -102 -69 30 hvcurveto
          -435 21 callgsubr
        </CharString>
        <CharString name="dvAU">
          252 callsubr
          -153 hlineto
          119 -35 -86 181 -134 hhcurveto
          -29 callgsubr
          41 43 -30 -34 32 hvcurveto
          -361 -75 callsubr
        </CharString>
        <CharString name="dvAbbreviationsign">
          -193 197 495 rmoveto
          -78 -49 -56 -78 -102 80 -63 80 69 56 46 86 93 -67 74 -91 hvcurveto
          14 -78 rmoveto
          38 28 -27 -48 -37 -16 -31 -43 -42 -29 31 44 44 28 24 36 hvcurveto
          endchar
        </CharString>
        <CharString name="dvAnusvara">
          -590 -155 686 -10 callgsubr
          endchar
        </CharString>
        <CharString name="dvAnusvara.amI">
          -590 -24 899 rmoveto
          -14 -52 -43 -16 -15 42 -51 17 16 50 46 10 17 -45 52 -14 hvcurveto
          endchar
        </CharString>
        <CharString name="dvAvagraha">
          -56 283 472 rmoveto
          38 41 2 38 vhcurveto
          155 hlineto
          -1 39 -19 45 -19 22 rrcurveto
          -169 hlineto
          -66 -74 -30 -81 -78 67 -68 62 -54 hvcurveto
          65 -57 62 -39 -53 vvcurveto
          -34 -27 -23 -56 -119 -61 100 51 -40 vhcurveto
          -21 -2 -36 -25 -9 -12 rrcurveto
          -132 82 125 -86 121 hhcurveto
          78 74 35 92 110 -105 84 -62 48 hvcurveto
          -53 41 -33 31 36 vvcurveto
          endchar
        </CharString>
        <CharString name="dvB">
          -218 90 callsubr
          429 -95 callgsubr
          -77 -434 -4 callsubr
          257 -4 rmoveto
          -10 -35 -25 -37 -32 -30 -134 139 rcurveline
          -68 callsubr
          108 82 80 66 33 hvcurveto
          endchar
        </CharString>
        <CharString name="dvBA">
          -12 303 191 -55 callgsubr
          256 -11 callgsubr
          -636 -107 callgsubr
          380 -90 hlineto
          24 -34 -46 19 -55 hhcurveto
          102 callsubr
          40 callgsubr
          hvcurveto
          -89 -106 callsubr
        </CharString>
        <CharString name="dvBH">
          -78 218 634 rmoveto
          -80 -74 -40 -82 -95 99 -56 74 -18 hvcurveto
          112 callgsubr
          58 2 90 -5 61 -6 -6 98 rcurveline
          -36 2 -130 8 -42 -3 rrcurveto
          138 vlineto
          158 -99 39 -79 vhcurveto
          319 -9 rmoveto
          -82 -107 callgsubr
          82 -95 callgsubr
          endchar
        </CharString>
        <CharString name="dvBHA">
          191 830 -79 callsubr
          -336 -107 callgsubr
          79 -226 hlineto
          -53 3 -90 4 -34 -2 rrcurveto
          138 vlineto
          158 -99 39 -79 -80 -74 -40 -82 -95 99 -56 74 -18 116 callgsubr
          -39 22 -43 30 59 vvcurveto
          36 16 18 29 37 17 -28 -66 1 vhcurveto
          -169 vlineto
          -83 -4 -19 243 callgsubr
          15 -6 34 2 14 9 21 13 16 57 5 45 47 2 68 -3 57 -5 rrcurveto
          -171 -106 callsubr
        </CharString>
        <CharString name="dvBH_LA">
          620 1259 227 callgsubr
          516 113 callgsubr
          -77 -83 -48 -102 -6 hvcurveto
          2 -50 -55 0 -24 hhcurveto
          146 vlineto
          145 -99 39 -78 -81 -74 -39 -84 13 callsubr
          -196 vlineto
          -82 -4 -20 243 callgsubr
          1 callsubr
          15 64 4 37 rrcurveto
          53 46 -1 -3 43 hvcurveto
          38 -96 95 -79 65 -45 -85 callsubr
        </CharString>
        <CharString name="dvBH_NA">
          166 806 -79 callsubr
          -370 -107 callgsubr
          112 -162 hlineto
          3 -56 -85 1 -32 hhcurveto
          88 vlineto
          145 -94 39 -78 -81 -74 -39 -80 -70 66 -41 73 callsubr
          -39 22 -7 14 37 vvcurveto
          30 171 callsubr
          -138 vlineto
          -63 -19 -22 -29 -64 72 -70 28 -11 hvcurveto
          -2 6 8 -1 9 hhcurveto
          15 10 2 6 9 hvcurveto
          23 14 14 60 4 37 rrcurveto
          65 54 -2 -4 50 hvcurveto
          -5 vlineto
          -151 -86 -98 -55 -33 -24 -23 -21 3 -26 rlinecurve
          7 -57 92 241 callsubr
          158 102 rcurveline
          -147 -106 callsubr
        </CharString>
        <CharString name="dvBH_R">
          -55 545 625 rmoveto
          -104 hlineto
          -41 25 -38 -89 callsubr
          97 -95 callgsubr
          -320 9 rmoveto
          -81 -74 -39 -84 -82 66 -40 71 -17 hvcurveto
          99 callsubr
          -36 18 -10 30 25 vvcurveto
          45 26 18 191 callgsubr
          -64 88 -67 28 -11 vhcurveto
          121 callsubr
          57 50 0 -2 46 hvcurveto
          -310 -184 -38 callgsubr
          rlinecurve
          320 220 -5 138 rlineto
          6 -50 -135 2 -39 258 callgsubr
          vhcurveto
          endchar
        </CharString>
        <CharString name="dvBH_RA">
          184 823 -79 callsubr
          -343 hlineto
          -41 25 -38 -89 callsubr
          79 -175 hlineto
          3 -54 -78 1 -32 258 callgsubr
          -81 -74 -39 -84 -82 66 -40 73 callsubr
          -36 18 -10 30 25 vvcurveto
          45 26 18 191 callgsubr
          -64 88 -67 28 -11 vhcurveto
          34 callsubr
        </CharString>
        <CharString name="dvBH_R_YA">
          526 908 149 callgsubr
          -47 -37 11 20 -28 hvcurveto
          -1 2 -1 -1 -10 8 -9 9 -8 10 rlinecurve
          -88 callgsubr
          172 hlineto
          -15 callgsubr
          -675 117 callsubr
          16 -21 11 -24 -25 vvcurveto
          -59 -20 -30 -56 -20 vhcurveto
          2 -39 -47 1 -43 hhcurveto
          -25 -10 0 -1 -19 hvcurveto
          107 vlineto
          145 -99 39 -78 -81 -74 -39 -84 188 callgsubr
          -157 vlineto
          -48 -33 93 callgsubr
          -9 callgsubr
          -47 90 -107 53 6 6 1 1 6 vhcurveto
          10 1 8 4 6 4 rrcurveto
          20 16 18 54 45 vvcurveto
          2 29 10 0 26 hhcurveto
          28 27 -1 -2 28 hvcurveto
          8 -22 12 -21 15 -21 -288 -170 rcurveline
          -38 callgsubr
          284 196 rcurveline
          -23 36 45 -15 55 hhcurveto
          55 41 16 17 30 hvcurveto
          -94 -106 callsubr
        </CharString>
        <CharString name="dvBH_VA">
          475 857 -73 callgsubr
          257 168 197 callgsubr
          -88 -103 -54 -117 -8 hvcurveto
          2 -50 -53 0 -24 hhcurveto
          146 vlineto
          145 -99 39 -78 -81 -74 -39 -84 13 callsubr
          -196 vlineto
          -82 -4 -20 243 callgsubr
          1 callsubr
          15 64 4 37 rrcurveto
          51 45 -1 -2 41 hvcurveto
          -72 29 67 -55 98 hhcurveto
          57 callsubr
          hvcurveto
          -89 -106 callsubr
        </CharString>
        <CharString name="dvBH_YA">
          487 869 -44 callsubr
          -94 -21 vhcurveto
          1 -37 -36 0 -20 hhcurveto
          122 vlineto
          145 -99 39 -78 -81 -74 -39 -84 13 callsubr
          -172 vlineto
          -82 -4 -20 243 callgsubr
          1 callsubr
          15 64 4 37 rrcurveto
          48 35 -1 -2 32 hvcurveto
          -74 36 70 -68 119 hhcurveto
          55 41 16 17 30 hvcurveto
          -94 -106 callsubr
        </CharString>
        <CharString name="dvB_BA">
          345 660 191 -55 callgsubr
          -423 -161 -4 callsubr
          819 187 -103 callgsubr
          -991 -107 callgsubr
          735 157 callgsubr
          -5 0 -5 1 -5 hvcurveto
          -11 -16 -13 -15 -15 -14 -134 139 rcurveline
          -68 callsubr
          76 63 40 46 42 hvcurveto
          -51 36 59 -35 78 hhcurveto
          57 callsubr
          hvcurveto
          -89 -106 callsubr
        </CharString>
        <CharString name="dvB_BHA">
          349 312 155 rmoveto
          -12 -25 -28 -7 -29 hhcurveto
          -52 -35 31 62 29 9 25 16 18 hvcurveto
          820 219 -103 callgsubr
          -332 -107 callgsubr
          75 -221 hlineto
          -54 3 -83 4 -32 -2 rrcurveto
          165 vlineto
          131 -87 34 -79 -19 -21 -3 -6 -20 vhcurveto
          -380 -107 callgsubr
          262 hlineto
          4 -41 38 -32 25 -10 9 8 15 8 4 10 rrcurveto
          -8 20 -3 11 11 vvcurveto
          36 21 16 29 37 16 -23 -66 1 vhcurveto
          2 -101 0 -11 -2 -57 rrcurveto
          -83 -4 -19 -21 -29 vvcurveto
          -15 5 -17 9 -16 vhcurveto
          -133 137 rlineto
          -68 callsubr
          68 58 32 40 42 hvcurveto
          17 -15 16 -11 9 -4 15 -6 34 2 14 9 21 13 16 57 5 45 45 2 64 -3 55 -4 rrcurveto
          -177 -106 callsubr
        </CharString>
        <CharString name="dvB_BH_RA">
          410 299 168 -4 callsubr
          890 210 -103 callgsubr
          -343 hlineto
          -41 25 -38 -89 callsubr
          79 -175 hlineto
          3 -54 -78 1 -32 258 callgsubr
          -24 -23 -3 -6 -20 vhcurveto
          -435 -107 callgsubr
          308 -1 hlineto
          -63 59 -33 67 -9 vhcurveto
          9 8 12 26 4 16 rrcurveto
          -36 13 0 20 12 vvcurveto
          35 26 13 191 callgsubr
          -4 0 -3 1 -4 vhcurveto
          -13 -29 -21 -30 -27 -25 -134 139 rcurveline
          -68 callsubr
          107 82 79 66 33 hvcurveto
          23 -22 25 -16 12 -5 rrcurveto
          34 callsubr
        </CharString>
        <CharString name="dvB_DA">
          339 305 220 callgsubr
          638 187 rmoveto
          175 -95 callgsubr
          -988 -107 callgsubr
          694 189 callgsubr
          -131 -73 -65 -83 -23 hvcurveto
          -13 -26 -20 -26 -24 -23 -134 139 rcurveline
          -68 callsubr
          70 59 33 42 42 hvcurveto
          -81 32 81 -58 118 hhcurveto
          216 callgsubr
          hvcurveto
          -86 callsubr
        </CharString>
        <CharString name="dvB_DHA">
          423 316 147 230 callsubr
          894 222 -17 callsubr
          -17 -16 -2 -3 -15 vhcurveto
          -556 -107 callgsubr
          403 hlineto
          260 callsubr
          -17 -19 -12 -22 -6 -26 -17 -35 -30 -36 -38 -26 -148 153 rcurveline
          -68 callsubr
          104 84 53 55 48 hvcurveto
          -39 32 55 -24 68 hhcurveto
          59 57 18 27 46 hvcurveto
          -107 -106 callsubr
        </CharString>
        <CharString name="dvB_DH_VA">
          725 1107 -73 callgsubr
          -797 -213 rmoveto
          -9 -22 -24 -5 -24 hhcurveto
          -68 -35 31 62 29 9 25 16 18 hvcurveto
          1202 230 -103 callgsubr
          -617 -107 callgsubr
          360 157 callgsubr
          -13 1 -13 2 -13 hvcurveto
          -35 -38 -52 -28 10 callsubr
          -579 -107 callgsubr
          426 hlineto
          260 callsubr
          -17 -19 -13 -23 -5 -26 -14 -37 -30 -38 -37 -28 -147 152 rcurveline
          -68 callsubr
          107 83 56 57 43 hvcurveto
          -37 33 54 -23 66 hhcurveto
          70 69 25 37 49 hvcurveto
          -43 36 55 -29 71 hhcurveto
          57 callsubr
          hvcurveto
          -89 -106 callsubr
        </CharString>
        <CharString name="dvB_JA">
          582 312 182 230 callgsubr
          1056 187 -103 callgsubr
          -1229 -107 callgsubr
          973 -96 166 callsubr
          rrcurveto
          -86 -26 -69 -44 -43 vhcurveto
          -145 150 rlineto
          167 callsubr
          100 80 95 30 hvcurveto
          -116 56 82 -90 109 45 callsubr
        </CharString>
        <CharString name="dvB_JHA">
          574 956 296 rmoveto
          -38 -18 -53 -12 -37 -4 rrcurveto
          25 -22 -29 18 -35 12 callgsubr
          46 28 -3 11 hhcurveto
          18 33 39 25 hvcurveto
          97 135 vlineto
          -646 -331 230 callsubr
          1051 180 -103 callgsubr
          -1232 -107 callgsubr
          720 194 callgsubr
          -5 0 -6 1 -5 hvcurveto
          -17 -35 -30 -36 -39 -27 -148 153 rcurveline
          -68 callsubr
          118 93 69 62 43 hvcurveto
          -36 34 44 -20 28 -71 callsubr
          12 -2 14 -4 14 hvcurveto
          11 hlineto
          27 26 3 5 20 hvcurveto
          -160 -106 callsubr
        </CharString>
        <CharString name="dvB_J_YA">
          940 1322 -104 callsubr
          -1011 -338 230 callgsubr
          1417 187 -103 callgsubr
          -1575 -107 callgsubr
          1038 139 callsubr
          -26 -4 -21 -9 -16 vhcurveto
          18 -75 -88 19 -80 hhcurveto
          -78 hlineto
          -76 callgsubr
          -99 -72 159 180 callsubr
          76 callsubr
          1 -4 rcurveline
          -1 -84 -25 -68 -44 -42 -145 150 rcurveline
          167 callsubr
          99 79 94 30 hvcurveto
          -115 56 82 -89 109 hhcurveto
          75 56 41 82 57 -27 56 -31 36 hvcurveto
          134 hlineto
          -99 15 71 -133 166 hhcurveto
          55 41 16 17 30 hvcurveto
          -94 -106 callsubr
        </CharString>
        <CharString name="dvB_JxA">
          592 727 6 rmoveto
          -94 callgsubr
          -420 177 rmoveto
          -10 -23 -26 -5 -27 hhcurveto
          -55 -38 38 55 28 9 24 15 18 hvcurveto
          1069 189 -103 callgsubr
          -1236 -107 callgsubr
          979 176 callsubr
          -34 -12 -19 -12 rrcurveto
          1 vlineto
          -87 -29 -70 -48 -43 vhcurveto
          -145 150 rlineto
          5 16 17 3 18 hhcurveto
          183 callgsubr
          27 -64 hhcurveto
          -96 -106 -59 228 callgsubr
          121 95 90 101 21 hvcurveto
          -124 56 85 -99 113 hhcurveto
          98 34 74 59 54 -28 51 -30 35 hvcurveto
          162 -293 -60 callgsubr
        </CharString>
        <CharString name="dvB_LA">
          508 304 220 callgsubr
          983 187 -103 callgsubr
          -1156 -107 callgsubr
          899 113 callgsubr
          -75 -81 -45 -98 -9 hvcurveto
          -13 -29 -21 -28 -26 -25 -134 139 rcurveline
          -68 callsubr
          84 68 48 53 42 hvcurveto
          44 -85 83 -69 60 -41 -85 callsubr
        </CharString>
        <CharString name="dvB_L_YA">
          924 1306 -104 callsubr
          -1010 -329 -4 callsubr
          1416 187 -103 callgsubr
          -1589 -107 callgsubr
          1044 139 callsubr
          -52 -15 -28 -40 -20 vhcurveto
          71 -27 -54 29 248 callgsubr
          -73 -77 -42 -90 -14 hvcurveto
          -11 -32 -24 -33 -29 -28 -134 139 rcurveline
          -68 callsubr
          85 69 50 53 42 hvcurveto
          43 -86 85 -69 60 -42 15 12 21 29 9 16 rrcurveto
          -79 63 -68 59 88 vvcurveto
          55 27 38 52 41 33 -25 -26 15 vhcurveto
          -7 -22 -5 -22 -3 -19 13 -11 54 -28 32 -4 rrcurveto
          55 8 23 117 78 hhcurveto
          21 16 -14 -18 8 hvcurveto
          -1 hlineto
          -100 12 70 -140 171 hhcurveto
          55 41 16 17 30 hvcurveto
          -94 -106 callsubr
        </CharString>
        <CharString name="dvB_NA">
          -11 366 256 rmoveto
          -8 -7 -8 -7 -9 -7 -125 130 rcurveline
          5 17 20 3 22 hhcurveto
          37 30 -8 -11 24 hvcurveto
          -77 -149 rmoveto
          -11 -23 -23 -6 -21 hhcurveto
          -42 -42 19 52 30 9 25 16 19 hvcurveto
          465 187 -103 callgsubr
          -638 205 callsubr
          -63 35 -62 65 -34 hvcurveto
          -48 -21 rlineto
          -43 callsubr
          191 96 rlineto
          -109 -106 callsubr
        </CharString>
        <CharString name="dvB_R">
          -223 90 callsubr
          426 -95 callgsubr
          -88 -420 rmoveto
          -9 -22 -23 -6 -22 hhcurveto
          -52 -32 26 53 26 9 22 15 17 hvcurveto
          252 -6 rmoveto
          -11 -31 -26 -33 -34 -26 -125 129 rcurveline
          4 14 16 2 16 hhcurveto
          49 42 -10 -13 16 184 callgsubr
          -57 27 -64 hhcurveto
          -96 -106 -59 -130 -77 51 -62 78 -29 hvcurveto
          -120 -71 -38 callgsubr
          rlinecurve
          363 246 rlineto
          endchar
        </CharString>
        <CharString name="dvB_RA">
          -16 289 205 111 callgsubr
          -634 205 callsubr
          -71 45 -70 81 -29 hvcurveto
          -122 -72 -38 callgsubr
          rlinecurve
          252 171 10 6 rlineto
          -112 -106 callsubr
        </CharString>
        <CharString name="dvB_SA">
          443 825 520 rmoveto
          -174 vlineto
          -14 -35 -45 -8 -43 -92 callgsubr
          -332 -329 -4 callsubr
          920 187 -103 callgsubr
          -1093 -107 callgsubr
          529 202 callsubr
          -2 vlineto
          -12 -30 -22 -30 -27 -25 -134 139 rcurveline
          -68 callsubr
          94 75 61 59 39 hvcurveto
          44 -72 71 -92 65 -64 -66 callgsubr
        </CharString>
        <CharString name="dvB_SHA">
          512 312 182 rmoveto
          -8 -22 -26 -6 -32 hhcurveto
          -51 -42 31 62 29 9 24 17 19 hvcurveto
          986 187 -103 callgsubr
          -1175 -107 callgsubr
          495 hlineto
          -5 -14 -3 -16 -19 vvcurveto
          -73 63 -54 80 -27 vhcurveto
          9 6 14 22 3 11 rrcurveto
          -41 35 -11 27 28 vvcurveto
          44 26 25 31 45 23 -30 -66 -78 -65 -75 -54 -14 vhcurveto
          21 -26 -30 20 -37 hhcurveto
          -43 -28 -31 -31 -35 hvcurveto
          -6 -6 -7 -5 -7 -6 -147 152 rcurveline
          5 16 17 2 19 hhcurveto
          42 41 -10 -13 17 184 callgsubr
          -57 27 -64 hhcurveto
          -96 -106 -59 228 callgsubr
          99 70 59 50 47 hvcurveto
          -22 22 29 -4 19 34 callgsubr
        </CharString>
        <CharString name="dvB_TA">
          345 305 220 callgsubr
          819 187 -103 callgsubr
          -992 -107 callgsubr
          735 242 callsubr
          hvcurveto
          -1 vlineto
          -12 -18 -14 -17 -16 -15 -134 139 rcurveline
          -68 callsubr
          74 61 37 45 42 hvcurveto
          31 -71 49 -68 36 -46 -68 callgsubr
        </CharString>
        <CharString name="dvB_VA">
          355 737 -73 callgsubr
          -433 -161 -4 callsubr
          830 187 -103 callgsubr
          -1003 -107 callgsubr
          746 157 callgsubr
          hvcurveto
          -1 vlineto
          -12 -21 -17 -20 -19 -18 -134 139 rcurveline
          -68 callsubr
          80 65 43 50 42 hvcurveto
          -55 35 60 -38 82 hhcurveto
          57 callsubr
          hvcurveto
          -89 -106 callsubr
        </CharString>
        <CharString name="dvB_YA">
          388 770 520 rmoveto
          -270 vlineto
          215 callsubr
          -65 -48 22 37 -28 -94 callsubr
          -294 -329 -4 callsubr
          864 187 -103 callgsubr
          -1037 -107 callgsubr
          500 201 callgsubr
          -14 3 -15 4 -15 -12 -20 -16 -19 -18 -17 -134 139 rcurveline
          -68 callsubr
          87 70 52 54 41 hvcurveto
          -55 40 64 -42 94 hhcurveto
          55 41 16 17 30 hvcurveto
          -94 -106 callsubr
        </CharString>
        <CharString name="dvC">
          -158 348 450 225 callgsubr
          -90 81 -92 126 70 53 29 49 57 vhcurveto
          -13 146 rlineto
          -74 -24 -76 -49 -76 129 callsubr
          24 57 hvcurveto
          34 -95 callgsubr
          95 175 rmoveto
          -492 -107 callgsubr
          492 -95 callgsubr
          endchar
        </CharString>
        <CharString name="dvCA">
          68 707 -79 callsubr
          -717 -107 callgsubr
          460 -268 141 callsubr
          -90 81 -92 126 49 41 14 25 39 vhcurveto
          -104 -106 callsubr
        </CharString>
        <CharString name="dvCH">
          107 707 625 rmoveto
          -756 -107 callgsubr
          756 -95 callgsubr
          -540 -139 rmoveto
          -83 -55 -56 -72 -62 40 -48 73 -25 hvcurveto
          -22 -24 -15 -27 -41 246 callgsubr
          190 152 119 182 130 -78 87 -105 -83 -51 -55 -73 -76 55 -49 75 -32 -85 callgsubr
          34 -4 -27 78 -99 hhcurveto
          endchar
        </CharString>
        <CharString name="dvCHA">
          126 5 callsubr
          136 callsubr
          vhcurveto
          endchar
        </CharString>
        <CharString name="dvCH_RA">
          107 5 callsubr
          vhcurveto
          7 7 0 6 hhcurveto
          -168 -98 10 callgsubr
          -169 126 rlineto
          142 33 103 107 150 vvcurveto
          261 callsubr
        </CharString>
        <CharString name="dvCH_R_YA">
          697 -23 callsubr
          -91 75 -61 125 -6 vhcurveto
          -193 -113 10 callgsubr
          -174 130 rlineto
          177 10 139 116 173 vvcurveto
          25 -3 23 -5 21 vhcurveto
          39 52 65 34 62 hhcurveto
          23 16 -6 -22 -2 callsubr
        </CharString>
        <CharString name="dvCH_YA">
          712 -23 callsubr
          -96 84 -63 137 189 153 119 181 25 -3 23 -5 21 vhcurveto
          39 52 65 34 62 hhcurveto
          23 16 -6 -22 -2 callsubr
        </CharString>
        <CharString name="dvC_CA">
          391 454 345 rmoveto
          250 callsubr
          -27 vvcurveto
          -10 1 -11 2 -10 vhcurveto
          -31 -34 -47 -19 -47 129 callsubr
          24 57 hvcurveto
          677 175 -103 callgsubr
          -1040 -107 callgsubr
          783 242 callgsubr
          24 57 hvcurveto
          34 hlineto
          41 -18 30 -21 26 vhcurveto
          -658 hlineto
          -41 18 -30 -89 callsubr
          79 hlineto
          250 callsubr
          -27 vvcurveto
          -90 81 -92 126 64 49 24 41 51 vhcurveto
          -38 37 54 -27 68 hhcurveto
          49 41 14 25 39 hvcurveto
          -104 -106 callsubr
        </CharString>
        <CharString name="dvC_CHA">
          492 -79 98 callsubr
          415 223 callsubr
          606 -55 rmoveto
          -100 -82 hlineto
          -66 -11 -40 -51 -64 vvcurveto
          -76 55 -49 75 -32 -85 callgsubr
          34 -4 -27 78 -99 hhcurveto
          -83 -55 -56 -72 -59 37 -47 67 -26 hvcurveto
          -61 -68 -51 -26 -74 hhcurveto
          -69 -41 25 42 58 76 25 6 callsubr
          -26 vvcurveto
          -91 84 -92 144 61 53 12 32 48 vhcurveto
          -66 26 76 -41 110 hhcurveto
          136 callsubr
          hvcurveto
          endchar
        </CharString>
        <CharString name="dvC_CH_VA">
          519 866 -65 rmoveto
          -50 -35 -56 -28 -48 hhcurveto
          -54 -25 33 37 49 45 25 56 5 hvcurveto
          41 4 39 8 37 12 rrcurveto
          127 490 rmoveto
          166 hlineto
          237 callgsubr
          903 -30 hlineto
          -73 -2 -62 -54 -75 vvcurveto
          -75 61 -50 69 -29 vhcurveto
          12 10 15 21 4 18 rrcurveto
          -33 26 -16 25 35 vvcurveto
          49 30 16 21 28 29 -28 -62 -135 -139 -88 -120 -49 -41 15 41 50 63 22 55 4 vhcurveto
          -10 38 -23 29 -22 21 -26 -5 -31 -11 -28 -15 rrcurveto
          -34 4 -29 25 36 vvcurveto
          29 20 28 41 31 18 -17 -28 16 vhcurveto
          12 3 12 5 10 8 rrcurveto
          34 -4 -27 78 -99 hhcurveto
          -84 -54 -57 -69 -63 44 -40 69 -22 hvcurveto
          -5 -5 -4 -4 -3 -5 rrcurveto
          -68 -74 -52 -29 -78 hhcurveto
          -69 -41 25 42 58 76 25 6 callsubr
          -26 vvcurveto
          -91 84 -92 132 82 63 16 48 57 vhcurveto
          14 -21 22 -17 25 -13 rrcurveto
          -28 -22 -18 -29 -40 vvcurveto
          -83 80 -92 120 45 39 12 18 32 vhcurveto
          -81 245 callsubr
          414 vlineto
          63 48 41 66 83 vvcurveto
          75 -33 65 -49 36 vhcurveto
          endchar
        </CharString>
        <CharString name="dvC_MA">
          426 808 302 -51 callsubr
          257 hmoveto
          41 -18 38 -21 26 vhcurveto
          -1071 -107 callgsubr
          491 146 callgsubr
          -8 3 -10 4 -11 vhcurveto
          -10 -23 -26 -6 -26 129 callsubr
          24 6 callsubr
          -27 vvcurveto
          -90 81 -92 126 47 40 13 24 38 vhcurveto
          -26 26 29 -19 22 -53 callsubr
        </CharString>
        <CharString name="dvC_NA">
          67 706 -79 callsubr
          -717 -107 callgsubr
          460 -268 141 callsubr
          -60 36 -61 62 -34 vhcurveto
          -52 -25 rlineto
          -43 callsubr
          202 101 rlineto
          -100 -106 callsubr
        </CharString>
        <CharString name="dvC_R">
          -167 433 625 rmoveto
          -482 -107 callgsubr
          482 -95 callgsubr
          -88 -165 225 callgsubr
          -71 50 -72 83 -28 vhcurveto
          -116 255 callsubr
          320 222 -28 143 rlineto
          -74 -24 -76 -49 -76 129 callsubr
          24 57 hvcurveto
          34 -95 callgsubr
          endchar
        </CharString>
        <CharString name="dvC_RA">
          68 707 -79 callsubr
          -717 -107 callgsubr
          460 -258 141 callsubr
          -70 49 -71 81 -28 vhcurveto
          -109 189 callsubr
          250 172 rlineto
          -111 -106 callsubr
        </CharString>
        <CharString name="dvC_YA">
          415 797 -96 callsubr
          -1065 -107 callgsubr
          528 107 callsubr
          -27 7 -29 13 -29 rrcurveto
          -31 -35 -47 -19 -47 129 callsubr
          24 6 callsubr
          -27 vvcurveto
          -90 81 -92 126 66 51 26 44 54 vhcurveto
          -43 40 58 -31 81 hhcurveto
          55 41 16 17 30 hvcurveto
          -94 -106 callsubr
        </CharString>
        <CharString name="dvCandrabindu">
          -590 -33 889 18 callsubr
        </CharString>
        <CharString name="dvD">
          -22 344 -96 -80 callgsubr
          98 616 rmoveto
          175 -95 callgsubr
          -627 -107 callgsubr
          333 -72 98 callgsubr
          -72 -102 -109 191 callsubr
          hvcurveto
          -86 callsubr
        </CharString>
        <CharString name="dvDA">
          -22 442 146 callsubr
          -627 -107 callgsubr
          333 -72 98 callgsubr
          -72 -102 -109 191 callsubr
          hvcurveto
          -86 callsubr
        </CharString>
        <CharString name="dvDA_mvR">
          -104 397 182 callsubr
          -545 -107 callgsubr
          294 -44 hlineto
          -21 1 -16 1 -25 -1 rrcurveto
          -72 -2 -96 -9 -92 vvcurveto
          -47 26 -39 44 -39 vhcurveto
          -40 -26 -23 -37 -47 vvcurveto
          -77 65 -68 122 92 65 35 46 57 vhcurveto
          -13 34 -16 23 -20 23 rrcurveto
          -28 -29 -53 -41 -86 hhcurveto
          -62 -19 22 25 57 94 24 133 hvcurveto
          -5 30 -13 37 -16 19 rrcurveto
          -65 -57 -7 -15 -47 hvcurveto
          -22 22 -6 20 20 vvcurveto
          19 6 23 92 vhcurveto
          31 37 -3 22 hhcurveto
          15 34 39 25 hvcurveto
          endchar
        </CharString>
        <CharString name="dvDD">
          -40 468 520 -31 callgsubr
          -141 -517 -80 callgsubr
          endchar
        </CharString>
        <CharString name="dvDDA">
          -40 468 520 -31 callgsubr
          endchar
        </CharString>
        <CharString name="dvDDH">
          187 callgsubr
          -55 -62 -14 callsubr
          45 -163 -80 callgsubr
          endchar
        </CharString>
        <CharString name="dvDDHA">
          -49 349 111 rmoveto
          -6 16 -4 19 17 vvcurveto
          43 22 36 35 25 14 -18 -24 vhcurveto
          -1 -42 -37 -32 -48 -15 rrcurveto
          -65 -10 -14 callsubr
          endchar
        </CharString>
        <CharString name="dvDDH_DDHA">
          -81 328 -172 rmoveto
          217 callgsubr
          407 vmoveto
          217 callgsubr
          81 -83 rmoveto
          36 25 19 35 36 vvcurveto
          251 callsubr
          vhcurveto
          187 callsubr
          82 148 -64 callsubr
          -567 -107 callgsubr
          319 -47 hlineto
          236 callsubr
          14 13 1 2 13 hvcurveto
          -49 vlineto
          236 callsubr
          122 73 67 69 251 callsubr
          hvcurveto
          187 callsubr
          endchar
        </CharString>
        <CharString name="dvDDH_R">
          187 callgsubr
          114 -327 rmoveto
          12 7 37 37 9 17 -165 123 rcurveline
          97 19 70 63 86 vvcurveto
          248 callsubr
          -5 hlineto
          -28 callsubr
          -601 -107 callgsubr
          320 -72 hlineto
          138 callgsubr
          -144 103 -88 137 -6 hvcurveto
          -172 -100 6 -23 46 -58 20 -12 rlinecurve
          158 121 rlineto
          48 -118 -80 callgsubr
          endchar
        </CharString>
        <CharString name="dvDDH_RA">
          -9 357 100 callsubr
          -601 -107 callgsubr
          320 -72 hlineto
          138 callgsubr
          -141 100 -87 132 -9 hvcurveto
          -172 -101 10 callgsubr
          -164 122 rlineto
          100 17 74 64 88 vvcurveto
          248 callsubr
          endchar
        </CharString>
        <CharString name="dvDDH_YA">
          554 936 212 callsubr
          96 -119 25 -146 -33 -40 -1 -4 -42 vhcurveto
          45 502 vlineto
          -495 -266 rmoveto
          26 13 -22 -24 -34 -39 -42 -49 -13 hvcurveto
          -6 15 -2 21 16 vvcurveto
          43 22 40 35 vhcurveto
          752 266 -103 callgsubr
          -1202 -107 callgsubr
          324 -65 hlineto
          -22 -5 -22 -6 -21 -8 rrcurveto
          -99 -35 -78 -61 -107 vvcurveto
          -130 114 -89 135 170 66 103 71 78 -47 58 -80 -77 -53 -48 -78 -32 12 -39 19 -25 vhcurveto
          -25 -2 -25 2 -22 7 rrcurveto
          -45 14 -34 33 59 vvcurveto
          46 34 57 103 38 vhcurveto
          23 64 90 15 125 hhcurveto
          114 15 168 callgsubr
        </CharString>
        <CharString name="dvDDHxA">
          -33 313 -26 rmoveto
          -94 callgsubr
          36 137 56 callgsubr
          -65 -10 -14 callsubr
          endchar
        </CharString>
        <CharString name="dvDD_DDA">
          -52 444 520 rmoveto
          143 -95 callgsubr
          -597 -107 callgsubr
          349 -51 -125 hlineto
          -83 -52 -46 -81 -94 100 -62 42 hvcurveto
          45 99 43 33 hhcurveto
          17 11 -10 -11 -35 -64 -39 -90 -78 -51 31 69 -59 hvcurveto
          -17 -9 -19 -16 -12 -17 26 -36 28 -29 29 -23 rrcurveto
          -28 -25 -12 -35 -36 vvcurveto
          -92 100 -64 42 vhcurveto
          48 98 43 31 hhcurveto
          17 11 -8 -13 -30 -61 -45 -90 -78 -54 32 69 -59 hvcurveto
          -17 -8 -21 -13 -10 -21 rrcurveto
          -104 75 91 -49 98 hhcurveto
          111 90 63 72 55 -62 101 -68 hvcurveto
          -61 -96 -42 -24 hhcurveto
          -11 -10 5 24 38 31 7 100 11 hvcurveto
          107 12 94 51 72 169 callsubr
        </CharString>
        <CharString name="dvDD_DDHA">
          -48 382 -201 rmoveto
          -1 8 0 9 6 vvcurveto
          30 12 26 26 15 12 -8 -16 -20 -29 -23 -35 -12 vhcurveto
          78 721 rmoveto
          132 -95 callgsubr
          -602 -107 callgsubr
          365 -70 -126 hlineto
          -83 -52 -48 -73 -113 101 -48 44 hvcurveto
          42 101 43 32 hhcurveto
          16 11 -7 -17 -39 -64 -34 -89 -79 -50 31 70 -60 hvcurveto
          -17 -8 -21 -16 -10 -21 37 -51 42 -37 44 -25 rrcurveto
          -58 -32 -33 -57 -66 vvcurveto
          -100 95 -97 147 122 73 67 69 62 -59 43 -62 -63 -29 -34 -45 -32 10 -26 12 -17 vhcurveto
          -22 1 -20 3 -18 5 rrcurveto
          -51 14 -30 32 46 vvcurveto
          67 64 36 81 24 vhcurveto
          56 17 127 16 103 vvcurveto
          48 -52 105 -83 vhcurveto
          -53 -104 -42 -21 hhcurveto
          -11 -9 8 25 46 36 14 124 hvcurveto
          44 1 -2 23 hhcurveto
          12 37 34 23 hvcurveto
          endchar
        </CharString>
        <CharString name="dvDD_R">
          -40 450 -212 rmoveto
          12 7 37 37 9 17 -163 121 rcurveline
          151 callsubr
          103 132 -64 callsubr
          -610 43 callsubr
          64 -89 88 -62 95 -15 -183 -107 rcurveline
          6 -23 46 -58 20 -12 158 121 rcurveline
          51 -105 -80 callgsubr
          endchar
        </CharString>
        <CharString name="dvDD_RA">
          -40 468 260 callgsubr
          -610 43 callsubr
          64 -89 88 -62 95 -15 -183 -107 rcurveline
          6 -23 46 -58 20 -12 158 121 rcurveline
          247 callsubr
          rlineto
          151 callsubr
          endchar
        </CharString>
        <CharString name="dvDD_VA">
          -51 367 -58 rmoveto
          -55 -33 -55 -30 -50 hhcurveto
          -54 -25 34 34 60 77 44 71 hvcurveto
          9 hlineto
          21 20 2 4 19 hvcurveto
          84 485 rmoveto
          137 -95 callgsubr
          -598 -107 callgsubr
          356 -61 -125 hlineto
          -89 -46 -46 -81 -94 100 -62 42 hvcurveto
          48 98 43 31 hhcurveto
          17 11 -10 -11 -35 -64 -39 -90 -78 -51 31 69 -59 hvcurveto
          -17 -9 -19 -16 -12 -17 31 -44 35 -35 36 -24 rrcurveto
          -53 -27 -40 -45 -62 vvcurveto
          -88 80 -90 119 47 37 14 19 32 vhcurveto
          -84 245 callsubr
          418 vlineto
          23 22 13 26 28 169 callsubr
        </CharString>
        <CharString name="dvDD_YA">
          585 967 19 callsubr
          -70 hhcurveto
          -115 -105 -107 -118 -64 hvcurveto
          19 -19 -24 12 -26 -63 -105 -42 -26 hhcurveto
          -9 -10 4 28 59 56 13 94 hvcurveto
          59 12 -2 26 hhcurveto
          16 12 20 25 5 22 rrcurveto
          103 522 272 callgsubr
          -1257 43 callsubr
          rrcurveto
          -104 75 106 -66 113 158 callsubr
          10 -2 12 -3 13 hvcurveto
          86 29 82 159 108 hhcurveto
          27 16 -10 -18 -2 callsubr
        </CharString>
        <CharString name="dvDDxA">
          -69 309 -68 rmoveto
          -94 callgsubr
          154 588 -31 callgsubr
          endchar
        </CharString>
        <CharString name="dvDH">
          -111 529 -79 callsubr
          -96 hlineto
          3 -41 16 -38 21 -26 rrcurveto
          87 -210 rmoveto
          -57 -30 -81 -68 -82 -61 callgsubr
          87 84 39 51 49 vhcurveto
          endchar
        </CharString>
        <CharString name="dvDHA">
          113 752 49 callgsubr
          -115 -53 -78 -74 -63 44 -51 64 -22 vhcurveto
          -24 -26 -14 -33 -39 vvcurveto
          -91 77 -65 112 59 57 18 27 46 vhcurveto
          -107 -106 callsubr
        </CharString>
        <CharString name="dvDH_MA">
          473 855 302 -51 callsubr
          257 hmoveto
          41 -18 38 -21 26 vhcurveto
          -685 -107 callgsubr
          105 146 callgsubr
          -7 2 -8 4 -10 vhcurveto
          -16 -31 -35 -11 -38 -61 callgsubr
          58 56 17 27 46 vhcurveto
          -28 27 30 -21 24 -53 callsubr
        </CharString>
        <CharString name="dvDH_NA">
          104 743 49 callgsubr
          -115 -53 -78 -74 -63 44 -51 64 -22 vhcurveto
          -24 -26 -14 -33 -39 vvcurveto
          -59 33 -48 53 -27 vhcurveto
          -28 -13 rlineto
          -43 callsubr
          205 103 rlineto
          -106 -106 callsubr
        </CharString>
        <CharString name="dvDH_N_YA">
          473 855 -27 callsubr
          2 -19 5 -21 7 -20 rrcurveto
          -48 -39 -58 -34 -60 -41 callsubr
          -59 33 -49 54 -26 vhcurveto
          -34 -16 rlineto
          -43 callsubr
          267 133 rlineto
          -42 40 58 -30 79 hhcurveto
          55 41 16 17 30 hvcurveto
          -94 -106 callsubr
        </CharString>
        <CharString name="dvDH_R">
          -117 483 625 rmoveto
          -100 180 callgsubr
          95 -95 callgsubr
          -133 -202 rmoveto
          -35 -6 -35 -10 -32 -15 rrcurveto
          -38 12 -29 31 50 vvcurveto
          55 36 29 28 20 16 -10 -24 -22 -13 -13 -26 -18 vhcurveto
          3 -10 11 -20 9 -8 rrcurveto
          60 18 38 38 39 vvcurveto
          51 -38 40 -85 -115 -53 -78 -74 -63 43 -52 64 -22 vhcurveto
          -23 -26 -14 -32 -39 vvcurveto
          -64 38 -52 62 -24 vhcurveto
          -134 -67 -38 callgsubr
          rlinecurve
          385 214 -37 157 rlineto
          -74 -28 -80 -65 -82 -45 callgsubr
          rrcurveto
          endchar
        </CharString>
        <CharString name="dvDH_RA">
          112 740 225 callsubr
          66 -246 hlineto
          -51 -38 -61 -38 -63 -41 callsubr
          -64 38 -51 62 -25 vhcurveto
          -134 -67 -38 callgsubr
          rlinecurve
          320 178 rlineto
          -105 -106 callsubr
        </CharString>
        <CharString name="dvDH_VA">
          441 823 -73 callgsubr
          257 -11 callgsubr
          -647 hlineto
          3 -41 16 -38 21 -26 rrcurveto
          389 157 callgsubr
          -7 0 -7 1 -7 hvcurveto
          -43 -39 -61 -38 -61 -61 callgsubr
          76 74 30 42 50 vhcurveto
          -49 36 58 -33 76 hhcurveto
          57 callsubr
          hvcurveto
          -89 -106 callsubr
        </CharString>
        <CharString name="dvDH_YA">
          457 839 -27 callsubr
          3 -24 6 -26 10 -26 rrcurveto
          -36 -39 -53 -29 -54 -61 callgsubr
          77 74 30 42 50 vhcurveto
          -43 40 58 -31 81 hhcurveto
          55 41 16 17 30 hvcurveto
          -94 -106 callsubr
        </CharString>
        <CharString name="dvD_BA">
          -13 247 213 callgsubr
          -47 -36 232 callsubr
          250 214 callgsubr
          -637 -107 callgsubr
          329 76 callgsubr
          -74 63 -70 103 113 79 85 77 23 vhcurveto
          11 -22 11 -24 -47 callsubr
        </CharString>
        <CharString name="dvD_BHA">
          305 761 520 rmoveto
          183 -95 callgsubr
          -953 -107 callgsubr
          651 -62 74 callgsubr
          -94 -120 -80 53 -84 85 -42 hvcurveto
          -45 -17 -39 -16 -14 -6 -49 111 rcurveline
          111 -49 -73 29 -51 hhcurveto
          -73 -75 -49 -84 -95 80 -49 90 -1 hvcurveto
          14 15 1 4 21 hvcurveto
          5 11 -1 27 -2 16 rrcurveto
          -73 6 -54 36 51 vvcurveto
          29 13 19 31 25 23 -21 -48 22 vhcurveto
          67 -145 -74 -38 -2 -26 10 -25 rlinecurve
          24 -58 100 -41 44 2 17 1 22 7 7 22 7 24 -5 63 -12 36 67 29 127 46 67 23 5 1 5 2 5 2 7 2 rcurveline
          0 vlineto
          12 6 28 -48 22 -48 32 -60 rlinecurve
          19 callgsubr
        </CharString>
        <CharString name="dvD_B_RA">
          -13 293 -107 232 callsubr
          59 213 callgsubr
          98 591 271 callsubr
          -638 -107 callgsubr
          330 76 callgsubr
          -48 27 -47 47 -27 vhcurveto
          -125 -57 -38 callgsubr
          rlinecurve
          240 138 14 6 13 7 11 9 rlinecurve
          8 4 rlineto
          2 vlineto
          41 31 28 43 12 41 11 -22 11 -24 -47 callsubr
        </CharString>
        <CharString name="dvD_DA">
          -37 403 520 rmoveto
          199 -95 callgsubr
          -612 -107 callgsubr
          300 -47 hlineto
          3 -28 -16 0 -28 hhcurveto
          -119 -50 -47 -60 -46 26 -38 43 -38 hvcurveto
          -43 -26 -29 -37 -53 vvcurveto
          -100 93 -75 119 49 43 12 19 35 vhcurveto
          36 -56 24 -54 38 -72 25 11 61 46 11 23 -29 46 -56 50 -56 47 rrcurveto
          21 23 12 25 23 vvcurveto
          39 -14 42 -39 -37 -68 -26 -44 -18 6 -18 7 -8 vhcurveto
          -13 -25 -30 -4 -15 hhcurveto
          -79 -27 24 43 81 144 9 95 hvcurveto
          -5 30 -12 44 -16 19 rrcurveto
          -56 -63 -6 -18 -56 hvcurveto
          -21 22 -6 18 18 vvcurveto
          24 13 25 86 vhcurveto
          32 46 -6 22 hhcurveto
          15 34 39 25 hvcurveto
          endchar
        </CharString>
        <CharString name="dvD_DHA">
          -13 234 -122 rmoveto
          -32 -43 14 48 80 102 16 76 21 20 -2 -1 14 hvcurveto
          -91 -18 -72 -64 -68 hhcurveto
          204 642 271 callsubr
          -637 -107 callgsubr
          329 76 callgsubr
          -74 63 -70 103 113 79 85 77 23 vhcurveto
          11 -22 11 -24 -47 callsubr
        </CharString>
        <CharString name="dvD_GA">
          -11 438 520 rmoveto
          190 -95 callgsubr
          -638 -107 callgsubr
          329 -62 74 callgsubr
          -94 -120 -79 52 -83 84 -43 hvcurveto
          -94 vlineto
          -48 -28 93 callgsubr
          -9 callgsubr
          -47 80 -97 58 16 8 4 9 175 callsubr
          15 38 59 vvcurveto
          145 13 vlineto
          44 41 9 17 35 hvcurveto
          28 -48 22 -48 32 -60 19 callgsubr
        </CharString>
        <CharString name="dvD_GHA">
          183 430 -122 rmoveto
          -34 -42 14 50 76 96 18 83 27 16 -2 -1 15 hvcurveto
          -92 -19 -69 -63 -73 hhcurveto
          -233 107 rmoveto
          -65 -27 38 41 46 36 40 71 20 20 -3 -8 14 hvcurveto
          19 -28 34 -26 29 -16 rrcurveto
          -47 -27 -60 -37 -64 hhcurveto
          440 535 rmoveto
          185 -95 callgsubr
          -832 -107 callgsubr
          528 -56 74 callgsubr
          -97 -110 -17 2 -16 4 -16 hvcurveto
          6 -16 -19 3 -20 hhcurveto
          -85 -75 -51 -88 -75 54 -87 118 31 28 6 9 22 hvcurveto
          -70 5 62 -65 98 hhcurveto
          117 76 92 74 22 hvcurveto
          11 -22 12 -28 -47 callsubr
        </CharString>
        <CharString name="dvD_G_RA">
          -13 438 520 rmoveto
          188 -95 callgsubr
          -636 -107 callgsubr
          329 -62 74 callgsubr
          -94 -120 -59 29 -62 50 -45 hvcurveto
          -110 vlineto
          -48 -33 93 callgsubr
          -9 callgsubr
          -42 81 -100 52 10 17 3 4 6 vhcurveto
          23 17 17 44 64 vvcurveto
          124 vlineto
          -6 23 25 -4 27 hhcurveto
          11 10 1 1 10 hvcurveto
          -187 vlineto
          -291 -175 210 callsubr
          232 160 rlineto
          -60 245 callsubr
          387 vlineto
          21 -38 19 -41 26 -48 19 callgsubr
        </CharString>
        <CharString name="dvD_MA">
          -590 endchar
        </CharString>
        <CharString name="dvD_NA">
          11 457 520 rmoveto
          194 -95 callgsubr
          -661 -107 callgsubr
          348 -62 74 callgsubr
          -94 -120 -84 59 -89 93 -40 hvcurveto
          -74 -32 rlineto
          -43 callsubr
          197 98 6 2 5 2 5 3 rlinecurve
          28 -48 22 -48 32 -60 19 callgsubr
        </CharString>
        <CharString name="dvD_R">
          -19 447 520 rmoveto
          173 238 callgsubr
          338 -62 74 callgsubr
          -94 -120 -104 89 -110 134 -18 hvcurveto
          -7 callsubr
          1 -549 -80 callgsubr
          endchar
        </CharString>
        <CharString name="dvD_RA">
          -19 447 520 rmoveto
          173 238 callgsubr
          338 -62 74 callgsubr
          -94 -120 -104 89 -110 134 -18 hvcurveto
          -7 callsubr
          endchar
        </CharString>
        <CharString name="dvD_VA">
          -19 234 -122 rmoveto
          -32 -43 14 48 80 102 16 76 21 20 -2 -1 14 hvcurveto
          -91 -18 -72 -64 -68 hhcurveto
          204 642 rmoveto
          182 238 callgsubr
          329 76 callgsubr
          -74 63 -70 103 113 79 85 77 23 vhcurveto
          11 -22 11 -24 -47 callsubr
        </CharString>
        <CharString name="dvD_YA">
          66 448 154 rmoveto
          -41 -41 -64 -35 -83 hhcurveto
          -63 -30 21 40 39 62 38 134 8 hvcurveto
          -1 30 -22 48 -16 19 -49 -3 -48 -9 -42 -15 rrcurveto
          -17 19 -5 17 19 vvcurveto
          18 17 15 36 vhcurveto
          99 hlineto
          15 34 36 25 hvcurveto
          77 84 272 callgsubr
          -715 -107 callgsubr
          264 -39 -47 hlineto
          -85 -65 -22 -83 -39 27 -39 40 -36 hvcurveto
          -38 -28 -24 -37 -49 vvcurveto
          -94 78 -58 119 84 59 21 27 46 vhcurveto
          -46 vlineto
          -26 71 -20 49 vhcurveto
          568 vlineto
          endchar
        </CharString>
        <CharString name="dvE">
          7 209 520 rmoveto
          179 -186 hlineto
          -41 -32 -15 -33 -10 vhcurveto
          7 -28 31 -56 19 -14 rrcurveto
          76 26 53 55 95 vvcurveto
          174 -51 callgsubr
          -657 21 callgsubr
        </CharString>
        <CharString name="dvEcandra">
          7 316 690 rmoveto
          158 callgsubr
          124 callsubr
          -107 -170 rmoveto
          179 -186 hlineto
          -41 -32 -15 -33 -10 vhcurveto
          7 -28 31 -56 19 -14 rrcurveto
          76 26 53 55 95 vvcurveto
          174 -51 callgsubr
          -657 21 callgsubr
        </CharString>
        <CharString name="dvEight">
          -138 429 93 rmoveto
          -10 22 -31 47 -23 17 rrcurveto
          -38 -35 -48 -30 -50 hhcurveto
          -52 -30 32 54 100 100 157 88 119 hvcurveto
          -12 17 -63 41 -19 6 rrcurveto
          -67 -96 -112 -158 -159 vvcurveto
          -129 73 -84 113 80 70 42 40 28 vhcurveto
          endchar
        </CharString>
        <CharString name="dvEyelash">
          -289 312 625 rmoveto
          -361 -107 callgsubr
          361 hlineto
          267 callsubr
          49 -272 rmoveto
          -20 -37 -44 -9 -59 hhcurveto
          -35 -34 5 10 -27 hvcurveto
          -37 -56 rlineto
          -35 39 77 -17 69 hhcurveto
          40 30 3 14 27 hvcurveto
          endchar
        </CharString>
        <CharString name="dvEyelash_HA">
          123 587 341 105 callgsubr
          -766 -107 callgsubr
          530 209 callsubr
          hvcurveto
          -3 0 -3 -3 vvcurveto
          -9 -29 -33 -4 -33 hhcurveto
          -52 -50 15 10 -27 hvcurveto
          -37 -56 rlineto
          -35 39 92 -27 87 hhcurveto
          32 31 4 7 25 hvcurveto
          8 -10 10 -10 10 -10 rrcurveto
          -37 -29 -24 -42 -51 vvcurveto
          -152 190 -80 146 -35 vhcurveto
          -58 callgsubr
        </CharString>
        <CharString name="dvEyelash_YA">
          207 589 235 callsubr
          -49 22 37 -27 -94 callsubr
          172 hlineto
          -15 callgsubr
          -872 -107 callgsubr
          335 139 callsubr
          -71 -29 -29 -84 -20 vhcurveto
          -57 -11 -97 8 -49 18 -37 -56 rcurveline
          -35 39 99 -24 69 hhcurveto
          15 16 1 2 14 hvcurveto
          -77 35 71 -69 121 hhcurveto
          55 41 16 17 30 hvcurveto
          -94 -106 callsubr
        </CharString>
        <CharString name="dvFive">
          -41 417 231 rmoveto
          9 20 5 23 27 vvcurveto
          52 -20 27 -23 -39 -49 -36 -41 -12 8 -19 9 -15 vhcurveto
          -10 -19 -22 -5 -24 hhcurveto
          -76 -14 55 43 94 66 91 42 40 hvcurveto
          -16 25 -50 40 -23 8 rrcurveto
          -74 -66 -36 -106 -99 vvcurveto
          -162 95 -68 92 38 42 12 25 33 vhcurveto
          39 -64 41 -89 24 -61 28 11 62 39 13 20 -32 56 -75 92 -54 53 rrcurveto
          endchar
        </CharString>
        <CharString name="dvFour">
          60 330 132 rmoveto
          -42 -17 29 24 31 30 35 31 32 hvcurveto
          34 -36 29 -35 -32 vvcurveto
          -32 -34 -16 -31 vhcurveto
          250 439 rmoveto
          -16 21 -49 30 -30 10 -20 -54 -87 -96 -59 -65 -68 72 -59 68 -80 107 -21 -8 -38 -24 -7 -15 47 -75 45 -65 123 -124 rrcurveto
          -34 -40 -40 -62 -71 vvcurveto
          -87 61 -63 89 75 61 44 90 71 -38 56 -44 50 vhcurveto
          119 119 58 57 12 54 rrcurveto
          endchar
        </CharString>
        <CharString name="dvG">
          -272 367 -79 callsubr
          -377 -88 callsubr
          15 38 64 vvcurveto
          236 vlineto
          endchar
        </CharString>
        <CharString name="dvGA">
          23 662 -79 callsubr
          -672 hlineto
          -41 18 -38 21 -26 vhcurveto
          132 -151 hlineto
          -48 -33 -12 -15 -12 hvcurveto
          145 callsubr
        </CharString>
        <CharString name="dvGH">
          -181 469 324 rmoveto
          -74 -28 -80 -65 -82 -18 callgsubr
          302 -95 callgsubr
          -470 39 callgsubr
          173 callsubr
          87 91 38 63 55 vhcurveto
          endchar
        </CharString>
        <CharString name="dvGHA">
          39 421 250 rmoveto
          -38 -38 -51 -27 -53 -18 callgsubr
          263 105 callsubr
          -688 39 callgsubr
          173 callsubr
          50 50 13 21 42 vhcurveto
          -96 -106 callsubr
        </CharString>
        <CharString name="dvGH_MA">
          412 794 302 -51 callsubr
          -323 hmoveto
          -221 vlineto
          -48 -33 93 callgsubr
          -9 callgsubr
          -7 2 -9 4 -10 vhcurveto
          -16 -31 -34 -10 -32 -18 callgsubr
          893 -81 callsubr
          -1061 39 callgsubr
          173 callsubr
          56 54 16 25 45 vhcurveto
          -26 27 29 -20 23 -53 callsubr
        </CharString>
        <CharString name="dvGH_NA">
          39 421 250 rmoveto
          -38 -38 -51 -27 -53 -18 callgsubr
          263 105 callsubr
          -688 39 callgsubr
          -59 33 -49 54 -26 vhcurveto
          -44 -21 rlineto
          -43 callsubr
          200 100 rlineto
          -95 -106 callsubr
        </CharString>
        <CharString name="dvGH_R">
          -195 470 329 rmoveto
          -72 -27 -79 -67 -85 167 callgsubr
          284 -95 callgsubr
          -452 184 callsubr
          -47 60 -22 264 callgsubr
          363 201 rlineto
          endchar
        </CharString>
        <CharString name="dvGH_RA">
          43 425 258 rmoveto
          -39 -38 -53 -29 -55 167 callgsubr
          265 hlineto
          -15 callgsubr
          -691 184 callsubr
          -46 60 -23 264 callgsubr
          288 160 rlineto
          -110 -106 callsubr
        </CharString>
        <CharString name="dvGH_YA">
          443 825 23 callsubr
          -75 -32 -27 -95 -21 vhcurveto
          1 -12 3 -12 3 -12 rrcurveto
          -59 -37 -68 -47 -69 -18 callgsubr
          925 -81 callsubr
          -1093 39 callgsubr
          173 callsubr
          83 87 35 57 55 vhcurveto
          -53 40 63 -40 92 hhcurveto
          55 41 16 17 30 hvcurveto
          -94 -106 callsubr
        </CharString>
        <CharString name="dvG_BA">
          289 604 191 -55 callgsubr
          256 -11 callgsubr
          -936 -88 callsubr
          15 38 64 vvcurveto
          236 428 75 callgsubr
        </CharString>
        <CharString name="dvG_BHA">
          412 1051 -79 callsubr
          -336 -107 callgsubr
          79 -226 hlineto
          -53 3 -90 4 -34 -2 rrcurveto
          138 vlineto
          158 -99 39 -79 -22 -21 -3 -6 -20 vhcurveto
          -424 -88 callsubr
          15 38 64 vvcurveto
          236 42 -8 vlineto
          -95 99 -56 74 -18 vhcurveto
          112 callgsubr
          47 2 68 -3 57 -5 rrcurveto
          -171 -106 callsubr
        </CharString>
        <CharString name="dvG_BH_YA">
          733 1115 149 callgsubr
          -62 -47 20 34 -28 hvcurveto
          6 vlineto
          107 29 27 71 151 callgsubr
          -61 -21 -29 -59 -20 vhcurveto
          1 -29 -30 0 -29 hhcurveto
          -25 -26 0 -1 -19 hvcurveto
          110 89 callsubr
          -433 -88 callsubr
          17 133 callsubr
          49 -9 vlineto
          188 callgsubr
          -160 vlineto
          -48 -33 93 callgsubr
          -9 callgsubr
          -47 90 -107 53 8 8 1 2 8 vhcurveto
          7 2 7 3 4 3 rrcurveto
          20 16 18 54 45 vvcurveto
          2 29 26 0 26 hhcurveto
          16 15 0 -1 15 hvcurveto
          -81 33 71 -78 128 hhcurveto
          55 41 16 17 30 hvcurveto
          -94 -106 callsubr
        </CharString>
        <CharString name="dvG_DA">
          291 755 146 callsubr
          -939 -88 callsubr
          15 38 64 vvcurveto
          236 393 -72 vlineto
          92 callgsubr
          -164 -72 -102 -109 191 callsubr
          hvcurveto
          -86 callsubr
        </CharString>
        <CharString name="dvG_DHA">
          366 1005 42 callsubr
          -495 -88 callsubr
          15 38 64 vvcurveto
          236 90 131 callsubr
          59 57 18 27 46 vhcurveto
          -107 -106 callsubr
        </CharString>
        <CharString name="dvG_DH_VA">
          688 1070 -73 callgsubr
          257 -11 callgsubr
          -617 -107 callgsubr
          360 157 callgsubr
          -13 1 -13 2 -12 hvcurveto
          -36 -38 -53 -28 10 callsubr
          -504 -88 callsubr
          17 133 callsubr
          97 131 callsubr
          71 68 26 37 50 vhcurveto
          -44 36 55 -29 71 hhcurveto
          57 callsubr
          hvcurveto
          -89 -106 callsubr
        </CharString>
        <CharString name="dvG_DH_YA">
          715 1097 -96 callsubr
          -655 -107 callgsubr
          118 107 callsubr
          -25 7 -27 11 -28 rrcurveto
          -34 -39 -52 -28 -52 13 callgsubr
          -506 -88 callsubr
          17 133 callsubr
          99 131 callsubr
          76 73 29 41 50 vhcurveto
          -41 40 57 -30 79 hhcurveto
          55 41 16 17 30 hvcurveto
          -94 -106 callsubr
        </CharString>
        <CharString name="dvG_GA">
          324 963 -79 callsubr
          -972 -88 callsubr
          15 38 64 vvcurveto
          236 180 -151 vlineto
          -48 -33 -12 -15 -12 hvcurveto
          145 callsubr
        </CharString>
        <CharString name="dvG_GHA">
          364 746 250 rmoveto
          -38 -38 -51 -27 -53 -18 callgsubr
          263 105 callsubr
          -1012 -88 callsubr
          15 38 64 vvcurveto
          236 126 vlineto
          -7 -15 -3 -16 -19 vvcurveto
          -59 35 -46 63 -18 vhcurveto
          -25 -26 -17 -34 -43 vvcurveto
          173 callsubr
          50 50 13 21 42 vhcurveto
          -96 -106 callsubr
        </CharString>
        <CharString name="dvG_JA">
          483 1121 -79 callsubr
          -1130 -88 callsubr
          15 38 64 vvcurveto
          236 622 -96 -226 vlineto
          -92 callsubr
          152 -293 hlineto
          -105 callgsubr
          endchar
        </CharString>
        <CharString name="dvG_LA">
          436 1075 -79 callsubr
          -1084 -88 callsubr
          15 38 64 vvcurveto
          236 575 -72 vlineto
          1 -8 -9 1 -10 -104 callgsubr
          8 55 23 116 80 1 rrcurveto
          -333 vlineto
          -105 callgsubr
          endchar
        </CharString>
        <CharString name="dvG_MA">
          375 757 302 -51 callsubr
          257 hmoveto
          41 -18 38 -21 26 vhcurveto
          -1023 -88 callsubr
          15 38 64 vvcurveto
          236 191 -221 vlineto
          -48 -33 -12 -15 -12 hvcurveto
          9 callgsubr
        </CharString>
        <CharString name="dvG_NA">
          19 658 -79 callsubr
          -668 -5 callgsubr
          206 159 -280 vlineto
          -299 -141 rlineto
          -43 callsubr
          211 106 rlineto
          -111 -106 callsubr
        </CharString>
        <CharString name="dvG_NNA">
          529 671 341 97 callgsubr
          498 -81 callsubr
          -1178 -88 callsubr
          15 38 64 vvcurveto
          236 146 -153 vlineto
          137 callgsubr
          180 120 -494 -106 callsubr
        </CharString>
        <CharString name="dvG_N_YA">
          343 725 -96 callsubr
          -992 -107 callgsubr
          131 168 callsubr
          202 170 callsubr
          4 -30 9 -35 15 -32 -215 -100 rcurveline
          -43 callsubr
          182 90 rlineto
          -38 40 55 -27 75 hhcurveto
          55 41 16 17 30 hvcurveto
          -94 -106 callsubr
        </CharString>
        <CharString name="dvG_R">
          -209 242 520 rmoveto
          190 -95 callgsubr
          -442 -5 callgsubr
          247 -6 rmoveto
          -404 -245 210 callsubr
          374 255 rlineto
          endchar
        </CharString>
        <CharString name="dvG_RA">
          28 667 -79 callsubr
          -677 -5 callgsubr
          206 168 -260 vlineto
          -325 -197 210 callsubr
          266 181 rlineto
          -134 -106 callsubr
        </CharString>
        <CharString name="dvG_R_YA">
          328 710 -96 callsubr
          -978 -39 callsubr
          168 callsubr
          187 170 callsubr
          4 -31 9 -35 16 -33 -286 -155 rcurveline
          9 -27 34 -36 16 -11 273 161 rcurveline
          -42 40 58 -31 80 hhcurveto
          55 41 16 17 30 hvcurveto
          -94 -106 callsubr
        </CharString>
        <CharString name="dvG_SA">
          370 752 346 rmoveto
          -14 -35 -45 -8 -43 -92 callgsubr
          190 hlineto
          -15 callgsubr
          -1019 -88 callsubr
          15 38 64 vvcurveto
          236 203 vlineto
          -101 callsubr
          25 25 2 5 21 hvcurveto
          -212 vlineto
          -105 callgsubr
          endchar
        </CharString>
        <CharString name="dvG_VA">
          288 670 -73 callgsubr
          257 -11 callgsubr
          -936 -88 callsubr
          15 38 64 vvcurveto
          236 427 75 callgsubr
        </CharString>
        <CharString name="dvG_YA">
          315 697 -96 callsubr
          -963 -107 callgsubr
          131 -151 30 callgsubr
          236 175 vlineto
          32 callsubr
        </CharString>
        <CharString name="dvGx">
          -272 167 66 rmoveto
          -94 callgsubr
          200 454 -103 callgsubr
          -377 -88 callsubr
          15 38 64 vvcurveto
          236 vlineto
          endchar
        </CharString>
        <CharString name="dvGxA">
          36 167 66 rmoveto
          -94 callgsubr
          500 454 -103 callgsubr
          -672 hlineto
          -41 18 -38 21 -26 vhcurveto
          132 -151 hlineto
          -48 -33 -12 -15 -12 hvcurveto
          145 callsubr
        </CharString>
        <CharString name="dvGx_R">
          -209 242 520 rmoveto
          190 -95 callgsubr
          -442 -5 callgsubr
          247 -6 rmoveto
          -404 -245 210 callsubr
          374 255 rlineto
          -198 -218 rmoveto
          -94 callgsubr
          endchar
        </CharString>
        <CharString name="dvGx_RA">
          28 320 16 rmoveto
          -94 callgsubr
          347 504 -103 callgsubr
          -677 -5 callgsubr
          206 168 -260 vlineto
          -325 -197 210 callsubr
          266 181 rlineto
          -134 -106 callsubr
        </CharString>
        <CharString name="dvH">
          -131 538 168 rmoveto
          92 -279 vlineto
          -31 -30 -5 -10 -27 hvcurveto
          -24 24 -6 21 14 vvcurveto
          23 31 14 79 vhcurveto
          103 hlineto
          15 34 36 25 hvcurveto
          118 104 -64 callsubr
          -517 -107 callgsubr
          295 209 callsubr
          -40 26 -50 47 -44 hvcurveto
          -37 -29 -24 -42 -51 vvcurveto
          -152 190 -80 146 -35 vhcurveto
          9 13 14 35 2 24 rrcurveto
          -110 30 -137 48 99 vvcurveto
          62 55 34 65 vhcurveto
          endchar
        </CharString>
        <CharString name="dvHA">
          -118 354 341 105 callgsubr
          -531 -107 callgsubr
          295 209 callsubr
          -40 26 -50 47 -44 hvcurveto
          -37 -29 -24 -42 -51 vvcurveto
          -152 190 -80 146 -35 vhcurveto
          -58 callgsubr
        </CharString>
        <CharString name="dvHA_mU">
          118 callsubr
          -94 74 -64 92 -43 vhcurveto
          -11 -5 -11 -6 -9 -7 125 callgsubr
          82 -83 54 -46 9 hvcurveto
          -97 30 -85 48 95 callgsubr
        </CharString>
        <CharString name="dvHA_mUU">
          118 callsubr
          -78 55 -61 74 -46 vhcurveto
          -74 -10 -55 -51 -84 vvcurveto
          -87 79 -61 85 38 52 12 26 36 vhcurveto
          232 callgsubr
          30 30 33 66 87 83 -53 -129 83 hvcurveto
          17 5 31 31 5 10 -38 70 -70 80 -83 46 rrcurveto
          -83 55 -92 58 95 callgsubr
        </CharString>
        <CharString name="dvHA_mvR">
          -22 401 272 callsubr
          169 -64 callsubr
          -609 -107 callgsubr
          322 -70 -109 hlineto
          -129 -41 -51 -54 -41 28 -50 47 -44 hvcurveto
          -41 -31 -27 -44 -60 vvcurveto
          -167 190 -103 177 -35 vhcurveto
          9 13 14 35 2 24 rrcurveto
          -125 31 -153 64 122 vvcurveto
          89 83 34 78 48 38 -12 -18 vhcurveto
          -34 -154 -14 -85 vvcurveto
          -64 67 -48 84 66 46 28 30 27 vhcurveto
          -8 20 -20 27 -16 12 rrcurveto
          -31 -31 -38 -17 -31 hhcurveto
          -24 -34 3 27 hvcurveto
          54 139 2 85 vvcurveto
          46 -1 -47 69 -140 hhcurveto
          -39 -40 -6 -13 -36 hvcurveto
          -24 24 -8 24 12 vvcurveto
          24 32 13 94 vhcurveto
          endchar
        </CharString>
        <CharString name="dvH_LA">
          61 476 272 callsubr
          175 -64 callsubr
          -710 -107 callgsubr
          417 270 callsubr
          30 -54 51 -44 hvcurveto
          -53 -38 -35 -54 -73 vvcurveto
          -163 154 -94 122 callgsubr
          71 96 vvcurveto
          119 116 48 98 68 43 -20 -43 21 vhcurveto
          -6 hlineto
          -47 -31 -35 -19 -9 hvcurveto
          21 -8 -27 34 -54 hhcurveto
          -58 -45 -42 -58 -89 104 -54 89 -22 hvcurveto
          10 7 13 20 5 10 rrcurveto
          -87 24 -59 32 54 vvcurveto
          30 16 17 30 30 25 -19 -22 -11 -9 -14 -1 -4 vhcurveto
          -7 8 36 -16 20 hhcurveto
          6 33 14 71 48 2 rrcurveto
          1 -6 0 -5 -6 vvcurveto
          -180 238 callsubr
          -61 235 callgsubr
        </CharString>
        <CharString name="dvH_MA">
          277 659 107 rmoveto
          2 -27 -35 0 -32 hhcurveto
          -24 -28 0 -1 -19 hvcurveto
          30 vlineto
          66 -2 -49 66 -139 hhcurveto
          -45 -44 -7 -14 -39 hvcurveto
          -21 23 -5 19 13 vvcurveto
          23 31 14 79 vhcurveto
          147 hlineto
          15 34 36 25 hvcurveto
          118 203 272 callgsubr
          -926 -107 callgsubr
          348 -70 -130 hlineto
          -139 -25 -56 -48 -39 24 -47 44 -43 hvcurveto
          -49 -35 -32 -51 -68 vvcurveto
          -175 183 -104 232 -51 vhcurveto
          13 15 14 33 22 vvcurveto
          -233 54 -92 82 109 vvcurveto
          103 82 39 81 61 17 -21 -41 1 vhcurveto
          -5 0 -9 -2 -11 vhcurveto
          -42 -2 -26 -11 -11 -14 rrcurveto
          -9 callgsubr
          -47 86 -107 53 16 7 239 callgsubr
          29 22 -2 -2 27 hvcurveto
          -187 vlineto
          -26 71 -20 49 vhcurveto
          742 vlineto
          endchar
        </CharString>
        <CharString name="dvH_NA">
          38 521 520 rmoveto
          156 -95 callgsubr
          -687 -107 callgsubr
          413 -72 hlineto
          3 -40 -68 0 -90 hhcurveto
          -121 -41 -52 -54 -43 31 -53 51 -45 hvcurveto
          -52 -37 -35 -54 -73 vvcurveto
          -161 154 -86 122 callgsubr
          63 94 vvcurveto
          119 116 48 98 34 29 -6 -11 21 vhcurveto
          -46 -22 -117 -55 109 callgsubr
          135 75 rlineto
          2 -9 1 -9 -10 68 callsubr
          49 14 163 vhcurveto
          53 31 -3 27 hhcurveto
          14 35 39 25 hvcurveto
          endchar
        </CharString>
        <CharString name="dvH_NNA">
          38 370 82 rmoveto
          -55 -18 -14 -16 -30 -9 36 49 vhcurveto
          84 vlineto
          5 23 23 3 23 hhcurveto
          4 hlineto
          102 150 74 callsubr
          58 27 41 40 27 vhcurveto
          -53 vlineto
          -81 50 -54 73 67 39 49 71 vhcurveto
          93 vlineto
          38 -18 19 -33 -45 68 callsubr
          32 13 94 vhcurveto
          endchar
        </CharString>
        <CharString name="dvH_RA">
          38 472 340 74 callsubr
          119 116 48 98 38 30 -7 -14 23 vhcurveto
          -209 -123 210 callsubr
          196 140 rlineto
          1 -8 1 -8 -8 68 callsubr
          32 13 94 vhcurveto
          endchar
        </CharString>
        <CharString name="dvH_VA">
          38 511 -16 rmoveto
          -28 -28 -41 -12 -30 hhcurveto
          -52 -23 27 31 49 38 21 52 29 30 -9 -16 25 hvcurveto
          -39 293 210 callgsubr
          157 -64 callsubr
          -688 -107 callgsubr
          413 270 callsubr
          31 -54 51 -45 hvcurveto
          -53 -37 -35 -54 -73 vvcurveto
          -163 154 -94 122 callgsubr
          71 96 vvcurveto
          119 116 48 98 75 46 -24 -55 17 vhcurveto
          16 -22 -28 14 -45 hhcurveto
          -78 -69 -38 -84 -75 54 -66 102 45 25 12 17 24 hvcurveto
          -34 238 callsubr
          -62 235 callgsubr
        </CharString>
        <CharString name="dvH_YA">
          254 630 25 rmoveto
          -41 -23 -46 -40 -76 hhcurveto
          -52 -44 18 31 -28 hvcurveto
          93 39 44 62 54 vvcurveto
          54 -47 68 -123 -53 -51 -8 -16 -45 vhcurveto
          -23 24 -6 20 14 vvcurveto
          23 31 14 79 vhcurveto
          147 hlineto
          15 34 36 25 hvcurveto
          118 174 vlineto
          263 -81 callsubr
          -903 -107 callgsubr
          348 -70 -130 hlineto
          -139 -25 -56 -48 -40 26 -49 46 -44 hvcurveto
          -51 -37 -33 -55 -75 vvcurveto
          -168 163 -102 232 -51 vhcurveto
          9 18 14 33 4 19 rrcurveto
          -224 53 -84 72 104 vvcurveto
          118 86 48 98 62 19 -20 -26 -52 -78 -22 -87 -18 vhcurveto
          -100 14 97 -114 142 hhcurveto
          56 44 17 17 31 hvcurveto
          -153 vlineto
          -26 71 -20 49 vhcurveto
          847 vlineto
          endchar
        </CharString>
        <CharString name="dvI">
          -84 418 182 callsubr
          -566 -38 callsubr
          endchar
        </CharString>
        <CharString name="dvII">
          -84 418 182 callsubr
          -119 hlineto
          -21 26 -23 39 49 88 callsubr
          -59 37 -49 36 -34 hvcurveto
          -372 -38 callsubr
          endchar
        </CharString>
        <CharString name="dvII_Anusvara">
          -84 418 182 callsubr
          -130 hlineto
          -17 25 -15 34 40 88 callsubr
          -51 27 -43 31 -33 hvcurveto
          -358 -38 callsubr
          42 354 156 callgsubr
        </CharString>
        <CharString name="dvJ">
          51 callgsubr
          endchar
        </CharString>
        <CharString name="dvJA">
          190 828 -79 callsubr
          -838 -107 callgsubr
          582 -96 -226 hlineto
          -92 callsubr
          152 -293 hlineto
          -105 callgsubr
          endchar
        </CharString>
        <CharString name="dvJH">
          -83 404 520 rmoveto
          151 -95 callgsubr
          -565 -107 callgsubr
          294 -59 -35 callsubr
          12 -2 14 -4 14 hvcurveto
          11 hlineto
          43 39 8 11 21 hvcurveto
          117 vlineto
          -32 -27 -77 -20 -49 -5 rrcurveto
          25 -22 -29 18 -35 12 callgsubr
          46 28 -3 11 hhcurveto
          18 33 39 25 hvcurveto
          endchar
        </CharString>
        <CharString name="dvJHA">
          157 539 116 callsubr
          -806 -107 callgsubr
          294 -59 -35 callsubr
          12 -2 14 -4 14 hvcurveto
          27 -1 31 3 26 6 rrcurveto
          -160 -106 callsubr
        </CharString>
        <CharString name="dvJH_MA">
          558 940 302 -51 callsubr
          -536 hmoveto
          213 193 callgsubr
          -1 -2 -2 -2 -1 -2 -29 -11 -36 -9 -29 -4 rrcurveto
          35 -23 -34 28 -44 12 callgsubr
          46 28 -3 11 hhcurveto
          18 33 39 25 hvcurveto
          793 97 -103 callgsubr
          -1207 -107 callgsubr
          294 -59 -35 callsubr
          6 0 6 -1 6 hvcurveto
          6 hlineto
          31 29 4 7 22 hvcurveto
          -43 31 47 -41 33 -53 callsubr
        </CharString>
        <CharString name="dvJH_NA">
          274 656 319 rmoveto
          -36 -57 -70 -12 -64 hhcurveto
          -24 -24 2 3 -21 hvcurveto
          17 -20 -23 11 -28 11 callsubr
          98 252 vlineto
          256 -81 callsubr
          -922 -107 callgsubr
          294 -60 -35 callsubr
          15 -3 19 -7 19 hvcurveto
          -4 25 27 -2 27 hhcurveto
          45 45 7 17 36 hvcurveto
          -60 vlineto
          -208 -121 -33 -24 -23 -19 3 -28 rlinecurve
          -56 6 93 -65 35 hhcurveto
          17 34 20 18 -4 hvcurveto
          -3 29 -22 47 -8 19 113 83 rcurveline
          -96 265 callsubr
        </CharString>
        <CharString name="dvJH_R">
          10 681 330 rmoveto
          -44 -59 -78 -15 -70 hhcurveto
          -24 -23 2 2 -21 hvcurveto
          18 -19 -25 12 -28 11 callsubr
          97 237 -64 callsubr
          -660 -107 callgsubr
          303 -59 -35 callsubr
          15 -3 18 -7 19 hvcurveto
          -4 25 27 -2 27 hhcurveto
          54 55 10 26 38 hvcurveto
          69 -16 rmoveto
          -300 -179 -38 callgsubr
          rlinecurve
          251 196 rlineto
          endchar
        </CharString>
        <CharString name="dvJH_RA">
          305 665 319 rmoveto
          -36 -57 -70 -12 -64 hhcurveto
          -24 -23 2 2 -21 hvcurveto
          18 -19 -25 12 -28 11 callsubr
          97 252 272 callgsubr
          -932 -107 callgsubr
          303 -59 -35 callsubr
          15 -3 18 -7 19 hvcurveto
          -4 25 27 -2 27 hhcurveto
          45 45 7 17 36 hvcurveto
          -58 vlineto
          -210 -125 -38 callgsubr
          rlinecurve
          145 113 rlineto
          -99 265 callsubr
        </CharString>
        <CharString name="dvJH_YA">
          508 890 -104 callsubr
          -486 hmoveto
          207 201 callgsubr
          -14 2 -14 4 -15 -36 -11 -43 -8 -29 -3 rrcurveto
          25 -22 -29 18 -35 11 callsubr
          753 97 -103 callgsubr
          -1167 -107 callgsubr
          294 165 callsubr
          -36 51 -25 hhcurveto
          -28 -44 -30 -41 -42 54 -32 57 -18 hvcurveto
          36 -57 29 -82 21 -50 21 7 62 41 7 16 -11 19 -40 49 -39 42 rrcurveto
          4 hlineto
          157 76 90 72 12 -2 14 -4 14 hvcurveto
          8 10 0 12 hhcurveto
          22 31 4 6 26 hvcurveto
          -57 40 64 -44 96 hhcurveto
          55 41 16 17 30 hvcurveto
          -94 -106 callsubr
        </CharString>
        <CharString name="dvJ_BA">
          515 830 191 -55 callgsubr
          256 -11 callgsubr
          -1121 -107 callgsubr
          865 247 callgsubr
          -277 hlineto
          -92 callsubr
          144 hlineto
          -1 -10 -1 -11 -11 vvcurveto
          -49 callsubr
        </CharString>
        <CharString name="dvJ_DA">
          501 965 146 callsubr
          -1108 -107 callgsubr
          814 189 callgsubr
          -50 -42 -10 -16 -33 hvcurveto
          -330 hlineto
          -92 callsubr
          159 hlineto
          -9 -25 -5 -27 -28 vvcurveto
          191 callsubr
          vhcurveto
          -86 callsubr
        </CharString>
        <CharString name="dvJ_DDA">
          436 944 520 rmoveto
          32 -95 callgsubr
          -944 -107 callgsubr
          792 -61 -112 hlineto
          -46 -37 -12 -23 -25 hvcurveto
          -258 hlineto
          -92 callsubr
          147 hlineto
          -106 8 101 -60 43 -33 callgsubr
        </CharString>
        <CharString name="dvJ_JA">
          599 1238 -79 callsubr
          -1248 -107 callgsubr
          991 -96 -228 -56 callsubr
          154 -293 -60 callgsubr
        </CharString>
        <CharString name="dvJ_JHA">
          669 1051 116 callsubr
          -1276 -107 callgsubr
          764 -59 -105 hlineto
          -47 -37 -13 -24 -25 hvcurveto
          -236 hlineto
          -92 callsubr
          127 hlineto
          -100 9 97 -59 48 -71 callsubr
          12 -2 14 -4 14 hvcurveto
          11 hlineto
          27 26 3 5 20 hvcurveto
          -160 -106 callsubr
        </CharString>
        <CharString name="dvJ_J_NYA">
          518 1157 520 rmoveto
          237 callgsubr
          912 -76 -581 hlineto
          -92 callsubr
          260 hlineto
          38 -43 32 -53 -50 0 callgsubr
          59 -65 54 vhcurveto
          156 -313 -60 callgsubr
        </CharString>
        <CharString name="dvJ_J_VA">
          913 1295 -73 callgsubr
          256 -11 callgsubr
          -1561 -107 callgsubr
          1305 247 callgsubr
          -275 -56 callsubr
          142 hlineto
          -1 -10 -1 -11 -11 vvcurveto
          -49 callsubr
        </CharString>
        <CharString name="dvJ_J_YA">
          933 1315 -96 callsubr
          -1583 -107 callgsubr
          1046 139 callsubr
          -25 -4 -20 -8 -16 vhcurveto
          13 -63 -89 22 -48 hhcurveto
          -105 -56 callsubr
          117 hlineto
          -99 15 71 -133 166 hhcurveto
          55 41 16 17 30 hvcurveto
          -94 -106 callsubr
        </CharString>
        <CharString name="dvJ_KA">
          692 865 33 callsubr
          -1300 -107 callgsubr
          834 -98 hlineto
          19 -36 -45 14 -49 hhcurveto
          -43 -41 -10 -21 -32 hvcurveto
          -273 hlineto
          -92 callsubr
          128 hlineto
          -2 -11 -1 -12 -12 vvcurveto
          236 callgsubr
          vhcurveto
          -74 callgsubr
        </CharString>
        <CharString name="dvJ_MA">
          605 987 302 -51 callsubr
          257 hmoveto
          41 -18 38 -21 26 vhcurveto
          -1199 -107 callgsubr
          619 -157 hlineto
          33 -72 -87 28 -81 hhcurveto
          -78 hlineto
          -92 callsubr
          64 hlineto
          28 50 -12 -15 47 hvcurveto
          -19 -4 -12 -8 -7 -8 -26 callgsubr
        </CharString>
        <CharString name="dvJ_NA">
          187 826 -79 callsubr
          -836 -107 callgsubr
          579 -174 hlineto
          78 -80 -104 47 -101 46 callsubr
          70 callgsubr
          -7 24 -14 22 hvcurveto
          59 -12 66 -41 56 -50 -261 -147 rcurveline
          -33 -24 -20 -12 -35 vvcurveto
          -57 105 -64 31 20 28 24 14 -3 vhcurveto
          -3 29 -16 51 -7 19 182 116 rcurveline
          -149 -106 callsubr
        </CharString>
        <CharString name="dvJ_NY">
          -237 484 444 rmoveto
          -373 hlineto
          -14 -7 -17 -21 -7 -12 rrcurveto
          57 -46 81 -85 -80 0 callgsubr
          59 -65 54 vhcurveto
          252 hlineto
          -119 286 rmoveto
          -414 -107 callgsubr
          414 -95 callgsubr
          endchar
        </CharString>
        <CharString name="dvJ_NYA">
          6 655 -79 callsubr
          -665 -107 callgsubr
          398 -76 -277 hlineto
          -14 -7 -17 -21 -7 -12 rrcurveto
          57 -46 81 -85 -80 0 callgsubr
          59 -65 54 vhcurveto
          156 -313 -60 callgsubr
        </CharString>
        <CharString name="dvJ_NY_YA">
          422 804 -104 callsubr
          257 hmoveto
          41 -18 38 -21 26 vhcurveto
          -1071 -107 callgsubr
          535 139 callsubr
          -33 -6 -23 -15 -18 vhcurveto
          40 -74 -110 12 -96 hhcurveto
          -93 hlineto
          -14 -7 -11 -21 -7 -12 rrcurveto
          57 -46 74 -77 -80 0 callgsubr
          65 -65 54 vhcurveto
          71 hlineto
          26 24 -4 -7 26 hvcurveto
          -100 12 70 -139 171 hhcurveto
          55 41 16 17 30 hvcurveto
          -94 -106 callsubr
        </CharString>
        <CharString name="dvJ_R">
          26 callgsubr
          endchar
        </CharString>
        <CharString name="dvJ_RA">
          187 826 520 25 callgsubr
        </CharString>
        <CharString name="dvJ_TA">
          501 1140 -79 callsubr
          -1087 -107 callgsubr
          830 -91 -66 hlineto
          -36 -32 -2 -3 -29 hvcurveto
          -374 hlineto
          -92 callsubr
          138 hlineto
          -3 -12 -2 -14 -15 vvcurveto
          -103 89 -128 56 -72 vhcurveto
          -68 callgsubr
        </CharString>
        <CharString name="dvJ_TTA">
          484 964 147 callgsubr
          -1103 -107 callgsubr
          825 208 callsubr
          -43 -40 -9 -16 -34 hvcurveto
          -333 hlineto
          -92 callsubr
          157 hlineto
          -9 -23 -5 -25 -28 vvcurveto
          214 callsubr
          vhcurveto
          -56 callgsubr
        </CharString>
        <CharString name="dvJ_VA">
          511 893 -73 callgsubr
          257 -11 callgsubr
          -1118 -107 callgsubr
          861 247 callgsubr
          -273 hlineto
          -92 callsubr
          140 hlineto
          -1 -10 -1 -11 -11 vvcurveto
          -49 callsubr
        </CharString>
        <CharString name="dvJ_YA">
          554 936 -96 callsubr
          -1204 -107 callgsubr
          667 139 callsubr
          -27 -4 -21 -10 -16 vhcurveto
          18 -75 -90 20 -81 hhcurveto
          -78 hlineto
          -92 callsubr
          138 hlineto
          -99 15 71 -133 166 hhcurveto
          55 41 16 17 30 hvcurveto
          -94 -106 callsubr
        </CharString>
        <CharString name="dvJx">
          51 callgsubr
          307 -583 156 callsubr
        </CharString>
        <CharString name="dvJxA">
          190 385 6 rmoveto
          -94 callgsubr
          443 514 -103 callgsubr
          -838 -107 callgsubr
          582 -96 -226 hlineto
          -92 callsubr
          152 -293 hlineto
          -105 callgsubr
          endchar
        </CharString>
        <CharString name="dvJx_JxA">
          593 374 17 rmoveto
          -94 callgsubr
          468 hmoveto
          -94 callgsubr
          390 503 -103 callgsubr
          -1248 -107 callgsubr
          991 -96 -228 -56 callsubr
          154 -293 -60 callgsubr
        </CharString>
        <CharString name="dvJx_R">
          26 callgsubr
          28 -447 156 callsubr
        </CharString>
        <CharString name="dvJx_RA">
          187 103 148 rmoveto
          -94 callgsubr
          723 372 25 callgsubr
        </CharString>
        <CharString name="dvJx_YA">
          554 412 17 rmoveto
          -94 callgsubr
          524 233 rmoveto
          215 callsubr
          -65 -48 22 37 -28 -94 callsubr
          172 hlineto
          -15 callgsubr
          -1204 -107 callgsubr
          667 139 callsubr
          -27 -4 -21 -10 -16 vhcurveto
          18 -75 -90 20 -81 hhcurveto
          -78 hlineto
          -92 callsubr
          138 hlineto
          -99 15 71 -133 166 hhcurveto
          55 41 16 17 30 hvcurveto
          -94 -106 callsubr
        </CharString>
        <CharString name="dvK">
          -4 344 35 callsubr
          171 -95 callgsubr
          -645 -97 callgsubr
          282 vlineto
          48 37 50 43 49 hhcurveto
          22 17 -9 -18 8 hvcurveto
          59 40 rlineto
          47 -30 -50 27 -63 106 callgsubr
          endchar
        </CharString>
        <CharString name="dvKA">
          174 344 33 callsubr
          -820 hlineto
          -41 18 -38 21 -26 vhcurveto
          354 66 callgsubr
        </CharString>
        <CharString name="dvKH">
          -18 624 520 239 callsubr
          147 -25 callgsubr
          424 -210 rmoveto
          -76 -19 -83 -66 -81 -71 callgsubr
          89 65 49 45 41 hvcurveto
          endchar
        </CharString>
        <CharString name="dvKHA">
          240 622 218 4 callgsubr
        </CharString>
        <CharString name="dvKH_KHA">
          858 1240 92 callsubr
          -1507 6 callgsubr
          498 163 callgsubr
          -63 -38 -20 -67 -4 0 -5 1 -4 hvcurveto
          -42 -34 -54 -31 -57 -71 callgsubr
          58 56 21 39 46 hvcurveto
          63 -99 137 -105 167 -10 82 callsubr
        </CharString>
        <CharString name="dvKH_MA">
          652 1034 302 -51 callsubr
          257 hmoveto
          41 -18 38 -21 26 vhcurveto
          -1301 -69 callsubr
          -156 54 -51 85 rrcurveto
          110 14 22 106 57 callgsubr
          454 -221 hlineto
          -13 -13 -1 -2 -11 hvcurveto
          1 vlineto
          -1 vlineto
          -28 -4 -19 -9 -9 -11 rrcurveto
          -9 callgsubr
          -7 2 -8 3 -9 vhcurveto
          -27 -32 -41 -18 -44 -71 callgsubr
          53 50 17 32 43 hvcurveto
          -30 28 33 -23 25 -53 callsubr
        </CharString>
        <CharString name="dvKH_NA">
          238 620 412 69 callgsubr
          80 11 51 48 161 vvcurveto
          29 -3 48 -9 41 vhcurveto
          366 hlineto
          -302 vmoveto
          -13 callsubr
          258 179 -103 callgsubr
          -888 -107 callgsubr
          146 121 callgsubr
          -53 -39 -21 -67 -74 86 -135 134 -51 hvcurveto
          -119 -23 -38 -9 -28 -11 -7 -30 rlinecurve
          -1 -5 -1 -5 -5 vvcurveto
          -56 63 -80 28 -6 vhcurveto
          -1 4 4 -1 4 hhcurveto
          19 22 10 10 1 hvcurveto
          8 30 -7 52 20 vvcurveto
          426 124 rlineto
          -66 vlineto
          -26 71 -20 49 vhcurveto
          624 vlineto
          endchar
        </CharString>
        <CharString name="dvKH_R">
          -3 callgsubr
          endchar
        </CharString>
        <CharString name="dvKH_RA">
          238 620 412 -8 callsubr
        </CharString>
        <CharString name="dvKH_SHA">
          722 1370 -79 callsubr
          -1380 hlineto
          -41 18 -38 21 -26 vhcurveto
          147 -37 callsubr
        </CharString>
        <CharString name="dvKH_TA">
          597 1240 -79 callsubr
          -1250 -69 callsubr
          -156 54 -51 85 rrcurveto
          110 14 22 106 57 callgsubr
          722 242 callsubr
          -9 1 -9 1 -9 hvcurveto
          -47 -33 -58 -36 -62 -71 callgsubr
          60 56 22 40 46 hvcurveto
          31 -66 46 -64 34 -44 -68 callgsubr
        </CharString>
        <CharString name="dvKH_VA">
          606 988 -73 callgsubr
          259 -11 callgsubr
          -1257 -69 callsubr
          -155 54 -52 85 rrcurveto
          104 13 28 97 109 79 callgsubr
          731 157 callgsubr
          -8 0 -9 1 -8 hvcurveto
          -56 -29 -60 -38 -67 -71 callgsubr
          80 49 39 37 41 hvcurveto
          -51 36 58 -34 78 hhcurveto
          57 callsubr
          hvcurveto
          -89 -106 callsubr
        </CharString>
        <CharString name="dvKH_YA">
          635 1017 -96 callsubr
          -1285 -69 callsubr
          -156 54 -51 85 rrcurveto
          110 14 22 106 57 callgsubr
          481 107 callsubr
          -22 5 -24 9 -24 rrcurveto
          -50 -33 -60 -39 -64 -71 callgsubr
          69 65 29 54 50 hvcurveto
          -48 40 60 -35 86 hhcurveto
          55 41 16 17 30 hvcurveto
          -94 -106 callsubr
        </CharString>
        <CharString name="dvKHx">
          -18 28 65 rmoveto
          -94 callgsubr
          596 455 239 callsubr
          147 -25 callgsubr
          424 -210 rmoveto
          -76 -19 -83 -66 -81 -71 callgsubr
          89 65 49 45 41 hvcurveto
          endchar
        </CharString>
        <CharString name="dvKHxA">
          238 28 65 rmoveto
          -94 callgsubr
          584 153 4 callgsubr
        </CharString>
        <CharString name="dvKHx_MA">
          652 99 1 rmoveto
          -94 callgsubr
          935 301 -51 callsubr
          257 hmoveto
          41 -18 38 -21 26 vhcurveto
          -1304 -107 callgsubr
          150 -73 callsubr
          -156 54 -51 85 rrcurveto
          110 14 22 106 57 callgsubr
          454 -221 hlineto
          -13 -13 -1 -2 -11 hvcurveto
          1 vlineto
          -1 vlineto
          -28 -4 -19 -9 -9 -11 rrcurveto
          -9 callgsubr
          -7 2 -8 3 -9 vhcurveto
          -27 -32 -41 -18 -44 -71 callgsubr
          53 50 17 32 43 hvcurveto
          -30 28 33 -23 25 -53 callsubr
        </CharString>
        <CharString name="dvKHx_R">
          -3 callgsubr
          -229 -107 rmoveto
          -94 callgsubr
          endchar
        </CharString>
        <CharString name="dvKHx_RA">
          238 472 -86 rmoveto
          -94 callgsubr
          148 498 -8 callsubr
        </CharString>
        <CharString name="dvKHx_SA">
          681 99 1 rmoveto
          -94 callgsubr
          964 345 rmoveto
          -14 -35 -45 -8 -43 -92 callgsubr
          190 hlineto
          -15 callgsubr
          -1333 -107 callgsubr
          149 -25 callgsubr
          500 hlineto
          -78 callgsubr
          -16 4 -17 5 -17 hvcurveto
          -55 -33 -66 -41 -64 -71 callgsubr
          84 63 44 42 41 hvcurveto
          44 -67 62 -79 58 -57 -66 callgsubr
        </CharString>
        <CharString name="dvKHx_SHA">
          722 99 1 rmoveto
          -94 callgsubr
          1262 519 -103 callgsubr
          -1372 -107 callgsubr
          148 -37 callsubr
        </CharString>
        <CharString name="dvKHx_TA">
          564 99 1 rmoveto
          -94 callgsubr
          1104 519 -103 callgsubr
          -1214 -107 callgsubr
          148 -25 callgsubr
          689 242 callsubr
          -19 3 -19 5 -20 hvcurveto
          -31 -35 -46 -21 -45 -71 callgsubr
          55 46 19 25 37 hvcurveto
          30 -60 41 -56 31 -40 -68 callgsubr
        </CharString>
        <CharString name="dvKHx_VA">
          606 99 1 rmoveto
          -94 callgsubr
          889 239 -19 callsubr
          257 -11 callgsubr
          -1255 -69 callsubr
          -156 54 -51 85 rrcurveto
          110 14 22 106 57 callgsubr
          731 157 callgsubr
          -8 0 -9 1 -8 hvcurveto
          -56 -29 -60 -38 -67 -71 callgsubr
          80 49 39 37 41 hvcurveto
          -51 36 58 -34 78 hhcurveto
          57 callsubr
          hvcurveto
          -89 -106 callsubr
        </CharString>
        <CharString name="dvKHx_YA">
          635 99 1 rmoveto
          -94 callgsubr
          918 249 rmoveto
          215 callsubr
          -65 -48 22 37 -28 -94 callsubr
          172 hlineto
          -15 callgsubr
          -1285 -69 callsubr
          -156 54 -51 85 rrcurveto
          110 14 22 106 57 callgsubr
          481 107 callsubr
          -22 5 -24 9 -24 rrcurveto
          -50 -33 -60 -39 -64 -71 callgsubr
          69 65 29 54 50 hvcurveto
          -48 40 60 -35 86 hhcurveto
          55 41 16 17 30 hvcurveto
          -94 -106 callsubr
        </CharString>
        <CharString name="dvK_CA">
          575 957 252 rmoveto
          -38 -35 -52 -22 -51 129 callsubr
          24 57 hvcurveto
          34 hlineto
          41 -18 28 -21 26 vhcurveto
          -244 hlineto
          3 -16 -14 1 -13 hhcurveto
          -40 -31 -14 -33 -33 hvcurveto
          123 493 vlineto
          -613 -290 -101 callgsubr
          869 180 -103 callgsubr
          -1223 -97 callgsubr
          293 vlineto
          49 33 36 26 45 hhcurveto
          8 7 -1 -2 8 hvcurveto
          37 hlineto
          250 callsubr
          -27 vvcurveto
          -90 81 -92 126 49 41 14 25 39 vhcurveto
          -104 -106 callsubr
        </CharString>
        <CharString name="dvK_DA">
          545 464 520 rmoveto
          426 189 callgsubr
          -73 -54 -20 -32 -39 hvcurveto
          27 -29 -40 15 -47 106 callgsubr
          -120 -174 -101 callgsubr
          665 180 rmoveto
          175 -95 callgsubr
          -1194 -97 callgsubr
          282 vlineto
          48 37 50 43 49 hhcurveto
          14 11 -3 -7 9 hvcurveto
          -17 -32 -8 -35 -37 vvcurveto
          191 callsubr
          vhcurveto
          -86 callsubr
        </CharString>
        <CharString name="dvK_JA">
          719 1101 424 142 callgsubr
          -70 149 180 callsubr
          6 -18 -28 4 -28 hhcurveto
          -29 -37 -6 -30 -40 hvcurveto
          116 637 vlineto
          -757 -290 -101 callgsubr
          1013 180 -103 callgsubr
          -1367 -97 callgsubr
          287 vlineto
          33 47 43 43 47 1 rrcurveto
          -162 52 96 -149 141 45 callsubr
        </CharString>
        <CharString name="dvK_KA">
          713 883 135 callsubr
          -419 180 rmoveto
          419 -98 hlineto
          19 -36 -45 14 -49 hhcurveto
          -43 -40 -10 -20 -32 hvcurveto
          10 -22 -25 5 -28 106 callgsubr
          -120 -174 -101 callgsubr
          659 180 rmoveto
          346 -95 callgsubr
          -1359 -97 callgsubr
          282 vlineto
          31 40 39 36 41 11 rrcurveto
          -8 -19 -4 -22 -24 vvcurveto
          236 callgsubr
          vhcurveto
          -74 callgsubr
        </CharString>
        <CharString name="dvK_KHA">
          815 698 341 rmoveto
          48 -21 -60 42 -53 hhcurveto
          -25 -35 -6 -31 -40 hvcurveto
          126 248 vlineto
          126 callgsubr
          -356 -111 -101 callgsubr
          853 -122 rmoveto
          -13 callsubr
          257 179 -103 callgsubr
          -1469 -107 callgsubr
          359 -97 callsubr
          283 vlineto
          44 29 36 37 37 hhcurveto
          26 16 -14 -15 9 hvcurveto
          -12 -14 -6 -19 -28 vvcurveto
          -109 173 -198 233 -14 vhcurveto
          82 callsubr
        </CharString>
        <CharString name="dvK_LA">
          681 1063 448 rmoveto
          -22 callsubr
          -39 -41 -12 -26 -32 hvcurveto
          14 -24 -28 7 -28 106 callgsubr
          121 602 vlineto
          -722 -290 -101 callgsubr
          979 180 -103 callgsubr
          -1330 -107 callgsubr
          351 -97 callsubr
          287 vlineto
          33 46 44 39 59 1 rrcurveto
          -7 -18 -4 -21 -23 vvcurveto
          -34 callgsubr
          vhcurveto
          -85 callsubr
        </CharString>
        <CharString name="dvK_MA">
          621 1003 302 -51 callsubr
          -539 hmoveto
          216 -122 hlineto
          28 -32 -42 14 -35 hhcurveto
          -30 -37 -6 -30 -40 hvcurveto
          -120 -174 -101 callgsubr
          916 180 -103 callgsubr
          -1270 -97 callgsubr
          282 vlineto
          48 38 49 43 50 hhcurveto
          32 25 -22 -32 15 hvcurveto
          -44 -1 -31 -12 -11 -14 -26 callgsubr
        </CharString>
        <CharString name="dvK_NA">
          168 338 250 rmoveto
          -31 -32 -45 -25 -49 hhcurveto
          -40 -37 20 54 67 44 37 67 37 30 -9 -13 25 hvcurveto
          120 170 rmoveto
          350 -95 callgsubr
          -818 -107 callgsubr
          348 -88 hlineto
          19 -36 -45 14 -49 hhcurveto
          -97 -83 -58 -113 -65 41 -65 64 -32 hvcurveto
          -51 -26 -34 -20 -24 -18 1 -28 rlinecurve
          2 -58 92 -73 33 1 21 1 28 19 -1 14 -1 29 -19 49 -7 19 165 101 rcurveline
          -116 -84 callsubr
        </CharString>
        <CharString name="dvK_NNA">
          760 902 341 97 callgsubr
          -438 hmoveto
          156 -88 hlineto
          5 -17 -20 3 -20 106 callgsubr
          -120 -174 -101 callgsubr
          1056 180 -103 callgsubr
          -1410 -97 callgsubr
          282 vlineto
          48 37 50 43 49 hhcurveto
          7 7 -1 -2 6 hvcurveto
          -132 7 84 -86 123 274 callsubr
          120 -494 -106 callsubr
        </CharString>
        <CharString name="dvK_PA">
          548 930 286 -28 callgsubr
          136 190 vlineto
          -466 hmoveto
          151 -87 hlineto
          5 -16 -17 2 -19 106 callgsubr
          -120 -174 -101 callgsubr
          843 180 -103 callgsubr
          -1197 -97 callgsubr
          282 vlineto
          48 37 50 43 49 hhcurveto
          6 6 -1 -1 5 hvcurveto
          -121 11 57 -105 131 21 callsubr
        </CharString>
        <CharString name="dvK_PHA">
          777 740 520 -64 callgsubr
          -276 91 rmoveto
          152 -81 hlineto
          -6 vlineto
          5 -16 -18 2 -19 106 callgsubr
          -120 -174 -101 callgsubr
          705 180 204 callgsubr
          -1434 -97 callgsubr
          282 vlineto
          48 37 50 43 49 hhcurveto
          8 8 -1 -3 7 hvcurveto
          -114 19 58 -87 117 hhcurveto
          38 40 9 17 34 hvcurveto
          -148 -93 callgsubr
        </CharString>
        <CharString name="dvK_P_RA">
          562 944 296 -28 callgsubr
          126 190 vlineto
          -480 hmoveto
          165 -91 hlineto
          7 -20 -22 4 -24 106 callgsubr
          -120 -174 -101 callgsubr
          868 180 -103 callgsubr
          -1222 -97 callgsubr
          282 vlineto
          48 37 50 43 49 hhcurveto
          13 11 -3 -6 9 hvcurveto
          11 -92 40 -79 80 -28 15 callgsubr
        </CharString>
        <CharString name="dvK_R">
          -4 344 35 callsubr
          170 -95 callgsubr
          -644 -19 callgsubr
          22 17 -9 -18 8 hvcurveto
          59 40 rlineto
          47 -30 -50 27 -63 106 callgsubr
          endchar
        </CharString>
        <CharString name="dvK_RA">
          174 344 230 12 callsubr
        </CharString>
        <CharString name="dvK_SA">
          638 1020 346 rmoveto
          -14 -35 -45 -8 -43 -92 callgsubr
          190 hlineto
          -556 hmoveto
          250 220 callsubr
          -4 0 -4 hhcurveto
          182 callgsubr
          -120 -174 -101 callgsubr
          934 180 -103 callgsubr
          -1288 -97 callgsubr
          291 vlineto
          56 38 41 25 37 hhcurveto
          14 12 -3 -5 9 hvcurveto
          -4 -8 -2 -10 -12 26 callsubr
        </CharString>
        <CharString name="dvK_SHA">
          689 657 412 rmoveto
          19 -28 -36 9 -31 hhcurveto
          -26 -34 -7 -29 -38 hvcurveto
          116 184 vlineto
          -5 -13 -3 -15 -16 vvcurveto
          -27 9 -21 10 -14 vhcurveto
          -315 -184 rmoveto
          -31 -33 -44 -25 -49 hhcurveto
          -46 -41 23 61 67 48 37 74 36 30 -9 -13 25 hvcurveto
          985 180 -103 callgsubr
          -1339 85 callsubr
          -60 -107 -102 80 -93 125 45 38 12 18 32 hvcurveto
          -97 vlineto
          -26 71 -20 49 vhcurveto
          292 vlineto
          67 45 48 24 69 hhcurveto
          76 46 -30 -16 35 hvcurveto
          43 callgsubr
        </CharString>
</ttFont>
